<?xml version="1.0" encoding="UTF-8" standalone="no"?>
<!-- Created with Inkscape (http://www.inkscape.org/) -->

<svg
   xmlns:dc="http://purl.org/dc/elements/1.1/"
   xmlns:cc="http://creativecommons.org/ns#"
   xmlns:rdf="http://www.w3.org/1999/02/22-rdf-syntax-ns#"
   xmlns:svg="http://www.w3.org/2000/svg"
   xmlns="http://www.w3.org/2000/svg"
   xmlns:sodipodi="http://sodipodi.sourceforge.net/DTD/sodipodi-0.dtd"
   xmlns:inkscape="http://www.inkscape.org/namespaces/inkscape"
   width="305.90271mm"
   height="56.736069mm"
   viewBox="0 0 305.9027 56.736071"
   version="1.1"
   id="svg8"
   sodipodi:docname="final logo.svg"
   inkscape:version="0.92.1 r15371"
   inkscape:export-filename="D:\Downloads\Monochrome Light - Logo.png"
   inkscape:export-xdpi="80.047745"
   inkscape:export-ydpi="80.047745">
  <defs
     id="defs2" />
  <sodipodi:namedview
     id="base"
     pagecolor="#ffffff"
     bordercolor="#666666"
     borderopacity="1.0"
     inkscape:pageopacity="1"
     inkscape:pageshadow="2"
     inkscape:zoom="0.54129268"
     inkscape:cx="442.31616"
     inkscape:cy="21.285504"
     inkscape:document-units="mm"
     inkscape:current-layer="layer1"
     showgrid="false"
     inkscape:window-width="1920"
     inkscape:window-height="1057"
     inkscape:window-x="-8"
     inkscape:window-y="-8"
     inkscape:window-maximized="1"
     fit-margin-top="0"
     fit-margin-left="0"
     fit-margin-right="0"
     fit-margin-bottom="0"
     showguides="true"
     inkscape:guide-bbox="true" />
  <metadata
     id="metadata5">
    <rdf:RDF>
      <cc:Work
         rdf:about="">
        <dc:format>image/svg+xml</dc:format>
        <dc:type
           rdf:resource="http://purl.org/dc/dcmitype/StillImage" />
        <dc:title></dc:title>
      </cc:Work>
    </rdf:RDF>
  </metadata>
  <g
     inkscape:label="Layer 1"
     inkscape:groupmode="layer"
     id="layer1"
     transform="translate(-6.7493116,-67.565862)">
    <path
       style="fill:#00bfff;fill-opacity:1;stroke-width:1.09452987"
       d="m 330.40625,369.35352 c -8.28828,0 -14.96094,6.67266 -14.96094,14.96093 v 184.51367 c 0,8.28828 6.67266,14.96094 14.96094,14.96094 h 159.05469 c 8.28828,0 14.96093,-6.67266 14.96094,-14.96094 V 415.97461 h -19.98829 c -5.385,0 -10.21311,-1.27044 -14.48047,-3.81055 -4.26738,-2.64171 -7.6201,-6.14664 -10.05859,-10.51562 -2.33689,-4.47056 -3.5039,-9.49969 -3.50391,-15.08789 v -17.20703 z m 137.71875,0 v 17.20703 c 0,5.18178 1.52414,9.44979 4.57227,12.80273 3.04811,3.25132 6.96095,4.875 11.73632,4.875 h 19.98829 z m -58.05664,45.57812 c 13.75733,0 26.17462,3.30535 37.25195,9.91602 11.256,6.432 20.09925,15.36416 26.53125,26.79882 6.61067,11.256 9.91602,23.85307 9.91602,37.78907 v 59.76367 c 0,3.93066 -1.33953,7.236 -4.01953,9.91601 -2.50134,2.50135 -5.71777,3.75196 -9.64844,3.75196 -3.93067,0 -7.23602,-1.25061 -9.91602,-3.75196 -2.50133,-2.68001 -3.75195,-5.98535 -3.75195,-9.91601 v -9.91602 c -6.25333,7.68267 -13.84596,13.66708 -22.7793,17.95508 -8.93333,4.288 -18.58069,6.4336 -28.94336,6.4336 -12.86399,0 -24.56804,-3.21644 -35.10937,-9.64844 -10.36267,-6.432 -18.58158,-15.27722 -24.65625,-26.53321 -5.896,-11.43468 -8.84375,-24.11868 -8.84375,-38.05468 0,-13.936 3.21644,-26.53307 9.64844,-37.78907 6.432,-11.43466 15.27525,-20.36682 26.53125,-26.79882 11.43467,-6.61067 24.03173,-9.91602 37.78906,-9.91602 z m 0,24.11914 c -8.93333,0 -17.06334,2.23451 -24.38867,6.70117 -7.14667,4.288 -12.86435,10.27242 -17.15235,17.95508 -4.10933,7.68267 -6.16406,16.25919 -6.16406,25.72852 0,9.46933 2.05473,18.04389 6.16406,25.72656 4.288,7.504 10.00568,13.49036 17.15235,17.95703 7.32533,4.288 15.45534,6.43164 24.38867,6.43164 8.93333,0 16.97247,-2.14364 24.11914,-6.43164 7.32533,-4.46667 13.04301,-10.45303 17.15234,-17.95703 4.10934,-7.68267 6.16407,-16.25723 6.16407,-25.72656 0,-9.46933 -2.05473,-18.04585 -6.16407,-25.72852 -4.10933,-7.68266 -9.82701,-13.66708 -17.15234,-17.95508 -7.14667,-4.46666 -15.18581,-6.70117 -24.11914,-6.70117 z"
       transform="matrix(0.26458333,0,0,0.26458333,-76.712259,-30.158922)"
       id="rect71-8"
       inkscape:connector-curvature="0" />
    <path
       inkscape:connector-curvature="0"
       id="path75"
       style="font-style:normal;font-weight:normal;font-size:medium;line-height:1.25;font-family:sans-serif;text-align:center;letter-spacing:-25px;word-spacing:0px;text-anchor:middle;fill:#00bfff;fill-opacity:1;stroke:none;stroke-width:0.26458332"
       d="m 80.483463,79.483097 q 5.034493,0 9.00536,2.12725 4.041775,2.12725 6.310841,6.239933 2.269067,4.041775 2.269067,9.714442 v 18.436168 q 0,1.13453 -0.779992,1.91453 -0.779991,0.77999 -1.914525,0.77999 -1.205441,0 -1.985433,-0.77999 -0.779992,-0.78 -0.779992,-1.91453 V 97.564722 q 0,-6.310842 -3.545416,-9.572625 -3.474508,-3.332692 -9.147176,-3.332692 -3.474509,0 -6.310842,1.347259 -2.765425,1.347258 -4.396317,3.758141 -1.630891,2.339975 -1.630891,5.247217 v 20.988868 q 0,1.20544 -0.779992,1.98543 -0.709083,0.70909 -1.914525,0.70909 -1.205441,0 -1.985433,-0.70909 -0.779992,-0.77999 -0.779992,-1.98543 V 82.673972 q 0,-1.205442 0.779992,-1.985433 0.779992,-0.779992 1.985433,-0.779992 1.205442,0 1.914525,0.779992 0.779992,0.779991 0.779992,1.985433 v 2.410883 q 2.339975,-2.623608 5.672666,-4.112683 3.332692,-1.489075 7.23265,-1.489075 z" />
    <path
       inkscape:connector-curvature="0"
       id="path77"
       style="font-style:normal;font-weight:normal;font-size:medium;line-height:1.25;font-family:sans-serif;text-align:center;letter-spacing:-20px;word-spacing:0px;text-anchor:middle;fill:#00bfff;fill-opacity:1;stroke:none;stroke-width:0.26458332"
       d="m 121.92589,79.483097 q 5.0345,0 9.00536,2.12725 4.04178,2.12725 6.31084,6.239933 2.26907,4.041775 2.26907,9.714442 v 18.436168 q 0,1.13453 -0.77999,1.91453 -0.77999,0.77999 -1.91453,0.77999 -1.20544,0 -1.98543,-0.77999 -0.77999,-0.78 -0.77999,-1.91453 V 97.564722 q 0,-6.310842 -3.54542,-9.572625 -3.4745,-3.332692 -9.14717,-3.332692 -3.47451,0 -6.31084,1.347259 -2.76543,1.347258 -4.39632,3.758141 -1.63089,2.339975 -1.63089,5.247217 v 20.988868 q 0,1.20544 -0.77999,1.98543 -0.70909,0.70909 -1.91453,0.70909 -1.20544,0 -1.98543,-0.70909 -0.77999,-0.77999 -0.77999,-1.98543 V 82.673972 q 0,-1.205442 0.77999,-1.985433 0.77999,-0.779992 1.98543,-0.779992 1.20544,0 1.91453,0.779992 0.77999,0.779991 0.77999,1.985433 v 2.410883 q 2.33997,-2.623608 5.67267,-4.112683 3.33269,-1.489075 7.23264,-1.489075 z" />
    <path
       inkscape:connector-curvature="0"
       id="path79"
       style="font-style:normal;font-weight:normal;font-size:medium;line-height:1.25;font-family:sans-serif;text-align:center;letter-spacing:-20px;word-spacing:0px;text-anchor:middle;fill:#00bfff;fill-opacity:1;stroke:none;stroke-width:0.26458332"
       d="m 163.98216,119.04995 q -5.60176,0 -10.13989,-2.5527 -4.46723,-2.5527 -7.01993,-7.01993 -2.5527,-4.53813 -2.5527,-10.139892 0,-5.601756 2.5527,-10.139889 2.5527,-4.538134 7.01993,-7.090834 4.53813,-2.5527 10.13989,-2.5527 5.60176,0 10.06898,2.5527 4.46723,2.5527 7.01992,7.090834 2.62361,4.538133 2.62361,10.139889 0,5.601762 -2.5527,10.139892 -2.5527,4.46723 -7.09083,7.01993 -4.46722,2.5527 -10.06898,2.5527 z m 0,-4.96358 q 4.11268,0 7.37446,-1.91453 3.26179,-1.91452 5.1054,-5.24722 1.84362,-3.4036 1.84362,-7.587192 0,-4.254498 -1.84362,-7.587189 -1.84361,-3.4036 -5.1054,-5.318125 -3.26178,-1.914525 -7.37446,-1.914525 -4.04178,0 -7.37447,1.914525 -3.26178,1.914525 -5.17631,5.318125 -1.84361,3.332691 -1.84361,7.587189 0,4.183592 1.84361,7.587192 1.91453,3.3327 5.17631,5.24722 3.33269,1.91453 7.37447,1.91453 z" />
    <path
       inkscape:connector-curvature="0"
       id="path81"
       style="font-style:normal;font-weight:normal;font-size:medium;line-height:1.25;font-family:sans-serif;text-align:center;letter-spacing:-20px;word-spacing:0px;text-anchor:middle;fill:#00bfff;fill-opacity:1;stroke:none;stroke-width:0.26458332"
       d="m 206.18024,113.23547 q 1.13453,0 1.84361,0.77999 0.70909,0.77999 0.70909,1.98543 0,1.13453 -0.8509,1.91453 -0.8509,0.77999 -2.12725,0.77999 h -1.48908 q -3.75814,0 -6.73629,-1.77271 -2.97815,-1.84362 -4.67995,-4.89268 -1.63089,-3.11996 -1.63089,-7.01992 V 86.077572 h -4.60904 q -1.13454,0 -1.84362,-0.638175 -0.63817,-0.709083 -0.63817,-1.7018 0,-1.063625 0.63817,-1.7018 0.70908,-0.709083 1.84362,-0.709083 h 4.60904 V 70.335922 q 0,-1.205441 0.70908,-1.985433 0.77999,-0.779992 1.98544,-0.779992 1.20544,0 1.98543,0.779992 0.77999,0.779992 0.77999,1.985433 v 10.990792 h 8.01264 q 1.13454,0 1.77271,0.709083 0.70908,0.638175 0.70908,1.7018 0,0.992717 -0.70908,1.7018 -0.63817,0.638175 -1.77271,0.638175 h -8.01264 V 105.0101 q 0,3.61632 2.12725,5.9563 2.12725,2.26907 5.45994,2.26907 z" />
    <path
       inkscape:connector-curvature="0"
       id="path83"
       style="font-style:normal;font-weight:normal;font-size:medium;line-height:1.25;font-family:sans-serif;text-align:center;letter-spacing:-20px;word-spacing:0px;text-anchor:middle;fill:#00bfff;fill-opacity:1;stroke:none;stroke-width:0.26458332"
       d="m 229.98536,79.554005 q 5.53085,0 9.99808,2.623609 4.53813,2.5527 7.09083,7.090833 2.62361,4.538133 2.62361,10.068981 v 16.663462 q 0,1.13453 -0.77999,1.91453 -0.77999,0.77999 -1.98544,0.77999 -1.20544,0 -1.98543,-0.70909 -0.77999,-0.77999 -0.77999,-1.98543 v -4.2545 q -2.48179,3.4036 -6.31084,5.38903 -3.82905,1.91453 -8.43809,1.91453 -5.38904,0 -9.78535,-2.5527 -4.32541,-2.62361 -6.87811,-7.09083 -2.48179,-4.53814 -2.48179,-10.068992 0,-5.530848 2.5527,-10.068981 2.6236,-4.538133 7.09083,-7.090833 4.53813,-2.623609 10.06898,-2.623609 z m 0,34.532365 q 4.04178,0 7.30356,-1.91453 3.26178,-1.91452 5.1054,-5.24722 1.91453,-3.4036 1.91453,-7.587192 0,-4.183589 -1.91453,-7.516281 -1.84362,-3.4036 -5.1054,-5.318125 -3.26178,-1.985433 -7.30356,-1.985433 -4.04177,0 -7.37446,1.985433 -3.26179,1.914525 -5.17631,5.318125 -1.84362,3.332692 -1.84362,7.516281 0,4.183592 1.84362,7.587192 1.91452,3.3327 5.17631,5.24722 3.33269,1.91453 7.37446,1.91453 z" />
    <path
       inkscape:connector-curvature="0"
       id="path85"
       style="font-style:normal;font-weight:normal;font-size:medium;line-height:1.25;font-family:sans-serif;text-align:center;letter-spacing:-20px;word-spacing:0px;text-anchor:middle;fill:#00bfff;fill-opacity:1;stroke:none;stroke-width:0.26458332"
       d="m 272.18344,113.23547 q 1.13454,0 1.84362,0.77999 0.70908,0.77999 0.70908,1.98543 0,1.13453 -0.8509,1.91453 -0.8509,0.77999 -2.12725,0.77999 h -1.48907 q -3.75814,0 -6.73629,-1.77271 -2.97815,-1.84362 -4.67995,-4.89268 -1.63089,-3.11996 -1.63089,-7.01992 V 86.077572 h -4.60905 q -1.13453,0 -1.84361,-0.638175 -0.63818,-0.709083 -0.63818,-1.7018 0,-1.063625 0.63818,-1.7018 0.70908,-0.709083 1.84361,-0.709083 h 4.60905 V 70.335922 q 0,-1.205441 0.70908,-1.985433 0.77999,-0.779992 1.98543,-0.779992 1.20544,0 1.98544,0.779992 0.77999,0.779992 0.77999,1.985433 v 10.990792 h 8.01264 q 1.13453,0 1.77271,0.709083 0.70908,0.638175 0.70908,1.7018 0,0.992717 -0.70908,1.7018 -0.63818,0.638175 -1.77271,0.638175 h -8.01264 V 105.0101 q 0,3.61632 2.12725,5.9563 2.12725,2.26907 5.45994,2.26907 z" />
    <path
       inkscape:connector-curvature="0"
       id="path87"
       style="font-style:normal;font-weight:normal;font-size:medium;line-height:1.25;font-family:sans-serif;text-align:center;letter-spacing:-20px;word-spacing:0px;text-anchor:middle;fill:#00bfff;fill-opacity:1;stroke:none;stroke-width:0.26458332"
       d="m 294.85404,79.554005 q 5.24721,0 9.28899,2.481792 4.04177,2.410883 6.23993,6.736292 2.26907,4.325408 2.26907,9.856259 0,1.13453 -0.70909,1.843622 -0.70908,0.63817 -1.84361,0.63817 h -28.64697 q 0.56727,5.81448 4.53813,9.43081 3.97087,3.61632 9.92717,3.61632 2.5527,0 5.1054,-0.8509 2.62361,-0.9218 4.18359,-2.26906 0.92181,-0.70909 1.91453,-0.70909 0.77999,0 1.55998,0.56727 0.92181,0.8509 0.92181,1.91453 0,0.9218 -0.77999,1.63089 -2.33998,1.98543 -5.9563,3.33269 -3.61633,1.27635 -6.94902,1.27635 -5.67267,0 -10.13989,-2.48179 -4.46723,-2.5527 -7.01993,-7.01993 -2.48179,-4.53813 -2.48179,-10.210802 0,-5.743573 2.33998,-10.210798 2.41088,-4.538133 6.59447,-7.019925 4.2545,-2.5527 9.64354,-2.5527 z m 0,4.892675 q -5.38904,0 -8.93445,3.332692 -3.54542,3.332692 -4.32541,8.792633 h 25.95245 q -0.56727,-5.459941 -3.97087,-8.792633 -3.4036,-3.332692 -8.72172,-3.332692 z" />
  </g>
</svg>
