<?xml version="1.0" encoding="utf-8"?>
<!-- Generator: Adobe Illustrator 24.1.2, SVG Export Plug-In . SVG Version: 6.00 Build 0)  -->
<svg version="1.1" id="Ebene_1" xmlns="http://www.w3.org/2000/svg" xmlns:xlink="http://www.w3.org/1999/xlink" x="0px" y="0px"
	 viewBox="0 0 80 20" style="enable-background:new 0 0 80 20;" xml:space="preserve">
<style type="text/css">
	.st0{opacity:0.2464;fill-rule:evenodd;clip-rule:evenodd;enable-background:new    ;}
	.st1{fill-rule:evenodd;clip-rule:evenodd;}
	.st2{fill:#36FFE5;}
	.st3{fill:#FF7882;}
</style>
<desc>Created with Sketch.</desc>
<g id="Page-1">
	<g id="Artboard-Copy" transform="translate(-660.000000, -562.000000)">
		<g id="Group-4-Copy-5" transform="translate(638.000000, 541.000000)">
			<g id="Group-3" transform="translate(22.000000, 21.000000)">
				<path id="Stereoscope-Copy-6" class="st0" d="M10.3,3.2L8.4,3.5C8.3,2.3,8,1.9,7.2,1.9c-0.7,0-1.1,0.5-1.1,1.3
					c0,0.9,0.4,1.5,1.8,2.8c2.1,1.9,2.6,2.7,2.6,4.4c0,2-1.3,3.4-3.2,3.4c-2,0-3.3-1.4-3.3-3.6l1.9-0.3c0.1,1.4,0.5,2.1,1.4,2.1
					c0.7,0,1.2-0.6,1.2-1.5c0-0.5-0.2-1-0.5-1.4C7.7,8.6,7.6,8.4,6.5,7.4C4.8,5.8,4.2,4.8,4.2,3.3c0-2,1.3-3.3,3.1-3.3
					C9.1,0,10.1,1.1,10.3,3.2z M16.3,3.6v1.6h-1.5v4.9c0,1.4,0.2,1.7,1,1.7c0.2,0,0.3,0,0.5-0.1v1.7c-0.5,0.1-0.9,0.2-1.3,0.2
					c-0.7,0-1.2-0.3-1.6-0.7c-0.4-0.5-0.4-0.9-0.4-2.1V5.2h-1.1V3.6H13V0.9h1.8v2.7H16.3z M23.3,8.9h-3.6v1.8c0,0.9,0.3,1.4,0.9,1.4
					c0.3,0,0.6-0.2,0.7-0.5c0.1-0.2,0.1-0.3,0.1-1.1c0,0,0-0.2,0-0.4h1.8v0.5c0,1.1-0.1,1.5-0.5,2c-0.5,0.7-1.3,1.1-2.2,1.1
					c-0.9,0-1.7-0.4-2.2-1c-0.4-0.6-0.6-1.2-0.6-2.4V6.8c0-1.2,0.2-1.8,0.6-2.4c0.5-0.6,1.3-1,2.1-1c0.9,0,1.6,0.4,2.1,1
					c0.4,0.6,0.6,1.2,0.6,2.4V8.9z M21.5,7.4V6.5c0-1-0.3-1.4-0.9-1.4c-0.6,0-0.9,0.4-0.9,1.4v0.9H21.5z M25.3,3.6h1.8V5
					c0.6-1.1,1.2-1.5,2.2-1.6v2c-0.3-0.1-0.4-0.1-0.6-0.1c-0.5,0-0.9,0.2-1.1,0.5c-0.3,0.4-0.4,0.8-0.4,1.7v6h-1.8V3.6z M36.1,8.9
					h-3.6v1.8c0,0.9,0.3,1.4,0.9,1.4c0.3,0,0.6-0.2,0.7-0.5c0.1-0.2,0.1-0.3,0.1-1.1c0,0,0-0.2,0-0.4h1.8v0.5c0,1.1-0.1,1.5-0.5,2
					c-0.5,0.7-1.3,1.1-2.2,1.1c-0.9,0-1.7-0.4-2.2-1c-0.4-0.6-0.6-1.2-0.6-2.4V6.8c0-1.2,0.2-1.8,0.6-2.4c0.5-0.6,1.3-1,2.1-1
					c0.9,0,1.6,0.4,2.1,1C36,5,36.1,5.7,36.1,6.8V8.9z M34.3,7.4V6.5c0-1-0.3-1.4-0.9-1.4c-0.6,0-0.9,0.4-0.9,1.4v0.9H34.3z
					 M43.4,6.8v3.5c0,1.2-0.2,1.8-0.6,2.4c-0.5,0.6-1.3,1-2.1,1s-1.6-0.4-2.1-1c-0.4-0.6-0.6-1.2-0.6-2.4V6.8c0-1.2,0.2-1.8,0.6-2.4
					c0.5-0.6,1.3-1,2.1-1s1.6,0.4,2.1,1C43.2,5,43.4,5.7,43.4,6.8z M39.9,6.5v4.2c0,1,0.3,1.4,0.9,1.4c0.6,0,0.9-0.4,0.9-1.4V6.5
					c0-1-0.3-1.4-0.9-1.4C40.1,5.1,39.9,5.5,39.9,6.5z M50.4,5.9l-1.7,0.4c-0.2-0.9-0.4-1.2-1-1.2c-0.5,0-0.8,0.4-0.8,0.9
					c0,0.6,0.3,0.9,1.3,1.7c1.9,1.5,2.3,2.1,2.3,3.4c0,1.6-1.1,2.6-2.7,2.6c-1.6,0-2.6-0.9-2.9-2.9l1.7-0.4c0.1,0.6,0.2,0.8,0.3,1
					c0.2,0.4,0.5,0.6,0.9,0.6c0.5,0,0.9-0.4,0.9-0.9s-0.2-0.9-1.2-1.7C45.6,8,45.1,7.3,45.1,6c0-1.5,1.1-2.6,2.7-2.6
					C49.3,3.5,50.2,4.3,50.4,5.9z M57.4,7h-1.8c0-0.7,0-1,0-1.2c-0.1-0.5-0.3-0.8-0.8-0.8c-0.6,0-0.9,0.4-0.9,1.4v4.2
					c0,0.9,0.3,1.4,0.9,1.4c0.5,0,0.8-0.3,0.8-1c0-0.2,0-0.5,0-1.1h1.8v0.5c0,1.2-0.1,1.6-0.4,2.2c-0.5,0.7-1.3,1.1-2.1,1.1
					c-0.8,0-1.7-0.4-2.2-1c-0.4-0.6-0.6-1.2-0.6-2.3V6.8c0-1.2,0.2-1.8,0.6-2.4c0.5-0.6,1.3-1,2.2-1c1.1,0,2.1,0.7,2.4,1.7
					C57.4,5.6,57.4,5.9,57.4,7z M64.5,6.8v3.5c0,1.2-0.2,1.8-0.6,2.4c-0.5,0.6-1.3,1-2.1,1s-1.6-0.4-2.1-1c-0.4-0.6-0.6-1.2-0.6-2.4
					V6.8c0-1.2,0.2-1.8,0.6-2.4c0.5-0.6,1.3-1,2.1-1s1.6,0.4,2.1,1C64.4,5,64.5,5.7,64.5,6.8z M61,6.5v4.2c0,1,0.3,1.4,0.9,1.4
					c0.6,0,0.9-0.4,0.9-1.4V6.5c0-1-0.3-1.4-0.9-1.4C61.3,5.1,61,5.5,61,6.5z M66.5,3.6h1.8v1c0.7-0.8,1.2-1.1,1.9-1.1
					c0.6,0,1,0.3,1.3,0.8c0.3,0.5,0.3,1,0.3,2.3v4c0,1.3-0.1,1.8-0.3,2.3c-0.3,0.5-0.7,0.8-1.3,0.8c-0.7,0-1.2-0.3-1.9-1.1v4.4h-1.8
					V3.6z M68.3,5.5v6.1c0.3,0.3,0.6,0.4,0.9,0.4c0.3,0,0.5-0.1,0.6-0.4c0.1-0.2,0.1-0.4,0.1-1.1v-4c0-0.7,0-0.9-0.1-1.1
					c-0.1-0.2-0.3-0.4-0.6-0.4C68.9,5.1,68.6,5.2,68.3,5.5z M79.1,8.9h-3.6v1.8c0,0.9,0.3,1.4,0.9,1.4c0.3,0,0.6-0.2,0.7-0.5
					c0.1-0.2,0.1-0.3,0.1-1.1c0,0,0-0.2,0-0.4h1.8v0.5c0,1.1-0.1,1.5-0.5,2c-0.5,0.7-1.3,1.1-2.2,1.1c-0.9,0-1.7-0.4-2.2-1
					c-0.4-0.6-0.6-1.2-0.6-2.4V6.8c0-1.2,0.2-1.8,0.6-2.4c0.5-0.6,1.3-1,2.1-1c0.9,0,1.6,0.4,2.1,1c0.4,0.6,0.6,1.2,0.6,2.4V8.9z
					 M77.3,7.4V6.5c0-1-0.3-1.4-0.9-1.4c-0.6,0-0.9,0.4-0.9,1.4v0.9H77.3z"/>
				<path id="Stereoscope-Copy-5" class="st1" d="M6.3,3.2L4.4,3.5C4.3,2.3,4,1.9,3.2,1.9c-0.7,0-1.1,0.5-1.1,1.3
					c0,0.9,0.4,1.5,1.8,2.8C6,7.9,6.5,8.7,6.5,10.3c0,2-1.3,3.4-3.2,3.4c-2,0-3.3-1.4-3.3-3.6l1.9-0.3c0.1,1.4,0.5,2.1,1.4,2.1
					c0.7,0,1.2-0.6,1.2-1.5c0-0.5-0.2-1-0.5-1.4C3.7,8.6,3.6,8.4,2.5,7.4C0.8,5.8,0.2,4.8,0.2,3.3c0-2,1.3-3.3,3.1-3.3
					C5.1,0,6.1,1.1,6.3,3.2z M12.3,3.6v1.6h-1.5v4.9c0,1.4,0.2,1.7,1,1.7c0.2,0,0.3,0,0.5-0.1v1.7c-0.5,0.1-0.9,0.2-1.3,0.2
					c-0.7,0-1.2-0.3-1.6-0.7C9.1,12.5,9,12.1,9,10.9V5.2H7.9V3.6H9V0.9h1.8v2.7H12.3z M19.3,8.9h-3.6v1.8c0,0.9,0.3,1.4,0.9,1.4
					c0.3,0,0.6-0.2,0.7-0.5c0.1-0.2,0.1-0.3,0.1-1.1c0,0,0-0.2,0-0.4h1.8v0.5c0,1.1-0.1,1.5-0.5,2c-0.5,0.7-1.3,1.1-2.2,1.1
					c-0.9,0-1.7-0.4-2.2-1c-0.4-0.6-0.6-1.2-0.6-2.4V6.8c0-1.2,0.2-1.8,0.6-2.4c0.5-0.6,1.3-1,2.1-1c0.9,0,1.6,0.4,2.1,1
					c0.4,0.6,0.6,1.2,0.6,2.4V8.9z M17.5,7.4V6.5c0-1-0.3-1.4-0.9-1.4c-0.6,0-0.9,0.4-0.9,1.4v0.9H17.5z M21.3,3.6h1.8V5
					c0.6-1.1,1.2-1.5,2.2-1.6v2c-0.3-0.1-0.4-0.1-0.6-0.1c-0.5,0-0.9,0.2-1.1,0.5c-0.3,0.4-0.4,0.8-0.4,1.7v6h-1.8V3.6z M32.1,8.9
					h-3.6v1.8c0,0.9,0.3,1.4,0.9,1.4c0.3,0,0.6-0.2,0.7-0.5c0.1-0.2,0.1-0.3,0.1-1.1c0,0,0-0.2,0-0.4h1.8v0.5c0,1.1-0.1,1.5-0.5,2
					c-0.5,0.7-1.3,1.1-2.2,1.1c-0.9,0-1.7-0.4-2.2-1c-0.4-0.6-0.6-1.2-0.6-2.4V6.8c0-1.2,0.2-1.8,0.6-2.4c0.5-0.6,1.3-1,2.1-1
					c0.9,0,1.6,0.4,2.1,1C32,5,32.1,5.7,32.1,6.8V8.9z M30.3,7.4V6.5c0-1-0.3-1.4-0.9-1.4c-0.6,0-0.9,0.4-0.9,1.4v0.9H30.3z
					 M39.4,6.8v3.5c0,1.2-0.2,1.8-0.6,2.4c-0.5,0.6-1.3,1-2.1,1s-1.6-0.4-2.1-1c-0.4-0.6-0.6-1.2-0.6-2.4V6.8c0-1.2,0.2-1.8,0.6-2.4
					c0.5-0.6,1.3-1,2.1-1s1.6,0.4,2.1,1C39.2,5,39.4,5.7,39.4,6.8z M35.9,6.5v4.2c0,1,0.3,1.4,0.9,1.4c0.6,0,0.9-0.4,0.9-1.4V6.5
					c0-1-0.3-1.4-0.9-1.4C36.1,5.1,35.9,5.5,35.9,6.5z M46.4,5.9l-1.7,0.4c-0.2-0.9-0.4-1.2-1-1.2c-0.5,0-0.8,0.4-0.8,0.9
					c0,0.6,0.3,0.9,1.3,1.7c1.9,1.5,2.3,2.1,2.3,3.4c0,1.6-1.1,2.6-2.7,2.6c-1.6,0-2.6-0.9-2.9-2.9l1.7-0.4c0.1,0.6,0.2,0.8,0.3,1
					c0.2,0.4,0.5,0.6,0.9,0.6c0.5,0,0.9-0.4,0.9-0.9s-0.2-0.9-1.2-1.7C41.6,8,41.1,7.3,41.1,6c0-1.5,1.1-2.6,2.7-2.6
					C45.3,3.5,46.2,4.3,46.4,5.9z M53.4,7h-1.8c0-0.7,0-1,0-1.2c-0.1-0.5-0.3-0.8-0.8-0.8c-0.6,0-0.9,0.4-0.9,1.4v4.2
					c0,0.9,0.3,1.4,0.9,1.4c0.5,0,0.8-0.3,0.8-1c0-0.2,0-0.5,0-1.1h1.8v0.5c0,1.2-0.1,1.6-0.4,2.2c-0.5,0.7-1.3,1.1-2.1,1.1
					c-0.8,0-1.7-0.4-2.2-1c-0.4-0.6-0.6-1.2-0.6-2.3V6.8c0-1.2,0.2-1.8,0.6-2.4c0.5-0.6,1.3-1,2.2-1c1.1,0,2.1,0.7,2.4,1.7
					C53.4,5.6,53.4,5.9,53.4,7z M60.5,6.8v3.5c0,1.2-0.2,1.8-0.6,2.4c-0.5,0.6-1.3,1-2.1,1s-1.6-0.4-2.1-1c-0.4-0.6-0.6-1.2-0.6-2.4
					V6.8c0-1.2,0.2-1.8,0.6-2.4c0.5-0.6,1.3-1,2.1-1s1.6,0.4,2.1,1C60.4,5,60.5,5.7,60.5,6.8z M57,6.5v4.2c0,1,0.3,1.4,0.9,1.4
					c0.6,0,0.9-0.4,0.9-1.4V6.5c0-1-0.3-1.4-0.9-1.4C57.3,5.1,57,5.5,57,6.5z M62.5,3.6h1.8v1c0.7-0.8,1.2-1.1,1.9-1.1
					c0.6,0,1,0.3,1.3,0.8c0.3,0.5,0.3,1,0.3,2.3v4c0,1.3-0.1,1.8-0.3,2.3c-0.3,0.5-0.7,0.8-1.3,0.8c-0.7,0-1.2-0.3-1.9-1.1v4.4h-1.8
					V3.6z M64.3,5.5v6.1c0.3,0.3,0.6,0.4,0.9,0.4c0.3,0,0.5-0.1,0.6-0.4c0.1-0.2,0.1-0.4,0.1-1.1v-4c0-0.7,0-0.9-0.1-1.1
					c-0.1-0.2-0.3-0.4-0.6-0.4C64.9,5.1,64.6,5.2,64.3,5.5z M75.1,8.9h-3.6v1.8c0,0.9,0.3,1.4,0.9,1.4c0.3,0,0.6-0.2,0.7-0.5
					c0.1-0.2,0.1-0.3,0.1-1.1c0,0,0-0.2,0-0.4h1.8v0.5c0,1.1-0.1,1.5-0.5,2c-0.5,0.7-1.3,1.1-2.2,1.1c-0.9,0-1.7-0.4-2.2-1
					c-0.4-0.6-0.6-1.2-0.6-2.4V6.8c0-1.2,0.2-1.8,0.6-2.4c0.5-0.6,1.3-1,2.1-1c0.9,0,1.6,0.4,2.1,1c0.4,0.6,0.6,1.2,0.6,2.4V8.9z
					 M73.3,7.4V6.5c0-1-0.3-1.4-0.9-1.4c-0.6,0-0.9,0.4-0.9,1.4v0.9H73.3z"/>
				<polygon id="Line-4-Copy" class="st2" points="34,20 34,19 60,19 60,20 				"/>
				<polygon id="Line-4-Copy-2" class="st3" points="0,17 0,16 47,16 47,17 				"/>
			</g>
		</g>
	</g>
</g>
</svg>
