<?xml version="1.0" encoding="utf-8"?>
<!-- Generator: Adobe Illustrator 24.1.2, SVG Export Plug-In . SVG Version: 6.00 Build 0)  -->
<svg version="1.1" id="Calque_1" xmlns="http://www.w3.org/2000/svg" xmlns:xlink="http://www.w3.org/1999/xlink" x="0px" y="0px"
	 viewBox="0 0 800 125" style="enable-background:new 0 0 800 125;" xml:space="preserve">
<style type="text/css">
	.st0{fill:#A3CDEF;}
</style>
<path d="M249.8,60.7L207.4,0.9h8.8c0.6,0,1.3,0.1,1.8,0.5c0.4,0.4,0.7,0.8,1,1.2l37.3,53.9c0.2-0.5,0.4-0.9,0.6-1.4s0.5-0.9,0.7-1.4
	l36-51c0.3-0.4,0.7-0.9,1.1-1.3c0.4-0.4,0.9-0.6,1.5-0.6h8.5l-42.4,59.4l44.2,63.5h-8.8c-0.7,0.1-1.4-0.2-1.9-0.7
	c-0.5-0.4-0.8-0.9-1.1-1.5L255.9,65c-0.2,0.9-0.6,1.8-1.2,2.6l-38,54.1c-0.4,0.5-0.9,1-1.4,1.5c-0.5,0.5-1.1,0.7-1.8,0.7h-8.1
	L249.8,60.7z"/>
<path class="st0" d="M646.5,116.3h58.2v7.6h-67.1V0.9h8.9L646.5,116.3z"/>
<rect x="358.8" y="24.7" class="st0" width="8.9" height="99.1"/>
<rect x="315.4" y="0.9" width="95.5" height="7.6"/>
<rect x="43.5" y="24.7" width="8.9" height="99.1"/>
<rect x="0.1" y="0.9" width="95.5" height="7.6"/>
<polygon points="116.9,123.8 190.5,123.8 190.5,116.4 125.8,116.4 125.8,65.2 179.7,65.2 179.7,58 125.8,58 125.8,24.5 116.9,24.5 
	"/>
<polygon points="116.8,8.3 190.5,8.3 190.5,0.9 116.9,0.9 "/>
<path class="st0" d="M579.2,60.8c3.8-0.9,7.4-2.3,10.7-4.3c3-1.8,5.6-4,7.9-6.6c2.1-2.5,3.8-5.3,4.9-8.3c1.1-3,1.7-6.2,1.7-9.4
	c0.1-4.5-0.8-9-2.5-13.2c-1.6-3.9-4.2-7.3-7.5-9.9c-3.8-2.9-8.1-5-12.7-6.1c-5.9-1.5-12-2.2-18.2-2.1h-35.3v7h35.3
	c11,0,19,2.2,24.3,6.4s7.9,10.6,7.9,18.8c0,3.2-0.6,6.3-1.8,9.3c-1.3,3.1-3.2,5.9-5.7,8.1c-2.9,2.5-6.2,4.5-9.9,5.7
	c-4.7,1.6-9.6,2.3-14.5,2.2h-26.7V24.5h-8.9v99.3h39.9c5.9,0.1,11.8-0.7,17.6-2.3c4.7-1.4,9.1-3.6,13-6.6c3.5-2.8,6.3-6.4,8.1-10.6
	c1.9-4.5,2.9-9.3,2.8-14.1c0-8.2-2.6-14.7-7.8-19.7C596.2,65.5,588.8,62.3,579.2,60.8z M592.2,109.7c-5.5,4.6-13.6,7-24.5,7h-30.8
	V65h30.9c4.7-0.1,9.3,0.5,13.8,1.8c3.7,1,7.2,2.7,10.3,5c2.7,2.1,4.9,4.8,6.4,7.9c1.5,3.3,2.2,6.9,2.2,10.5
	C600.5,98.4,597.7,105,592.2,109.7L592.2,109.7z"/>
<polygon class="st0" points="726.5,123.8 800.1,123.8 800.1,116.4 735.4,116.4 735.4,65.2 789.2,65.2 789.2,58 735.4,58 735.4,24.5 
	726.5,24.5 "/>
<polygon class="st0" points="800.1,8.3 800.1,0.9 726.5,0.9 726.5,8.3 "/>
<path class="st0" d="M507.4,120.7c-0.4-1.3-0.8-2.6-1.2-3.9c-0.1,0.2-0.1,0.5-0.2,0.7l2.6,6.3C508.2,122.9,507.8,121.9,507.4,120.7z
	"/>
<path class="st0" d="M458.2,0.9h-8.5l31.6,78.3h-55.1l18.9-46.7l-4.3-10.8L399,123.8h6.8c0.8,0,1.5-0.2,2.1-0.7c0.6-0.4,1-1,1.2-1.7
	l14.4-35.7h60.4l14.5,35.7c0.3,0.6,0.7,1.2,1.2,1.7c0.6,0.5,1.3,0.7,2,0.7h6.9L458.2,0.9z"/>
</svg>
