<svg xmlns="http://www.w3.org/2000/svg" viewBox="0 0 165.62 115.17"><defs><style>.cls-1{fill:#231f20;}.cls-2{fill:#f2cf04;}.cls-3{fill:#ed1c24;}</style></defs><g id="Ebene_2" data-name="Ebene 2"><g id="svg2"><g id="g10"><g id="g12"><path id="path14" class="cls-1" d="M57.3,75.3A1.54,1.54,0,0,1,55.83,77c-.87,0-1.29-.61-1.29-1.52V70.29H53.32V76a1.77,1.77,0,0,0,2,1.94,2.16,2.16,0,0,0,1.91-1.06h0v.91h1.3c0-.52-.07-1-.07-1.56v-6H57.3v5"/><path id="path16" class="cls-1" d="M66.06,77.83V72.61c0-1.5-.41-2.47-2-2.47a2,2,0,0,0-2,1.12H62v-1h-1.3c.05.53.08,1,.08,1.57v6H62V73.37c0-1,.2-2.23,1.54-2.23,1,0,1.33.66,1.33,1.47v5.22h1.23"/><path id="path18" class="cls-1" d="M72.07,73.76c0,1.52,0,3.22-1.37,3.22-1.54,0-1.54-1.64-1.54-2.77,0-2,.18-3.07,1.5-3.07S72.07,72.76,72.07,73.76Zm0-2.71h0a1.93,1.93,0,0,0-1.66-.91c-2.43,0-2.49,2.17-2.49,4,0,3.32,1.22,3.79,2.43,3.79a1.86,1.86,0,0,0,1.73-1h0v.89H73.3V67.05H72.07v4"/><path id="path20" class="cls-1" d="M79.82,77.83V72.91h3.77v-1.2H79.82V68.25h4v-1.2H78.45V77.83h1.37"/><path id="path22" class="cls-1" d="M87.56,77C86.29,77,86,76.1,86,73.65c0-2.06.64-2.51,1.59-2.51s1.58.45,1.58,2.51C89.14,76.1,88.82,77,87.56,77Zm0,1c1.59,0,2.86-.47,2.86-3.8,0-2.22-.25-4-2.86-4s-2.87,1.82-2.87,4c0,3.33,1.27,3.8,2.87,3.8h0"/><path id="path24" class="cls-1" d="M93.56,70.29H92.34v7.54h1.22V73.39c0-1,.34-2,1.7-2a5.11,5.11,0,0,1,.66.07V70.14c-1.2,0-1.82.14-2.33,1.29h0V70.29"/><path id="path26" class="cls-1" d="M102,75.68c0-2.29-3.76-2.27-3.76-3.6a1,1,0,0,1,1.16-1,1.06,1.06,0,0,1,1.18,1.21H102c.11-1.49-1-2.14-2.38-2.14-2.13,0-2.61,1.27-2.61,2.06,0,2.26,3.77,2.29,3.77,3.63,0,.78-.57,1.15-1.3,1.15-1.24,0-1.26-1-1.26-1.44H96.81c0,1.73,1,2.44,2.6,2.44s2.62-.64,2.62-2.3h0"/><path id="path28" class="cls-1" d="M108.79,72.71a2.15,2.15,0,0,0-2.31-2.57c-2.61,0-2.87,1.82-2.87,4,0,3.33,1.27,3.8,2.87,3.8a2.36,2.36,0,0,0,2.37-2.65h-1.28c0,1.35-.81,1.65-1.09,1.65-1.27,0-1.58-.88-1.58-3.33,0-2.06.64-2.51,1.58-2.51.46,0,1.07.33,1,1.57h1.26"/><path id="path30" class="cls-1" d="M116.14,77.83V72.49c0-1.7-.72-2.35-2-2.35a2,2,0,0,0-2,1.12H112V67.05h-1.23V77.83H112V73.4c0-1.27.31-2.26,1.53-2.26,1.05,0,1.35.66,1.35,1.59v5.1h1.22"/><path id="path32" class="cls-1" d="M122.32,75.3A1.54,1.54,0,0,1,120.85,77c-.87,0-1.29-.61-1.29-1.52V70.29h-1.22V76a1.77,1.77,0,0,0,2,1.94,2.16,2.16,0,0,0,1.91-1.06h0v.91h1.3c0-.52-.07-1-.07-1.56v-6h-1.23v5"/><path id="path34" class="cls-1" d="M131.08,77.83V72.61c0-1.5-.41-2.47-2-2.47a2,2,0,0,0-2,1.12H127v-1h-1.29c0,.53.07,1,.07,1.57v6H127V73.37c0-1,.2-2.23,1.54-2.23,1,0,1.33.66,1.33,1.47v5.22h1.23"/><path id="path36" class="cls-1" d="M137.12,74c0,1,0,2.79-1.43,2.79-.91,0-1.46-.57-1.46-3,0-1,0-2.67,1.43-2.67C137.2,71.16,137.12,72.91,137.12,74Zm0-2.81h0a1.81,1.81,0,0,0-1.76-1.08c-.61,0-2.36.23-2.36,3.69,0,2.24.41,4,2.45,4a1.88,1.88,0,0,0,1.66-.94h0v1.57a1.21,1.21,0,0,1-1.32,1.3,1.05,1.05,0,0,1-1.15-1.09h-1.37c-.11,1.39,1,2,2.28,2,1.66,0,2.78-.41,2.78-2.09V70.29H137.1v.93"/><path id="path38" class="cls-1" d="M52.78,54.29v.93h1.16v6.61h1.23V55.22h1.52v-.93H55.17V53c0-.61.22-1.17,1.52-1.08v-.88a3.22,3.22,0,0,0-.58,0c-1.09,0-2.17.3-2.17,1.82v1.46H52.78"/><path id="path40" class="cls-1" d="M59.91,51.47h-1.4V53h1.4Zm2.63,0h-1.4V53h1.4ZM61.9,59.3A1.54,1.54,0,0,1,60.42,61c-.86,0-1.28-.61-1.28-1.52V54.29H57.91V60a1.77,1.77,0,0,0,2,1.94,2.16,2.16,0,0,0,1.91-1.06h0v.91h1.3c-.05-.52-.08-1-.08-1.56v-6H61.9v5"/><path id="path42" class="cls-1" d="M66.6,54.29H65.38v7.54H66.6V57.39c0-1,.35-2,1.71-2a4.78,4.78,0,0,1,.65.07V54.14c-1.19,0-1.82.14-2.33,1.29h0V54.29"/><path id="path44" class="cls-1" d="M74.06,56.79h1.46c1.41,0,2.47.29,2.47,2a1.82,1.82,0,0,1-2,1.84H74.06Zm0-4.54H76a1.67,1.67,0,0,1,.06,3.34h-2Zm2.09,9.58c1.23,0,3.24-.26,3.24-3a2.29,2.29,0,0,0-2.21-2.58v-.07A2.25,2.25,0,0,0,79,53.59a2.89,2.89,0,0,0-.43-1.43,2.43,2.43,0,0,0-2.4-1.11H72.69V61.83h3.46"/><path id="path46" class="cls-1" d="M82.58,54.29H81.36v7.54h1.22Zm-1.3-1.92h1.38V51.05H81.28v1.32"/><path id="path48" class="cls-1" d="M86,51.05H84.82V61.83H86V51.05"/><path id="path50" class="cls-1" d="M92.15,57.76c0,1.52,0,3.22-1.37,3.22-1.54,0-1.54-1.64-1.54-2.77,0-2,.18-3.07,1.49-3.07S92.15,56.76,92.15,57.76Zm0-2.71H92.1a1.91,1.91,0,0,0-1.65-.91c-2.44,0-2.5,2.17-2.5,4C88,61.51,89.18,62,90.39,62a1.87,1.87,0,0,0,1.73-1h0v.89h1.22V51.05H92.15v4"/><path id="path52" class="cls-1" d="M99.66,59.3A1.54,1.54,0,0,1,98.18,61c-.86,0-1.28-.61-1.28-1.52V54.29H95.67V60a1.78,1.78,0,0,0,2,1.94,2.16,2.16,0,0,0,1.91-1.06h0v.91H101c0-.52-.08-1-.08-1.56v-6H99.66v5"/><path id="path54" class="cls-1" d="M108.41,61.83V56.61c0-1.5-.4-2.47-2-2.47a2,2,0,0,0-2,1.12h-.06v-1H103c0,.53.08,1.05.08,1.57v6h1.22V57.37c0-1,.2-2.23,1.54-2.23,1,0,1.33.66,1.33,1.47v5.22h1.22"/><path id="path56" class="cls-1" d="M114.46,58c0,1,.05,2.79-1.43,2.79-.91,0-1.47-.57-1.47-3,0-1,0-2.67,1.44-2.67C114.54,55.16,114.46,56.91,114.46,58Zm0-2.81h0a1.82,1.82,0,0,0-1.76-1.08c-.61,0-2.36.23-2.36,3.69,0,2.24.4,4,2.45,4a1.9,1.9,0,0,0,1.66-.94h0v1.57a1.2,1.2,0,0,1-1.31,1.3A1,1,0,0,1,112,62.67h-1.38c-.1,1.39,1,2,2.29,2,1.66,0,2.78-.41,2.78-2.09V54.29h-1.23v.93"/><path id="path58" class="cls-1" d="M54.74,40.79H56.2c1.4,0,2.46.29,2.46,2a1.82,1.82,0,0,1-2,1.84H54.74Zm0-4.54h1.94a1.67,1.67,0,0,1,.06,3.34h-2Zm2.09,9.58c1.22,0,3.24-.26,3.24-3a2.29,2.29,0,0,0-2.21-2.58v-.07a2.25,2.25,0,0,0,1.85-2.56,2.89,2.89,0,0,0-.43-1.43,2.45,2.45,0,0,0-2.41-1.11H53.36V45.83h3.47"/><path id="path60" class="cls-1" d="M65.84,43.3A1.54,1.54,0,0,1,64.36,45c-.86,0-1.28-.61-1.28-1.52V38.29H61.85V44a1.77,1.77,0,0,0,2,1.94,2.17,2.17,0,0,0,1.92-1.06h0v.91h1.3c0-.52-.07-1-.07-1.56v-6H65.84v5"/><path id="path62" class="cls-1" d="M74.59,45.83V40.61c0-1.5-.4-2.47-2-2.47a2,2,0,0,0-2,1.12H70.5v-1H69.2c0,.53.08,1.05.08,1.57v6H70.5V41.37c0-1,.19-2.23,1.54-2.23,1,0,1.33.66,1.33,1.47v5.22h1.22"/><path id="path64" class="cls-1" d="M80.61,41.76c0,1.52,0,3.22-1.37,3.22-1.54,0-1.54-1.64-1.54-2.77,0-2,.18-3.07,1.49-3.07S80.61,40.76,80.61,41.76Zm0-2.71h0a1.93,1.93,0,0,0-1.66-.91c-2.44,0-2.5,2.17-2.5,4,0,3.32,1.23,3.79,2.44,3.79a1.87,1.87,0,0,0,1.73-1h0v.89h1.23V35.05H80.61v4"/><path id="path66" class="cls-1" d="M85,41.53c0-2.09.66-2.46,1.44-2.46s1.5.27,1.5,2.46Zm4.24.93v-.64c0-2.5-.54-3.68-2.68-3.68-2.62,0-2.87,1.82-2.87,4,0,3.33,1.27,3.8,2.87,3.8s2.61-.76,2.62-2.43H87.84A1.36,1.36,0,0,1,86.53,45c-1,0-1.53-.42-1.53-2.52h4.24"/><path id="path68" class="cls-1" d="M96,43.68c0-2.29-3.76-2.27-3.76-3.6a1,1,0,0,1,1.17-1,1.05,1.05,0,0,1,1.17,1.21h1.36c.11-1.49-1-2.14-2.39-2.14-2.12,0-2.59,1.27-2.59,2.06,0,2.26,3.76,2.29,3.76,3.63,0,.78-.57,1.15-1.3,1.15-1.24,0-1.25-1-1.25-1.44H90.77c0,1.73,1,2.44,2.6,2.44S96,45.34,96,43.68h0"/><path id="path70" class="cls-1" d="M102.83,45.83V40.76a2,2,0,0,1,.42-1.33,1.09,1.09,0,0,1,.92-.29c1,0,1.2.71,1.2,1.47v5.22h1.22V40.1a1.79,1.79,0,0,0-2.06-2,1.82,1.82,0,0,0-1.79,1,1.85,1.85,0,0,0-1.76-1,1.83,1.83,0,0,0-1.88,1.09h0v-.94h-1.3c0,.53.07,1.05.07,1.57v6h1.23V40.76a2.27,2.27,0,0,1,.28-1.11,1.44,1.44,0,0,1,1.06-.51c1,0,1.19.71,1.19,1.47v5.22h1.23"/><path id="path72" class="cls-1" d="M110,38.29h-1.22v7.54H110Zm-1.3-1.92h1.38V35.05h-1.38v1.32"/><path id="path74" class="cls-1" d="M117.52,45.83V40.61c0-1.5-.4-2.47-2-2.47a2,2,0,0,0-2,1.12h-.06v-1h-1.3c0,.53.07,1.05.07,1.57v6h1.23V41.37c0-1,.19-2.23,1.54-2.23,1,0,1.33.66,1.33,1.47v5.22h1.22"/><path id="path76" class="cls-1" d="M120.91,38.29h-1.22v7.54h1.22Zm-1.3-1.92H121V35.05h-1.37v1.32"/><path id="path78" class="cls-1" d="M127.87,43.68c0-2.29-3.77-2.27-3.77-3.6a1,1,0,0,1,1.17-1,1.06,1.06,0,0,1,1.18,1.21h1.36c.1-1.49-1-2.14-2.39-2.14-2.12,0-2.6,1.27-2.6,2.06,0,2.26,3.76,2.29,3.76,3.63A1.13,1.13,0,0,1,125.29,45C124,45,124,44,124,43.54h-1.39c0,1.73,1,2.44,2.6,2.44s2.63-.64,2.63-2.3h0"/><path id="path80" class="cls-1" d="M128.69,38.29v.93h1.23v5.36c0,.87.53,1.34,1.69,1.34.41,0,.81-.09,1.21-.12v-.94l-.55.06c-1.12,0-1.12-.61-1.12-1.09V39.22h1.64v-.93h-1.64v-2l-1.23.55v1.45h-1.23"/><path id="path82" class="cls-1" d="M135.13,41.53c0-2.09.66-2.46,1.44-2.46s1.51.27,1.51,2.46Zm4.24.93v-.64c0-2.5-.53-3.68-2.68-3.68-2.62,0-2.87,1.82-2.87,4,0,3.33,1.27,3.8,2.87,3.8s2.61-.76,2.62-2.43H138A1.36,1.36,0,0,1,136.66,45c-1,0-1.53-.42-1.53-2.52h4.24"/><path id="path84" class="cls-1" d="M142.41,38.29h-1.23v7.54h1.23V41.39c0-1,.34-2,1.7-2a4.78,4.78,0,0,1,.65.07V38.14c-1.19,0-1.82.14-2.32,1.29h0V38.29"/><path id="path86" class="cls-1" d="M147.3,38.29h-1.23v7.54h1.23ZM146,36.37h1.37V35.05H146v1.32"/><path id="path88" class="cls-1" d="M153.44,43.3A1.54,1.54,0,0,1,152,45c-.87,0-1.29-.61-1.29-1.52V38.29h-1.22V44a1.77,1.77,0,0,0,2,1.94,2.16,2.16,0,0,0,1.91-1.06h0v.91h1.31c-.05-.52-.08-1-.08-1.56v-6h-1.23v5"/><path id="path90" class="cls-1" d="M161.85,45.83V40.76a2,2,0,0,1,.42-1.33,1.11,1.11,0,0,1,.93-.29c1,0,1.19.71,1.19,1.47v5.22h1.23V40.1a1.79,1.79,0,0,0-2.06-2,1.83,1.83,0,0,0-1.8,1,2.13,2.13,0,0,0-3.64.12h0v-.94h-1.3c.05.53.08,1.05.08,1.57v6h1.22V40.76a2.27,2.27,0,0,1,.28-1.11,1.44,1.44,0,0,1,1.07-.51c1,0,1.19.71,1.19,1.47v5.22h1.22"/><path id="path92" class="cls-2" d="M39.19,88.5h4.72v26.67H39.19V88.5"/><path id="path94" class="cls-3" d="M39.19,61.74h4.72V88.5H39.19V61.74"/><path id="path96" class="cls-1" d="M39.19,35.17h4.72V61.83H39.19V35.17"/><path id="path98" class="cls-1" d="M24.45,39.68A4.46,4.46,0,0,0,23,36.62l-.28.06a4,4,0,0,1,1.14,2.47c0,2.2-2.33,4.12-5,4.15,0,.23,0,.43,0,.6a7,7,0,0,1-.06.93C21.81,44.77,24.45,42.32,24.45,39.68ZM20.3,57.92a16.34,16.34,0,0,1-1.91-.13c-.22,0-.43,0-.43.33a1.19,1.19,0,0,0,.46.69,1.84,1.84,0,0,1,1.39-.37,6.8,6.8,0,0,1,.93.09,5.82,5.82,0,0,0-.06.76c0,.18,0,.38,0,.6a2.09,2.09,0,0,1-.38,1.47.7.7,0,0,0,.3.07c.49,0,.62-.25.62-1.53,0-.39,0-.75,0-.84a3.37,3.37,0,0,1,1.39,2.14,1,1,0,0,0,.49-.71c0-.46-.77-1.15-1.59-2a2.89,2.89,0,0,1,.67-.11,1.82,1.82,0,0,1,1.46.46,1.44,1.44,0,0,0,.22-.74c0-.39-.22-.38-.38-.38a14.5,14.5,0,0,0-2.14.21,17.66,17.66,0,0,1-2-3.21,1.12,1.12,0,0,0-.36-.06c-.34,0-.43.23-.51.56a11.22,11.22,0,0,1,1.77,2.68Zm-7.69-2.68c-.09-.33-.17-.56-.51-.56a1.07,1.07,0,0,0-.36.06,17.61,17.61,0,0,1-2,3.21,14.23,14.23,0,0,0-2.13-.21c-.17,0-.39,0-.39.38a1.44,1.44,0,0,0,.22.74,1.84,1.84,0,0,1,1.47-.46,3,3,0,0,1,.67.11c-.82.83-1.6,1.52-1.6,2a1,1,0,0,0,.5.71,3.37,3.37,0,0,1,1.39-2.14c0,.09,0,.45,0,.84,0,1.28.12,1.53.62,1.53a.7.7,0,0,0,.3-.07,2,2,0,0,1-.38-1.47c0-.22,0-.42,0-.6a4.26,4.26,0,0,0-.07-.76,7,7,0,0,1,.93-.09,1.83,1.83,0,0,1,1.39.37,1.15,1.15,0,0,0,.46-.69c0-.31-.2-.33-.42-.33a16.34,16.34,0,0,1-1.91.13,10.92,10.92,0,0,1,1.77-2.68ZM7.31,39.15a4,4,0,0,1,1.15-2.47l-.28-.06a4.46,4.46,0,0,0-1.5,3.06c0,2.66,2.68,5.13,5.72,5.15a9,9,0,0,1-.05-.93,5.68,5.68,0,0,1,0-.59C9.69,43.31,7.31,41.37,7.31,39.15Zm8.18-2A2.77,2.77,0,0,0,15.82,36c0-1.16-1-1.7-2.24-1.7-.66,0-1,.21-1,.42a2.73,2.73,0,0,0,.3.83,2.77,2.77,0,0,1,.91-.23C14.68,35.31,15.34,36.29,15.49,37.1Zm.63-1.47c.75.14,1.26-.81.55-1,.1.31-.38.53-.38.53s-.18-.42.05-.66c-.43-.21-.54,0-.55.32A1.75,1.75,0,0,1,16.12,35.63Zm2.42,6.55h.36c2.1,0,4.19-1.36,4.19-3.11a3.76,3.76,0,0,0-.93-2.3,5.25,5.25,0,0,1-.8.08c-.95,0-1.47-.51-1.51-1a.84.84,0,0,1,.94-.8c.89,0,2.5.83,4.13.83a3.25,3.25,0,0,1-.75.37A6,6,0,0,1,26,39.49l2.49,4a11.37,11.37,0,0,0,2.64,3c-1.61,0-2.69,0-4.05-2.12l-1.28-2a4.81,4.81,0,0,1-.35.77L28,47.16a11.21,11.21,0,0,0,2.64,3c-1.62,0-2.69,0-4-2.12l-2.19-3.5c-.16.17-.34.34-.52.51L27,50a11.56,11.56,0,0,0,2.64,3c-1.61,0-2.68,0-4.05-2.12l-3-4.82c-.2.13-.4.25-.61.36l3.68,5.88a11.18,11.18,0,0,0,2.64,3c-1.62,0-2.69,0-4.05-2.12l-3.79-6.05c-.22.08-.45.17-.68.24L24,54.2a11.37,11.37,0,0,0,2.64,3c-1.62,0-2.69,0-4.05-2.12l-4.56-7.29-.14,0a4,4,0,0,0-.21,1.13c0,2.29,1.51,4.32,3.31,5.88a1.4,1.4,0,0,1-.5.07,4.6,4.6,0,0,1-.78,0,18,18,0,0,0,1.77,2.81,14.06,14.06,0,0,1,2-.19c.59,0,.66.35.66.66a1.57,1.57,0,0,1-.54,1.2c-.11-.28-.33-.64-1.42-.64h-.11c.32.36,1.31,1.16,1.31,1.81a1.18,1.18,0,0,1-1.09,1.07,1.19,1.19,0,0,0,0-.36,2.82,2.82,0,0,0-.85-1.57,2.42,2.42,0,0,1,0,.27c0,1.24-.11,1.81-.9,1.81a1.24,1.24,0,0,1-.74-.28,1.69,1.69,0,0,0,.53-1.54v-.6a3,3,0,0,1,0-.52,3.61,3.61,0,0,0-.62,0s-1.12-.09-1.39.49c-.3-.27-.74-.67-.74-1.1s.13-.61.71-.61c.22,0,.91.13,1.48.13a14,14,0,0,0-1.44-2.08,1.68,1.68,0,0,1-.54.84,5.91,5.91,0,0,0-1.05-2.82,13.47,13.47,0,0,0-.2,2.46c0,3.08.74,5.36,2.31,5.79a1.32,1.32,0,0,1-1.08.68c-.58,0-.89-.65-1.21-1.27-.17.46-.63,1.57-1.09,1.57s-.92-1.11-1.09-1.57c-.32.62-.63,1.27-1.21,1.27a1.35,1.35,0,0,1-1.09-.68c1.58-.43,2.32-2.71,2.32-5.79a14.46,14.46,0,0,0-.2-2.46,5.91,5.91,0,0,0-1.05,2.82,1.64,1.64,0,0,1-.55-.84,14.59,14.59,0,0,0-1.43,2.08c.57,0,1.26-.13,1.48-.13.57,0,.71.32.71.61s-.44.83-.75,1.1c-.27-.58-1.39-.49-1.39-.49a3.5,3.5,0,0,0-.61,0,3,3,0,0,1,0,.52v.6a1.7,1.7,0,0,0,.54,1.54,1.27,1.27,0,0,1-.74.28c-.79,0-.9-.57-.9-1.81a2.42,2.42,0,0,1,0-.27,2.84,2.84,0,0,0-.86,1.57,1.23,1.23,0,0,0,0,.36,1.19,1.19,0,0,1-1.1-1.07c0-.65,1-1.45,1.32-1.81H8.92c-1.09,0-1.31.36-1.42.64A1.57,1.57,0,0,1,7,58.12c0-.31.07-.66.66-.66a14.06,14.06,0,0,1,2,.19,18.74,18.74,0,0,0,1.77-2.81,4.6,4.6,0,0,1-.78,0,1.4,1.4,0,0,1-.5-.07c1.8-1.56,3.3-3.59,3.3-5.88a3.67,3.67,0,0,0-.21-1.13l-.13,0L8.52,55.08c-1.37,2.16-2.44,2.12-4,2.12a11.56,11.56,0,0,0,2.64-3l4.28-6.84c-.24-.07-.46-.16-.69-.24L6.92,53.17c-1.36,2.16-2.44,2.12-4,2.12a11.18,11.18,0,0,0,2.64-3l3.68-5.88c-.21-.11-.42-.23-.62-.36l-3,4.82C4.2,53,3.13,53,1.52,53a11.56,11.56,0,0,0,2.64-3l3.08-4.94q-.27-.25-.51-.51L4.54,48c-1.37,2.16-2.44,2.12-4,2.12a11.21,11.21,0,0,0,2.64-3l2.54-4.07a7.59,7.59,0,0,1-.35-.77l-1.27,2c-1.37,2.16-2.44,2.12-4,2.12a11.56,11.56,0,0,0,2.64-3l2.49-4A5.87,5.87,0,0,1,7,36.25a3.25,3.25,0,0,1-.75-.37c1.63,0,3.24-.83,4.13-.83a.84.84,0,0,1,.94.8c0,.5-.56,1-1.51,1a5.13,5.13,0,0,1-.8-.08A3.77,3.77,0,0,0,8,39.08c0,1.75,2.09,3.11,4.2,3.11h.35a9.54,9.54,0,0,1,2-3.25c-.85-.31-1.8-1.12-1.8-1.49a14.25,14.25,0,0,1,1.91.5.17.17,0,0,0,.1,0,.75.75,0,0,0,.37-.38,10.93,10.93,0,0,1-1.9-.42c-.53-.19-.8-.54-.8-.68a8.15,8.15,0,0,0,1.77.32,5,5,0,0,0,.77-.06c-.25-.58-.71-1.08-1.23-1.08a3,3,0,0,0-1,.32,2.88,2.88,0,0,1-.5-1.25c0-.35.35-.76,1.32-.76a4.69,4.69,0,0,1,.77.07,2.23,2.23,0,0,1,.52.15.44.44,0,0,1,0-.13c0-.13.12-.28.58-.28.8,0,1.63.27,2.64.27a1.64,1.64,0,0,0,.59-.07,2.5,2.5,0,0,1-.61.73,2.59,2.59,0,0,1,.57,1.61c0,1.37-.9,2.5-.9,3.89a4.78,4.78,0,0,0,.82,2h0"/><path id="path100" class="cls-1" d="M56.58,3.57c0-.8-.33-1.23-1.2-1.23-.27,0-1.24.05-1.24,1.46V6.08c0,1.47.43,1.84,1.24,1.84a2.17,2.17,0,0,0,1.21-.29v-2H55.35V4.86h2.1V8.14a4.16,4.16,0,0,1-2.07.5c-1.42,0-2.11-.73-2.11-2.6V3.83a2,2,0,0,1,2.11-2.21c1.46,0,2.15.54,2.09,1.95h-.89"/><path id="path102" class="cls-1" d="M59.05,8.5V1.76h3.47v.75H59.91V4.68h2.43v.74H59.91V7.76h2.67V8.5H59.05"/><path id="path104" class="cls-1" d="M63.65,8.5V1.76H67v.75H64.51V4.68h2.35v.74H64.51V8.5h-.86"/><path id="path106" class="cls-1" d="M67.83,6V3.83a2.12,2.12,0,1,1,4.24,0V6c0,1.87-.69,2.6-2.12,2.6S67.83,7.91,67.83,6ZM69.58,1H68.7V0h.88Zm1.61,5.11V3.8c0-1.41-1-1.46-1.24-1.46s-1.24.05-1.24,1.46V6.08c0,1.47.43,1.84,1.24,1.84S71.19,7.55,71.19,6.08Zm0-5.11h-.88V0h.88V1"/><path id="path108" class="cls-1" d="M74.4,5.4V8.5h-.85V1.76h2.32a1.51,1.51,0,0,1,1.61,1.68A1.44,1.44,0,0,1,76.25,5V5c.78.12,1.06.39,1.1,1.74a10.36,10.36,0,0,0,.24,1.76h-.9a7.61,7.61,0,0,1-.26-2.24.89.89,0,0,0-1-.86Zm0-.74h1.29c.62,0,.92-.53.92-1.12a.92.92,0,0,0-.91-1H74.4V4.66"/><path id="path110" class="cls-1" d="M78.77,1.76h2.07a1.82,1.82,0,0,1,1.82,1A6.91,6.91,0,0,1,83,4.92a5.57,5.57,0,0,1-.41,2.71c-.36.58-1,.87-2.22.87H78.77Zm.86,6h.81c1.2,0,1.64-.45,1.64-2V4.38c0-1.37-.42-1.87-1.32-1.87H79.63V7.76"/><path id="path112" class="cls-1" d="M84.46,8.5V1.76h3.47v.75H85.32V4.68h2.42v.74H85.32V7.76H88V8.5H84.46"/><path id="path114" class="cls-1" d="M90,5.4V8.5H89.1V1.76h2.33A1.52,1.52,0,0,1,93,3.44,1.45,1.45,0,0,1,91.81,5V5c.78.12,1.06.39,1.1,1.74a10.36,10.36,0,0,0,.24,1.76h-.9A7.61,7.61,0,0,1,92,6.26a.89.89,0,0,0-1-.86Zm0-.74h1.29c.62,0,.92-.53.92-1.12a.92.92,0,0,0-.91-1H90V4.66"/><path id="path116" class="cls-1" d="M98.09,1.76v.75H96.32v6h-.86v-6H93.69V1.76h4.4"/><path id="path118" class="cls-1" d="M103.39,8.5h-1l-2-6.74h.93l1.54,5.93h0l1.58-5.93h.87l-2,6.74"/><path id="path120" class="cls-1" d="M106.21,6V3.83a2.12,2.12,0,1,1,4.24,0V6c0,1.87-.69,2.6-2.12,2.6S106.21,7.91,106.21,6Zm3.36,0V3.8c0-1.41-1-1.46-1.24-1.46s-1.24.05-1.24,1.46V6.08c0,1.47.43,1.84,1.24,1.84s1.24-.37,1.24-1.84"/><path id="path122" class="cls-1" d="M112.76,8.5H112V1.76h1.39L115,7.42h0l1.72-5.66h1.42V8.5h-.86v-6h0l-1.89,6h-.81l-1.85-6h0v6"/></g></g></g></g></svg>