<svg xmlns="http://www.w3.org/2000/svg" viewBox="0 0 96.11 25.99"><defs><style>.cls-1{fill:#1d1d1b;}</style></defs><g id="Ebene_2" data-name="Ebene 2"><g id="Ebene_1-2" data-name="Ebene 1"><path class="cls-1" d="M0,26V0H9a21.7,21.7,0,0,1,4.63.37,8.73,8.73,0,0,1,3.81,1.86,10.6,10.6,0,0,1,3.07,4.44,17.49,17.49,0,0,1,1,6.18,18.25,18.25,0,0,1-.69,5.25A12.77,12.77,0,0,1,19,21.88a9.3,9.3,0,0,1-2.37,2.36,9.53,9.53,0,0,1-3.1,1.3A17.41,17.41,0,0,1,9.38,26Zm3.44-3.07H9a13.45,13.45,0,0,0,4-.48,5.81,5.81,0,0,0,2.33-1.35,8.16,8.16,0,0,0,1.91-3.29,16.16,16.16,0,0,0,.68-5A12.12,12.12,0,0,0,16.6,6.53,6.71,6.71,0,0,0,13.35,3.6,13.32,13.32,0,0,0,8.9,3.07H3.44Z"/><path class="cls-1" d="M23.36,26l10-26h3.71L47.68,26H43.76l-3-7.87H29.87L27,26Zm7.5-10.68h8.81L37,8.12c-.83-2.19-1.44-4-1.85-5.39a31.94,31.94,0,0,1-1.4,5Z"/><path class="cls-1" d="M50.48,26V0H62a15.31,15.31,0,0,1,5.29.7,5.79,5.79,0,0,1,2.88,2.47,7.31,7.31,0,0,1,1.09,3.92,6.54,6.54,0,0,1-1.79,4.66,9,9,0,0,1-5.53,2.41A9,9,0,0,1,66,15.46a18.06,18.06,0,0,1,2.85,3.45L73.38,26H69.06l-3.44-5.41c-1-1.56-1.83-2.75-2.48-3.58a7.63,7.63,0,0,0-1.75-1.74,5.16,5.16,0,0,0-1.57-.69,10.67,10.67,0,0,0-1.91-.12h-4V26Zm3.44-14.52h7.39A11,11,0,0,0,65,11a3.89,3.89,0,0,0,2-1.56,4.21,4.21,0,0,0,.69-2.33,3.87,3.87,0,0,0-1.34-3,6.26,6.26,0,0,0-4.22-1.19H53.92Z"/><path class="cls-1" d="M76.71,26V0H95.5V3.07H80.15v8H94.53v3H80.15v8.85h16V26Z"/></g></g></svg>