<svg xmlns="http://www.w3.org/2000/svg" viewBox="0 0 133.77 22.27"><defs><style>.cls-1{fill:#1d1d1b;}</style></defs><g id="Ebene_2" data-name="Ebene 2"><g id="Ebene_1-2" data-name="Ebene 1"><path class="cls-1" d="M0,17.4V0H9.84V1.91H2.27v5.5H8.88V9.14H2.27v6.35h8.17V17.4Z"/><path class="cls-1" d="M21,17.4a5.46,5.46,0,0,1-.34-1.73,7.59,7.59,0,0,1-2.33,1.72,5.38,5.38,0,0,1-1.87.36,3.79,3.79,0,0,1-2.55-.92,3.11,3.11,0,0,1-1.08-2.51,3.15,3.15,0,0,1,1.51-2.8,15.52,15.52,0,0,1,5.2-1.71l1.12-.21V8.18a1.72,1.72,0,0,0-.77-1.62A3.56,3.56,0,0,0,18,6.1a3.22,3.22,0,0,0-2,.57A1.69,1.69,0,0,0,15.22,8v.17H13V8a2.79,2.79,0,0,1,.71-1.72A4.32,4.32,0,0,1,15.53,5a7,7,0,0,1,2.54-.45,7.07,7.07,0,0,1,2.49.42A3.47,3.47,0,0,1,22.2,6.1a5.06,5.06,0,0,1,.51,2.71v4.87c0,.53,0,1.09,0,1.68a8.09,8.09,0,0,0,.4,2Zm-.34-6.31-.63.14a12.48,12.48,0,0,0-4.06,1.47,2.08,2.08,0,0,0-.88,1.67,1.78,1.78,0,0,0,.26.92,1.71,1.71,0,0,0,.78.66,2.45,2.45,0,0,0,1,.24,3.19,3.19,0,0,0,1.71-.52,3.66,3.66,0,0,0,1.32-1.36,4,4,0,0,0,.47-2Z"/><path class="cls-1" d="M25.14,14.1h2.09v0a1.67,1.67,0,0,0,.62,1.35,3.18,3.18,0,0,0,2.09.53A3.31,3.31,0,0,0,32,15.38a1.87,1.87,0,0,0,.8-1.48c0-.77-.53-1.31-1.58-1.63l-1.06-.33-.71-.22-1.43-.44c-1.66-.61-2.48-1.62-2.48-3a3.48,3.48,0,0,1,1.2-2.61,5.05,5.05,0,0,1,3.55-1.12,4.65,4.65,0,0,1,3.32,1,2.88,2.88,0,0,1,1,2.12v0h-2.1v0a1.1,1.1,0,0,0-.63-1,3.51,3.51,0,0,0-1.69-.35,3.07,3.07,0,0,0-1.92.52,1.56,1.56,0,0,0-.67,1.28,1.19,1.19,0,0,0,.43.95,4.25,4.25,0,0,0,1.47.66l1,.28.74.21a17.21,17.21,0,0,1,1.9.62,4.08,4.08,0,0,1,.76.45,2.69,2.69,0,0,1,.77,1,3.22,3.22,0,0,1,.25,1.33,3.94,3.94,0,0,1-1.27,3,5.19,5.19,0,0,1-3.72,1.21,6.14,6.14,0,0,1-2.56-.46A4,4,0,0,1,25.75,16a3,3,0,0,1-.61-1.89Z"/><path class="cls-1" d="M41.71,16.87l-5.39-12h2.31l4.2,9.3,3.91-9.3h2.1L43.57,17.42a14.33,14.33,0,0,1-1.79,3.35,4.09,4.09,0,0,1-1.52,1.16,5.47,5.47,0,0,1-2.14.34H36.56V20.53h1.17a4.67,4.67,0,0,0,1.52-.23,2.42,2.42,0,0,0,1.08-.73,9.81,9.81,0,0,0,1.15-2.23Z"/><path class="cls-1" d="M61.51,17.4V0h2.27V15.49h9.13V17.4Z"/><path class="cls-1" d="M74.9,2.1V0H77V2.1Zm0,2.78H77V17.4H74.9Z"/><path class="cls-1" d="M82.39,17.4H80.3V4.88h2.09V7a6.19,6.19,0,0,1,1.28-1.51A4.81,4.81,0,0,1,85,4.78a4.47,4.47,0,0,1,1.51-.25A4.58,4.58,0,0,1,88.6,5a3.37,3.37,0,0,1,1.45,1.42,6.47,6.47,0,0,1,.52,3v8H88.48V10.33a8.82,8.82,0,0,0-.22-2.39,1.93,1.93,0,0,0-.88-1.09A2.61,2.61,0,0,0,86,6.44,3.13,3.13,0,0,0,84.23,7a3.87,3.87,0,0,0-1.34,1.51,6,6,0,0,0-.5,2.75Z"/><path class="cls-1" d="M101.43,17.4a5.71,5.71,0,0,1-.33-1.73,7.73,7.73,0,0,1-2.34,1.72,5.28,5.28,0,0,1-1.86.36,3.83,3.83,0,0,1-2.56-.92,3.1,3.1,0,0,1-1.07-2.51,3.16,3.16,0,0,1,1.5-2.8A15.6,15.6,0,0,1,100,9.81l1.12-.21V8.18a1.74,1.74,0,0,0-.77-1.62,3.58,3.58,0,0,0-1.87-.46,3.24,3.24,0,0,0-2,.57A1.68,1.68,0,0,0,95.7,8v.17H93.44V8a2.77,2.77,0,0,1,.7-1.72A4.29,4.29,0,0,1,96,5a6.94,6.94,0,0,1,2.53-.45,7.09,7.09,0,0,1,2.5.42,3.43,3.43,0,0,1,1.63,1.16,5.06,5.06,0,0,1,.51,2.71v4.87c0,.53,0,1.09,0,1.68a8.16,8.16,0,0,0,.41,2Zm-.33-6.31-.63.14a12.38,12.38,0,0,0-4.06,1.47,2.1,2.1,0,0,0-.89,1.67,1.72,1.72,0,0,0,1,1.58,2.41,2.41,0,0,0,1,.24,3.24,3.24,0,0,0,1.72-.52,3.66,3.66,0,0,0,1.32-1.36,4.09,4.09,0,0,0,.47-2Z"/><path class="cls-1" d="M110.1,17.4,105,4.88h2.24l4,9.82,4.09-9.82h2.08L112.19,17.4Z"/><path class="cls-1" d="M119.36,2.1V0h2.08V2.1Zm0,2.78h2.08V17.4h-2.08Z"/><path class="cls-1" d="M124,14.1h2.09v0a1.67,1.67,0,0,0,.62,1.35,3.2,3.2,0,0,0,2.09.53,3.29,3.29,0,0,0,2.09-.63,1.87,1.87,0,0,0,.8-1.48c0-.77-.52-1.31-1.58-1.63L129,11.94l-.71-.22-1.44-.44c-1.66-.61-2.48-1.62-2.48-3a3.48,3.48,0,0,1,1.2-2.61,5.05,5.05,0,0,1,3.55-1.12,4.7,4.7,0,0,1,3.33,1,2.9,2.9,0,0,1,1,2.12v0h-2.1v0a1.1,1.1,0,0,0-.63-1,3.51,3.51,0,0,0-1.69-.35,3.07,3.07,0,0,0-1.92.52,1.59,1.59,0,0,0-.67,1.28,1.2,1.2,0,0,0,.44.95,4.18,4.18,0,0,0,1.46.66l1,.28.74.21a16.45,16.45,0,0,1,1.9.62,4.08,4.08,0,0,1,.76.45,2.69,2.69,0,0,1,.77,1,3.22,3.22,0,0,1,.25,1.33,3.94,3.94,0,0,1-1.27,3,5.17,5.17,0,0,1-3.72,1.21,6.17,6.17,0,0,1-2.56-.46A4.07,4.07,0,0,1,124.59,16a3.1,3.1,0,0,1-.61-1.89Z"/></g></g></svg>