<svg xmlns="http://www.w3.org/2000/svg" xmlns:xlink="http://www.w3.org/1999/xlink" viewBox="0 0 222.9 69.53"><defs><style>.cls-1{fill:none;}.cls-2{clip-path:url(#clip-path);}.cls-3{fill:#f28a00;}</style><clipPath id="clip-path" transform="translate(0 0)"><rect class="cls-1" width="224.8" height="69.4"/></clipPath></defs><g id="Ebene_2" data-name="Ebene 2"><g id="Ebene_1-2" data-name="Ebene 1"><g class="cls-2"><path class="cls-3" d="M0,13.8a2.36,2.36,0,0,1,1.2-2L24.2.3A3.36,3.36,0,0,1,26.7.2L75.1,18.4a2.11,2.11,0,0,1,1.3,1.9V55.9a2.36,2.36,0,0,1-1.2,2l-23,11.5S51,70,51,68.6V49s0-1.4-1.2-.8l-23,11.5s-1.2.6-1.2-.8V39.4s0-1.4-1.2-.8L1.4,50.1s-1.2.6-1.2-.8V13.8Z" transform="translate(0 0)"/></g><path d="M91,4h0l.4-.1a.1.1,0,0,1,.1.1l.1,4.7.6,4.8,1.2-5a.1.1,0,0,1,.1-.1h.6a.1.1,0,0,1,.1.1l1.2,5L96,8.7,96.2,4a.1.1,0,0,1,.1-.1h.3a.1.1,0,0,1,.1.1l-.2,4.8-.7,5.4c0,.1,0,.1-.1.1h-.6a.1.1,0,0,1-.1-.1L93.7,9.1l-1.3,5.1c0,.1,0,.1-.1.1h-.6a.1.1,0,0,1-.1-.1l-.7-5.4Z" transform="translate(0 0)"/><path d="M98.6,13.8h0l2.3-.1V4.4H98.8a.1.1,0,0,1-.1-.1V4a.1.1,0,0,1,.1-.1h4.6a.1.1,0,0,1,.1.1v.3a.1.1,0,0,1-.1.1h-2.1v9.3h2.2a.1.1,0,0,1,.1.1v.3a.1.1,0,0,1-.1.1h-5a.1.1,0,0,1-.1-.1v-.3Z" transform="translate(0 0)"/><path d="M111.1,8.4a2.25,2.25,0,0,1-1.6,2.1l1.5,3.6c0,.1,0,.1-.1.1h-.3c-.1,0-.1,0-.1-.1L109,10.5h-2.2V14a.1.1,0,0,1-.1.1h-.3a.1.1,0,0,1-.1-.1V4a.1.1,0,0,1,.1-.1h2.5a2.22,2.22,0,0,1,2.2,2.2Zm-.5-2.3a1.69,1.69,0,0,0-1.7-1.7h-2v5.7h2a1.69,1.69,0,0,0,1.7-1.7Z" transform="translate(0 0)"/><path d="M118.6,4.4h0l-2.4.1v9.8a.1.1,0,0,1-.1.1h-.3a.1.1,0,0,1-.1-.1V4.4h-2.4a.1.1,0,0,1-.1-.1V4a.1.1,0,0,1,.1-.1h5.2a.1.1,0,0,1,.1.1Z" transform="translate(0 0)"/><path d="M125.3,12.2a2.22,2.22,0,0,1-2.2,2.2h-.7a2.22,2.22,0,0,1-2.2-2.2V12a.1.1,0,0,1,.1-.1h.4a.1.1,0,0,1,.1.1v.2a1.75,1.75,0,0,0,1.7,1.7h.7a1.75,1.75,0,0,0,1.7-1.7v-.5c0-2.8-4.4-2.2-4.4-5.2V6a2.22,2.22,0,0,1,2.2-2.2h.3A2.22,2.22,0,0,1,125.2,6v.2a.1.1,0,0,1-.1.1h-.3a.1.1,0,0,1-.1-.1V6A1.69,1.69,0,0,0,123,4.3h-.3A1.75,1.75,0,0,0,121,6v.5c0,1.4,1.5,2,2.5,2.6a2.9,2.9,0,0,1,1.9,2.6v.5Z" transform="translate(0 0)"/><path d="M132.6,12.2a2.22,2.22,0,0,1-2.2,2.2h-.5a2.22,2.22,0,0,1-2.2-2.2V6a2.22,2.22,0,0,1,2.2-2.2h.5A2.22,2.22,0,0,1,132.6,6v.2a.1.1,0,0,1-.1.1h-.3a.1.1,0,0,1-.1-.1V6a1.69,1.69,0,0,0-1.7-1.7h-.5A1.75,1.75,0,0,0,128.2,6v6.2a1.75,1.75,0,0,0,1.7,1.7h.5a1.75,1.75,0,0,0,1.7-1.7v-.3a.1.1,0,0,1,.1-.1h.3a.1.1,0,0,1,.1.1Z" transform="translate(0 0)"/><path d="M139.8,14.2h0l-.4.1a.1.1,0,0,1-.1-.1V9.4h-3.8v4.8a.1.1,0,0,1-.1.1h-.3a.1.1,0,0,1-.1-.1V4a.1.1,0,0,1,.1-.1h.3a.1.1,0,0,1,.1.1V8.9h3.8V4a.1.1,0,0,1,.1-.1h.3a.1.1,0,0,1,.1.1V14.2Z" transform="translate(0 0)"/><path d="M147.2,14.2h0l-.4.1a.1.1,0,0,1-.1-.1V10.7h-3.8v3.5a.1.1,0,0,1-.1.1h-.3a.1.1,0,0,1-.1-.1V10.4L144.1,4a.1.1,0,0,1,.1-.1h1.2a.1.1,0,0,1,.1.1l1.7,6.4v3.8Zm-2.1-9.8h-.6L143,10.1h3.6Z" transform="translate(0 0)"/><path d="M154.9,4.4h0l-4.2.1V8.9h3.9a.1.1,0,0,1,.1.1v.3a.1.1,0,0,1-.1.1h-3.9v4.9a.1.1,0,0,1-.1.1h-.3a.1.1,0,0,1-.1-.1V4a.1.1,0,0,1,.1-.1h4.6a.1.1,0,0,1,.1.1v.4Z" transform="translate(0 0)"/><path d="M162.2,4.4h0l-2.5.1v9.8a.1.1,0,0,1-.1.1h-.3a.1.1,0,0,1-.1-.1V4.4h-2.4a.1.1,0,0,1-.1-.1V4a.1.1,0,0,1,.1-.1H162a.1.1,0,0,1,.1.1v.4Z" transform="translate(0 0)"/><path d="M96,31.3a.47.47,0,0,1-.5-.5V26.4H92.9v4.4a.47.47,0,0,1-.5.5h-.7a.47.47,0,0,1-.5-.5V20.3a.47.47,0,0,1,.5-.5h.7a.47.47,0,0,1,.5.5v4.4h2.6V20.3a.47.47,0,0,1,.5-.5h.7a.47.47,0,0,1,.5.5V30.7a.47.47,0,0,1-.5.5H96Z" transform="translate(0 0)"/><path d="M99.6,22.5a2.8,2.8,0,0,1,2.8-2.8h.5a2.8,2.8,0,0,1,2.8,2.8v6.2a2.8,2.8,0,0,1-2.8,2.8h-.5a2.8,2.8,0,0,1-2.8-2.8Zm1.7,6.2a1.11,1.11,0,0,0,1.1,1.1h.5a1.11,1.11,0,0,0,1.1-1.1V22.5a1.11,1.11,0,0,0-1.1-1.1h-.5a1.11,1.11,0,0,0-1.1,1.1Z" transform="translate(0 0)"/><path d="M110.9,31.4a2.8,2.8,0,0,1-2.8-2.8V22.4a2.8,2.8,0,0,1,2.8-2.8h.5a2.8,2.8,0,0,1,2.8,2.8v.3a.47.47,0,0,1-.5.5H113a.47.47,0,0,1-.5-.5v-.3a1.13,1.13,0,0,0-1.2-1.1h-.5a1.11,1.11,0,0,0-1.1,1.1v6.2a1.11,1.11,0,0,0,1.1,1.1h.5a1.2,1.2,0,0,0,1.2-1.1v-.5a.47.47,0,0,1,.5-.5h.7a.47.47,0,0,1,.5.5v.5a2.8,2.8,0,0,1-2.8,2.8Z" transform="translate(0 0)"/><path d="M121.3,31.3a.47.47,0,0,1-.5-.5V26.4h-2.6v4.4a.47.47,0,0,1-.5.5H117a.47.47,0,0,1-.5-.5V20.3a.47.47,0,0,1,.5-.5h.7a.47.47,0,0,1,.5.5v4.4h2.6V20.3a.47.47,0,0,1,.5-.5h.7a.47.47,0,0,1,.5.5V30.7a.47.47,0,0,1-.5.5h-.7Z" transform="translate(0 0)"/><path d="M127.6,31.4a2.8,2.8,0,0,1-2.8-2.8v-.4a.47.47,0,0,1,.5-.5h.7a.47.47,0,0,1,.5.5v.4a1.11,1.11,0,0,0,1.1,1.1h.6a1.11,1.11,0,0,0,1.1-1.1v-.5c0-2.2-4.4-1.8-4.4-5.2v-.5a2.8,2.8,0,0,1,2.8-2.8h.4a2.8,2.8,0,0,1,2.8,2.8v.3a.47.47,0,0,1-.5.5h-.7a.47.47,0,0,1-.5-.5v-.3a1.11,1.11,0,0,0-1.1-1.1h-.4a1.11,1.11,0,0,0-1.1,1.1v.5c0,2,4.4,1.7,4.4,5.2v.5a2.8,2.8,0,0,1-2.8,2.8Z" transform="translate(0 0)"/><path d="M136.2,31.4a2.8,2.8,0,0,1-2.8-2.8V22.4a2.8,2.8,0,0,1,2.8-2.8h.5a2.8,2.8,0,0,1,2.8,2.8v.3a.47.47,0,0,1-.5.5h-.7a.47.47,0,0,1-.5-.5v-.3a1.13,1.13,0,0,0-1.2-1.1h-.5a1.11,1.11,0,0,0-1.1,1.1v6.2a1.11,1.11,0,0,0,1.1,1.1h.5a1.2,1.2,0,0,0,1.2-1.1v-.5a.47.47,0,0,1,.5-.5h.7a.47.47,0,0,1,.5.5v.5a2.8,2.8,0,0,1-2.8,2.8Z" transform="translate(0 0)"/><path d="M146.6,31.3a.47.47,0,0,1-.5-.5V26.4h-2.6v4.4a.47.47,0,0,1-.5.5h-.7a.47.47,0,0,1-.5-.5V20.3a.47.47,0,0,1,.5-.5h.7a.47.47,0,0,1,.5.5v4.4h2.6V20.3a.47.47,0,0,1,.5-.5h.7a.47.47,0,0,1,.5.5V30.7a.47.47,0,0,1-.5.5h-.7Z" transform="translate(0 0)"/><path d="M153,31.4a2.8,2.8,0,0,1-2.8-2.8V20.3a.47.47,0,0,1,.5-.5h.7a.47.47,0,0,1,.5.5v8.3a1.11,1.11,0,0,0,1.1,1.1h.4a1.11,1.11,0,0,0,1.1-1.1V20.3a.47.47,0,0,1,.5-.5h.7a.47.47,0,0,1,.5.5v8.3a2.8,2.8,0,0,1-2.8,2.8Z" transform="translate(0 0)"/><path d="M159.4,31.3a.47.47,0,0,1-.5-.5V20.3a.47.47,0,0,1,.5-.5h.7a.47.47,0,0,1,.5.5v9.3H164a.47.47,0,0,1,.5.5v.7a.47.47,0,0,1-.5.5Z" transform="translate(0 0)"/><path d="M167.3,31.3a.47.47,0,0,1-.5-.5V20.3a.47.47,0,0,1,.5-.5h4.9a.47.47,0,0,1,.5.5V21a.47.47,0,0,1-.5.5h-3.7v3.2h3.4a.47.47,0,0,1,.5.5v.7a.47.47,0,0,1-.5.5h-3.4v3.2h3.8a.47.47,0,0,1,.5.5v.7a.47.47,0,0,1-.5.5Z" transform="translate(0 0)"/><path d="M187.3,31.3a.47.47,0,0,1-.5-.5V23.6c0-.4.1-1.7.1-1.9h-.4a18.14,18.14,0,0,1-.3,1.9l-.8,2.8a.55.55,0,0,1-.5.3h-.8a.55.55,0,0,1-.5-.3l-.8-2.8a18.14,18.14,0,0,1-.3-1.9h-.4c0,.2.1,1.5.1,1.9v7.2a.47.47,0,0,1-.5.5H181a.47.47,0,0,1-.5-.5V20.3a.47.47,0,0,1,.5-.5h1.8c.2,0,.4.1.4.3l.9,3.8a7.38,7.38,0,0,1,.2,1.2,6,6,0,0,1,.2-1.2l.9-3.8c0-.2.2-.3.4-.3h1.8a.47.47,0,0,1,.5.5V30.7a.47.47,0,0,1-.5.5h-.3Z" transform="translate(0 0)"/><path d="M196.8,30.8a.47.47,0,0,1-.5.5h-.7a.47.47,0,0,1-.5-.5V27.7h-3.3v3.1a.47.47,0,0,1-.5.5h-.7a.47.47,0,0,1-.5-.5V26.7l1.7-6.5a.66.66,0,0,1,.5-.4h2.1a.51.51,0,0,1,.5.4l1.7,6.5v4.1Zm-3-9.3h-.4l-1.2,4.6H195Z" transform="translate(0 0)"/><path d="M199.5,31.3a.47.47,0,0,1-.5-.5v-.7a.47.47,0,0,1,.5-.5h1.8V21.5h-1.6a.47.47,0,0,1-.5-.5v-.7a.47.47,0,0,1,.5-.5h4.9a.47.47,0,0,1,.5.5V21a.47.47,0,0,1-.5.5H203v8.1h1.8a.47.47,0,0,1,.5.5v.7a.47.47,0,0,1-.5.5Z" transform="translate(0 0)"/><path d="M212.2,31.3a.55.55,0,0,1-.5-.3l-2.2-7.3c-.1-.4-.4-1.7-.4-1.9h-.4c0,.2.1,1.5.1,1.9v7.2a.47.47,0,0,1-.5.5h-.7a.47.47,0,0,1-.5-.5V20.3a.47.47,0,0,1,.5-.5h1.8a.55.55,0,0,1,.5.3l2.2,7.3c.1.4.4,1.8.4,1.9h.4c0-.2-.1-1.5-.1-1.9V20.2a.47.47,0,0,1,.5-.5h.7a.47.47,0,0,1,.5.5V30.6a.47.47,0,0,1-.5.5h-1.8Z" transform="translate(0 0)"/><path d="M217.2,31.3a.47.47,0,0,1-.5-.5v-.6a.75.75,0,0,1,.1-.5l3.8-8.2h-3.3a.47.47,0,0,1-.5-.5v-.7a.47.47,0,0,1,.5-.5H222a.47.47,0,0,1,.5.5V21a1.34,1.34,0,0,1-.1.5l-3.8,8.1h3.8a.47.47,0,0,1,.5.5v.7a.47.47,0,0,1-.5.5Z" transform="translate(0 0)"/><path d="M96.2,46.2A2.22,2.22,0,0,1,94,48.4h-.3a2.22,2.22,0,0,1-2.2-2.2V38a.1.1,0,0,1,.1-.1h.3a.1.1,0,0,1,.1.1v8.2a1.75,1.75,0,0,0,1.7,1.7H94a1.75,1.75,0,0,0,1.7-1.7V38a.1.1,0,0,1,.1-.1h.3a.1.1,0,0,1,.1.1Z" transform="translate(0 0)"/><path d="M103.5,48.2h0l-.7.1c-.1,0-.1,0-.1-.1l-3.5-9.5v9.5a.1.1,0,0,1-.1.1h-.3a.1.1,0,0,1-.1-.1V38a.1.1,0,0,1,.1-.1h.6a.1.1,0,0,1,.1.1l3.5,9.5V38a.1.1,0,0,1,.1-.1h.3a.1.1,0,0,1,.1.1Z" transform="translate(0 0)"/><path d="M105.9,47.8h0l2.3-.1V38.4h-2.1a.1.1,0,0,1-.1-.1V38a.1.1,0,0,1,.1-.1h4.6a.1.1,0,0,1,.1.1v.3a.1.1,0,0,1-.1.1h-2.1v9.3h2.2a.1.1,0,0,1,.1.1v.3a.1.1,0,0,1-.1.1h-5a.1.1,0,0,1-.1-.1v-.3Z" transform="translate(0 0)"/><path d="M116.1,48.2h0l-.7.1a.1.1,0,0,1-.1-.1L113.1,38c0-.1,0-.1.1-.1h.3a.1.1,0,0,1,.1.1l2.1,9.6,2.1-9.6a.1.1,0,0,1,.1-.1h.3c.1,0,.1,0,.1.1Z" transform="translate(0 0)"/><path d="M125.6,48.2h0l-4.7.1a.1.1,0,0,1-.1-.1V38a.1.1,0,0,1,.1-.1h4.6a.1.1,0,0,1,.1.1v.3a.1.1,0,0,1-.1.1h-4.2v4.4h3.9a.1.1,0,0,1,.1.1v.3a.1.1,0,0,1-.1.1h-3.9v4.4h4.2a.1.1,0,0,1,.1.1Z" transform="translate(0 0)"/><path d="M132.8,42.4a2.25,2.25,0,0,1-1.6,2.1l1.5,3.6c0,.1,0,.1-.1.1h-.3c-.1,0-.1,0-.1-.1l-1.5-3.6h-2.2V48a.1.1,0,0,1-.1.1h-.3a.1.1,0,0,1-.1-.1V38a.1.1,0,0,1,.1-.1h2.5a2.22,2.22,0,0,1,2.2,2.2v2.3Zm-.5-2.3a1.69,1.69,0,0,0-1.7-1.7h-2v5.7h2a1.69,1.69,0,0,0,1.7-1.7Z" transform="translate(0 0)"/><path d="M140.1,46.2a2.22,2.22,0,0,1-2.2,2.2h-.7a2.22,2.22,0,0,1-2.2-2.2V46a.1.1,0,0,1,.1-.1h.4a.1.1,0,0,1,.1.1v.2a1.75,1.75,0,0,0,1.7,1.7h.7a1.75,1.75,0,0,0,1.7-1.7v-.5c0-2.8-4.4-2.2-4.4-5.2V40a2.22,2.22,0,0,1,2.2-2.2h.3A2.22,2.22,0,0,1,140,40v.2a.1.1,0,0,1-.1.1h-.3a.1.1,0,0,1-.1-.1V40a1.69,1.69,0,0,0-1.7-1.7h-.3a1.75,1.75,0,0,0-1.7,1.7v.5c0,1.4,1.5,2,2.5,2.6a2.9,2.9,0,0,1,1.9,2.6v.5Z" transform="translate(0 0)"/><path d="M142.3,47.8h0l2.3-.1V38.4h-2.1a.1.1,0,0,1-.1-.1V38a.1.1,0,0,1,.1-.1h4.6a.1.1,0,0,1,.1.1v.3a.1.1,0,0,1-.1.1H145v9.3h2.2a.1.1,0,0,1,.1.1v.3a.1.1,0,0,1-.1.1h-5a.1.1,0,0,1-.1-.1v-.3Z" transform="translate(0 0)"/><path d="M154.9,38.3c0,.1-.1.1,0,0l-2.5.1v9.8a.1.1,0,0,1-.1.1H152a.1.1,0,0,1-.1-.1V38.4h-2.4a.1.1,0,0,1-.1-.1V38a.1.1,0,0,1,.1-.1h5.2a.1.1,0,0,1,.1.1v.3Z" transform="translate(0 0)"/><path d="M159.7,43.7v4.5a.1.1,0,0,1-.1.1h-.3a.1.1,0,0,1-.1-.1V43.7L157,38c0-.1,0-.1.1-.1h.4l2,5,2-5h.4c.1,0,.1,0,.1.1Z" transform="translate(0 0)"/><path d="M173.6,46.2a2.22,2.22,0,0,1-2.2,2.2h-.5a2.22,2.22,0,0,1-2.2-2.2V40a2.22,2.22,0,0,1,2.2-2.2h.5a2.22,2.22,0,0,1,2.2,2.2Zm-.5-6.2a1.69,1.69,0,0,0-1.7-1.7h-.5a1.69,1.69,0,0,0-1.7,1.7v6.2a1.69,1.69,0,0,0,1.7,1.7h.5a1.69,1.69,0,0,0,1.7-1.7Z" transform="translate(0 0)"/><path d="M181.1,38.3h0l-4.2.1v4.4h3.9a.1.1,0,0,1,.1.1v.3a.1.1,0,0,1-.1.1h-3.9v4.9a.1.1,0,0,1-.1.1h-.3a.1.1,0,0,1-.1-.1V38a.1.1,0,0,1,.1-.1h4.6a.1.1,0,0,1,.1.1v.3Z" transform="translate(0 0)"/><path d="M96.2,65.2h0l-.4.1a.1.1,0,0,1-.1-.1V61.7H91.9v3.5a.1.1,0,0,1-.1.1h-.3a.1.1,0,0,1-.1-.1V61.4L93.1,55a.1.1,0,0,1,.1-.1h1.2a.1.1,0,0,1,.1.1l1.7,6.4v3.8Zm-2.1-9.8h-.6L92,61.1h3.6Z" transform="translate(0 0)"/><path d="M103.9,59.4a2.22,2.22,0,0,1-2.2,2.2h-2v3.5a.1.1,0,0,1-.1.1h-.3a.1.1,0,0,1-.1-.1V55a.1.1,0,0,1,.1-.1h2.5a2.22,2.22,0,0,1,2.2,2.2v2.3Zm-.5-2.3a1.69,1.69,0,0,0-1.7-1.7h-2v5.7h2a1.69,1.69,0,0,0,1.7-1.7Z" transform="translate(0 0)"/><path d="M111.2,59.4a2.22,2.22,0,0,1-2.2,2.2h-2v3.5a.1.1,0,0,1-.1.1h-.3a.1.1,0,0,1-.1-.1V55a.1.1,0,0,1,.1-.1h2.5a2.22,2.22,0,0,1,2.2,2.2v2.3Zm-.5-2.3a1.69,1.69,0,0,0-1.7-1.7h-2v5.7h2a1.69,1.69,0,0,0,1.7-1.7Z" transform="translate(0 0)"/><path d="M118.4,65.2h0l-4.3.1a.1.1,0,0,1-.1-.1V55a.1.1,0,0,1,.1-.1h.3a.1.1,0,0,1,.1.1v9.8h3.9a.1.1,0,0,1,.1.1v.3Z" transform="translate(0 0)"/><path d="M120.4,64.8h0l2.3-.1V55.4h-2.1a.1.1,0,0,1-.1-.1V55a.1.1,0,0,1,.1-.1h4.6a.1.1,0,0,1,.1.1v.3a.1.1,0,0,1-.1.1h-2.1v9.3h2.2a.1.1,0,0,1,.1.1v.3a.1.1,0,0,1-.1.1h-5a.1.1,0,0,1-.1-.1v-.3Z" transform="translate(0 0)"/><path d="M132.8,65.2h0l-4.7.1a.1.1,0,0,1-.1-.1V55a.1.1,0,0,1,.1-.1h4.6a.1.1,0,0,1,.1.1v.3a.1.1,0,0,1-.1.1h-4.2v4.4h3.9a.1.1,0,0,1,.1.1v.3a.1.1,0,0,1-.1.1h-3.9v4.4h4.2a.1.1,0,0,1,.1.1v.4Z" transform="translate(0 0)"/><path d="M140.1,63a2.22,2.22,0,0,1-2.2,2.2h-2.5a.1.1,0,0,1-.1-.1V55a.1.1,0,0,1,.1-.1h2.5a2.22,2.22,0,0,1,2.2,2.2Zm-.5-5.9a1.75,1.75,0,0,0-1.7-1.7h-2v9.3h2a1.69,1.69,0,0,0,1.7-1.7Z" transform="translate(0 0)"/><path d="M152.4,63.2a2.22,2.22,0,0,1-2.2,2.2h-.7a2.22,2.22,0,0,1-2.2-2.2V63a.1.1,0,0,1,.1-.1h.4a.1.1,0,0,1,.1.1v.2a1.75,1.75,0,0,0,1.7,1.7h.7a1.75,1.75,0,0,0,1.7-1.7v-.5c0-2.8-4.4-2.2-4.4-5.2V57a2.22,2.22,0,0,1,2.2-2.2h.3a2.22,2.22,0,0,1,2.2,2.2v.2a.1.1,0,0,1-.1.1h-.3a.1.1,0,0,1-.1-.1V57a1.69,1.69,0,0,0-1.7-1.7h-.3a1.75,1.75,0,0,0-1.7,1.7v.5c0,1.4,1.5,2,2.5,2.6a2.9,2.9,0,0,1,1.9,2.6v.5Z" transform="translate(0 0)"/><path d="M159.7,63.2a2.22,2.22,0,0,1-2.2,2.2H157a2.22,2.22,0,0,1-2.2-2.2V57a2.22,2.22,0,0,1,2.2-2.2h.5a2.22,2.22,0,0,1,2.2,2.2v.2a.1.1,0,0,1-.1.1h-.3a.1.1,0,0,1-.1-.1V57a1.69,1.69,0,0,0-1.7-1.7H157a1.75,1.75,0,0,0-1.7,1.7v6.2a1.75,1.75,0,0,0,1.7,1.7h.5a1.75,1.75,0,0,0,1.7-1.7v-.3a.1.1,0,0,1,.1-.1h.3a.1.1,0,0,1,.1.1v.3Z" transform="translate(0 0)"/><path d="M162.2,64.8h0l2.3-.1V55.4h-2.1a.1.1,0,0,1-.1-.1V55a.1.1,0,0,1,.1-.1H167a.1.1,0,0,1,.1.1v.3a.1.1,0,0,1-.1.1h-2v9.3h2.2a.1.1,0,0,1,.1.1v.3a.1.1,0,0,1-.1.1h-5a.1.1,0,0,1-.1-.1v-.3Z" transform="translate(0 0)"/><path d="M174.6,65.2h0l-4.7.1a.1.1,0,0,1-.1-.1V55a.1.1,0,0,1,.1-.1h4.6a.1.1,0,0,1,.1.1v.3a.1.1,0,0,1-.1.1h-4.2v4.4h3.9a.1.1,0,0,1,.1.1v.3a.1.1,0,0,1-.1.1h-3.9v4.4h4.2a.1.1,0,0,1,.1.1v.4Z" transform="translate(0 0)"/><path d="M181.7,65.2h0l-.7.1c-.1,0-.1,0-.1-.1l-3.5-9.5v9.5a.1.1,0,0,1-.1.1H177a.1.1,0,0,1-.1-.1V55a.1.1,0,0,1,.1-.1h.6a.1.1,0,0,1,.1.1l3.5,9.5V55a.1.1,0,0,1,.1-.1h.3a.1.1,0,0,1,.1.1V65.2Z" transform="translate(0 0)"/><path d="M189.2,63.2a2.22,2.22,0,0,1-2.2,2.2h-.5a2.22,2.22,0,0,1-2.2-2.2V57a2.22,2.22,0,0,1,2.2-2.2h.5a2.22,2.22,0,0,1,2.2,2.2v.2a.1.1,0,0,1-.1.1h-.3a.1.1,0,0,1-.1-.1V57a1.69,1.69,0,0,0-1.7-1.7h-.5a1.75,1.75,0,0,0-1.7,1.7v6.2a1.75,1.75,0,0,0,1.7,1.7h.5a1.75,1.75,0,0,0,1.7-1.7v-.3a.1.1,0,0,1,.1-.1h.3a.1.1,0,0,1,.1.1Z" transform="translate(0 0)"/><path d="M196.5,65.2h0l-4.7.1a.1.1,0,0,1-.1-.1V55a.1.1,0,0,1,.1-.1h4.6a.1.1,0,0,1,.1.1v.3a.1.1,0,0,1-.1.1h-4.2v4.4h3.9a.1.1,0,0,1,.1.1v.3a.1.1,0,0,1-.1.1h-3.9v4.4h4.2a.1.1,0,0,1,.1.1v.4Z" transform="translate(0 0)"/><path d="M203.7,63.2a2.22,2.22,0,0,1-2.2,2.2h-.7a2.22,2.22,0,0,1-2.2-2.2V63a.1.1,0,0,1,.1-.1h.4a.1.1,0,0,1,.1.1v.2a1.75,1.75,0,0,0,1.7,1.7h.7a1.75,1.75,0,0,0,1.7-1.7v-.5c0-2.8-4.4-2.2-4.4-5.2V57a2.22,2.22,0,0,1,2.2-2.2h.3a2.22,2.22,0,0,1,2.2,2.2v.2a.1.1,0,0,1-.1.1h-.3a.1.1,0,0,1-.1-.1V57a1.69,1.69,0,0,0-1.7-1.7H201a1.75,1.75,0,0,0-1.7,1.7v.5c0,1.4,1.5,2,2.5,2.6a2.9,2.9,0,0,1,1.9,2.6Z" transform="translate(0 0)"/></g></g></svg>