<svg xmlns="http://www.w3.org/2000/svg" xmlns:xlink="http://www.w3.org/1999/xlink" viewBox="0 0 353.08 98.2"><defs><style>.cls-1{fill:#1d1d1b;}.cls-2{fill:url(#Unbenannter_Verlauf);}.cls-3{fill:url(#Unbenannter_Verlauf_2);}.cls-4{fill:url(#Unbenannter_Verlauf_3);}</style><linearGradient id="Unbenannter_Verlauf" x1="1.72" y1="37.4" x2="65.43" y2="37.4" gradientTransform="matrix(1, 0, 0, -1, 0, 99.7)" gradientUnits="userSpaceOnUse"><stop offset="0" stop-color="#f39200"/><stop offset="1" stop-color="#f39200" stop-opacity="0.5"/></linearGradient><linearGradient id="Unbenannter_Verlauf_2" x1="26.45" y1="18.71" x2="65.78" y2="58.04" gradientTransform="matrix(1, 0, 0, -1, 0, 99.7)" gradientUnits="userSpaceOnUse"><stop offset="0" stop-color="#1d71b8" stop-opacity="0.5"/><stop offset="1" stop-color="#1d71b8"/></linearGradient><linearGradient id="Unbenannter_Verlauf_3" x1="-7.73" y1="24.48" x2="44.65" y2="76.86" gradientTransform="matrix(1, 0, 0, -1, 0, 99.7)" gradientUnits="userSpaceOnUse"><stop offset="0" stop-color="#be1622" stop-opacity="0.5"/><stop offset="1" stop-color="#be1622"/></linearGradient></defs><g id="Ebene_2" data-name="Ebene 2"><g id="Ebene_1-2" data-name="Ebene 1"><path class="cls-1" d="M110.26,49.65c.14,0,.27,0,.27-.27v-.94c0-7,0-8.29-.09-9.73s-.45-2.25-1.93-2.56A8.82,8.82,0,0,0,107,36c-.18,0-.36-.09-.36-.27s.23-.36.72-.36c2,0,4.87.14,5.09.14s3.06-.14,4.41-.14c.5,0,.72.09.72.36s-.18.27-.36.27a7,7,0,0,0-1.12.14c-1.22.22-1.58,1-1.67,2.56s-.09,2.71-.09,9.73v7.92c0,4.32,0,7.88.23,9.77.13,1.3.4,2.29,1.75,2.48.63.08,1.62.18,2,.18s.36.13.36.27-.23.35-.72.35c-2.48,0-5.31-.13-5.54-.13s-3.06.13-4.41.13c-.5,0-.72-.08-.72-.35s.09-.27.36-.27a7.68,7.68,0,0,0,1.35-.18c.9-.19,1.13-1.18,1.31-2.48.22-1.89.22-5.45.22-9.77V51.63a.26.26,0,0,0-.25-.27H91.19a.24.24,0,0,0-.27.21v4.79c0,4.32,0,7.88.23,9.77.13,1.3.4,2.29,1.75,2.48.63.08,1.62.18,2,.18s.36.13.36.27-.23.35-.72.35c-2.48,0-5.31-.13-5.54-.13s-3.06.13-4.41.13c-.49,0-.72-.08-.72-.35s.09-.27.36-.27a7.68,7.68,0,0,0,1.35-.18c.9-.19,1.13-1.18,1.31-2.48.22-1.89.22-5.45.22-9.77V48.44c0-7,0-8.29-.09-9.73s-.45-2.25-1.93-2.56A8.71,8.71,0,0,0,83.56,36c-.18,0-.36-.09-.36-.27s.22-.36.72-.36c2,0,4.86.14,5.08.14s3.06-.14,4.41-.14c.5,0,.73.09.73.36S94,36,93.77,36a7,7,0,0,0-1.12.14c-1.22.22-1.58,1-1.67,2.56s-.09,2.71-.09,9.73v.94a.24.24,0,0,0,.21.27h19.16Z"/><path class="cls-1" d="M130.63,54.74c0,6.48,1.44,9.27,3.38,11.12a8.8,8.8,0,0,0,6.8,2.48,9.44,9.44,0,0,0,7.06-3.25c2.07-2.56,2.61-6.39,2.61-11V48.44c0-7,0-8.29-.09-9.73s-.45-2.25-1.93-2.56a8.71,8.71,0,0,0-1.53-.14c-.18,0-.36-.09-.36-.27s.22-.36.72-.36c2,0,4.5.14,4.77.14s2.43-.14,3.78-.14c.5,0,.72.09.72.36s-.18.27-.36.27a7,7,0,0,0-1.12.14c-1.22.27-1.58,1-1.67,2.56s-.09,2.71-.09,9.73v4.77c0,4.87-.54,10.27-4.14,13.46A13.16,13.16,0,0,1,139.91,70c-1.53,0-6.08-.18-9.28-3.2-2.2-2.12-3.91-5.27-3.91-11.84V48.44c0-7,0-8.29-.09-9.73s-.45-2.25-1.94-2.56a8.37,8.37,0,0,0-1.5-.14c-.18,0-.36-.09-.36-.27s.22-.36.72-.36c2,0,4.77.14,5.18.14s3.1-.14,4.45-.14c.5,0,.72.09.72.36s-.18.27-.36.27a7,7,0,0,0-1.12.14c-1.22.18-1.58,1-1.67,2.56s-.09,2.71-.09,9.73Z"/><path class="cls-1" d="M197.42,63.61c.18,1.62.5,4.14,2.43,4.77a9.07,9.07,0,0,0,2.79.41c.23,0,.5,0,.5.27s-.14.35-.68.35c-1,0-6.12-.13-7.78-.26-1-.09-1.26-.23-1.26-.46s.09-.22.31-.31.27-.81.18-1.62l-2.16-23.5L180.59,66.94c-1,2-1.08,2.39-1.49,2.39s-.54-.45-1.39-2.08c-1.17-2.2-5.05-10-5.27-10.44-.41-.81-5.58-11.93-6.08-13.14l-1.84,21.2c-.05.72-.09,1.35-.09,2.11,0,1.13.54,1.49,1.21,1.63a6.76,6.76,0,0,0,1.62.18c.27,0,.45.09.45.22,0,.32-.22.4-.67.4-1.67,0-4-.13-4.32-.13s-2.57.13-3.79.13c-.45,0-.76,0-.76-.35s.22-.27.45-.27a5.58,5.58,0,0,0,1.35-.14c1.49-.27,1.58-1.89,1.8-3.74L165,35.65c.05-.49.23-.9.5-.9s.45.18.67.68L180,63.74l13.23-28.27c.18-.4.36-.72.68-.72s.45.36.54,1.22Z"/><path class="cls-1" d="M216.6,56.14a.47.47,0,0,0-.45.36l-2.7,8a9.35,9.35,0,0,0-.63,3,1.44,1.44,0,0,0,1.57,1.31h.46c.45,0,.58.09.58.27s-.4.35-.81.35c-1.08,0-2.88-.13-3.38-.13s-3,.13-5.08.13c-.59,0-.86-.08-.86-.35s.23-.27.63-.27a7.89,7.89,0,0,0,1.08-.1c2.07-.27,3-2,3.78-4.23l10.22-28c.54-1.49.72-1.76,1-1.76s.45.23,1,1.62c.68,1.71,7.75,20.31,10.49,27.15,1.62,4,2.93,4.72,3.87,5a5.84,5.84,0,0,0,1.76.28c.27,0,.49,0,.49.27s-.4.35-.9.35c-.67,0-4,0-7.06-.08-.86,0-1.35,0-1.35-.32s.13-.27.31-.32.54-.49.27-1.21l-4.21-11.08a.38.38,0,0,0-.4-.27Zm9.09-1.63c.23,0,.23-.13.18-.31L221.6,42.05c-.23-.68-.45-.68-.68,0l-4,12.15c-.09.23,0,.31.14.31Z"/><path class="cls-1" d="M246.19,56.14c0-16.26.09-10.4,0-19.14,0-1.75.13-2.25.49-2.25s1.13,1,1.58,1.44c.67.77,7.38,8,14.31,15.44,4.46,4.78,9.37,10.27,10.81,11.75l-.5-22.86c0-2.93-.36-3.92-1.76-4.28a9.6,9.6,0,0,0-1.93-.23c-.5,0-.63-.13-.63-.31s.36-.32.9-.32c2,0,4.19.14,4.68.14s2-.14,3.83-.14c.49,0,.81,0,.81.32s-.18.27-.5.31l-1.17.18c-1.26.27-1.57,1-1.57,4.05l-.09,26.29c0,3-.09,3.2-.41,3.2s-.9-.5-3.29-2.88c-.49-.45-7-7.07-11.74-12.2-5.23-5.63-10.31-11.3-11.75-12.92l.58,21.56c.09,3.69.54,4.86,1.76,5.22a9.5,9.5,0,0,0,2.25.28c.22,0,.36.09.36.27s-.27.35-.81.35c-2.57,0-4.37-.13-4.77-.13s-2.3.13-4.33.13c-.45,0-.72,0-.72-.35s.14-.27.36-.27a6.43,6.43,0,0,0,1.85-.28c1.13-.31,1.35-1.62,1.35-5.71Z"/><path class="cls-1" d="M288.32,48.44c0-7,0-8.29-.09-9.73s-.54-2.29-1.53-2.52a6.63,6.63,0,0,0-1.4-.18c-.18,0-.36-.09-.36-.27s.23-.36.72-.36c1.49,0,4.33.14,4.55.14s3.06-.14,4.41-.14c.5,0,.72.09.72.36s-.18.27-.36.27a7,7,0,0,0-1.12.14c-1.22.22-1.58,1-1.67,2.56s-.09,2.71-.09,9.73v7.92c0,4.32,0,7.88.23,9.77.13,1.3.4,2.29,1.75,2.48.63.08,1.58.18,1.85.18s.54.13.54.27-.18.35-.68.35c-2.47,0-5.35-.13-5.58-.13s-3.06.13-4.41.13c-.5,0-.72-.08-.72-.35s.09-.27.49-.27a6.56,6.56,0,0,0,1.17-.14c.9-.18,1.17-1.22,1.35-2.52.23-1.89.23-5.45.23-9.77Z"/><path class="cls-1" d="M303.12,68.83c-.63-.32-.67-.49-.67-1.71,0-2.25.18-4,.22-4.77,0-.5.14-.72.36-.72s.32.13.32.49a8.49,8.49,0,0,0,.13,1.67c.68,3.33,3.65,4.59,6.66,4.59,4.33,0,6.44-3.11,6.44-6,0-3.1-1.3-4.9-5.18-8.1l-2-1.67c-4.77-3.91-5.85-6.7-5.85-9.76,0-4.82,3.6-8.11,9.31-8.11a17.36,17.36,0,0,1,4.19.45,7.73,7.73,0,0,0,1.58.23c.36,0,.45.09.45.31s-.18,1.71-.18,4.78c0,.72-.09,1-.32,1s-.31-.22-.36-.58a7.68,7.68,0,0,0-.58-2.26c-.27-.49-1.49-2.38-5.63-2.38-3.11,0-5.54,1.93-5.54,5.22,0,2.57,1.17,4.19,5.49,7.56l1.26,1c5.32,4.19,6.58,7,6.58,10.58A9.31,9.31,0,0,1,316,68.12a11.78,11.78,0,0,1-6.8,1.9A13.69,13.69,0,0,1,303.12,68.83Z"/><path class="cls-1" d="M341,56.36c0,4.32,0,7.88.22,9.77.14,1.3.41,2.29,1.76,2.48.63.08,1.62.18,2,.18s.36.13.36.27-.22.35-.72.35c-2.47,0-5.31-.13-5.53-.13s-3.06.13-4.42.13c-.49,0-.72-.08-.72-.35s.09-.27.36-.27a7.68,7.68,0,0,0,1.35-.18c.91-.19,1.13-1.18,1.31-2.48.23-1.89.23-5.45.23-9.77v-19c-2.21,0-4.46,0-6.67.09-2.79,0-3.87.36-4.59,1.44a8.45,8.45,0,0,0-.72,1.32c-.14.37-.27.45-.45.45s-.23-.13-.23-.4c0-.45.9-4.32,1-4.68s.27-.86.45-.86a8.57,8.57,0,0,0,2,.54c1.31.14,3,.23,3.56.23H348.4a18.07,18.07,0,0,0,3.2-.23c.67-.09,1.08-.22,1.26-.22s.22.27.22.54c0,1.35-.13,4.45-.13,5s-.14.59-.32.59-.31-.14-.36-.77v-.5c-.14-1.35-1.22-2.38-5.54-2.47-1.89,0-3.78,0-5.67-.09Z"/><path class="cls-1" d="M86.38,86l-.55.56h-.46v-5.2l.52-.53.51.53Zm0,5.92-.51.54-.52-.54v-5.2h.47l.56.57Zm5.27.67-.52.51H86.51L86,92.54,86.5,92h4.63Zm0-11.89-.53.53H86.5L86,80.65l.51-.52h4.62Zm.65,1.63-.53.52-.52-.52v-1l.53-.53.51.53Zm0,9.59-.51.54-.53-.54v-1l.52-.51.53.51Z"/><path class="cls-1" d="M100.19,86l-.55.56h-.45v-5.2l.52-.53.52.53Zm0,5.92-.52.54-.52-.54v-5.2h.47l.57.57Zm5.26.67-.51.51h-4.62l-.54-.51.52-.54h4.64Zm0-11.89-.53.53H100.3l-.52-.53.52-.52h4.62Zm.63.66v5.2h-.48L105,86V81.31l.53-.53Zm0,10.56-.52.54-.53-.54V87.21l.55-.57h.49Z"/><path class="cls-1" d="M114,86l-.55.56h-.47v-5.2l.51-.53.52.53Zm0,6.59-.52.51-.51-.51V86.67h.46l.57.57Zm5.24-11.89-.53.53H114l-.52-.53.52-.52h4.62Zm.65,5.3-.54.51-.51-.51V81.31l.53-.53.52.53Zm0,6.59-.52.51-.53-.51V87.21l.51-.52.54.52Zm5.35-11.89-.53.53H120l-.52-.53.52-.52h4.62Zm.65.66v5.2h-.49l-.56-.56V81.31l.53-.53Zm0,11.23-.52.51-.53-.51V87.21l.56-.57h.49Z"/><path class="cls-1" d="M133.65,92.54l-.52.51-.52-.51V86.67h.47l.57.57Zm0-6.59-.57.56h-.47V80.26l1,1Zm5.28-5.3-.53.53h-4.61l-1-1h5.67Zm0,5.94-.52.52h-4.62l-.53-.52.53-.51h4.65Zm.64-.64-.53.51-.51-.51V81.31l.53-.53.51.53Z"/><path class="cls-1" d="M147.46,91.87l-.52.54-.51-.54v-5.2h.46l.57.57Zm0-5.92-.55.56h-.47V80.65l.5-.52.54.52Zm5.27,6.59-.52.51h-4.62l-.53-.51.51-.54h4.62Zm.64-.67-.52.54-.53-.54V87.24l.55-.57h.48Zm0-11.22v5.86h-.49l-.56-.56v-5.3l.51-.52Z"/><path class="cls-1" d="M166.83,80.65l-.53.53h-2.17l-.62-.65-.65.65h-2.15l-.5-.53.5-.52h5.59ZM164,86l-.53.51L163,86V81.31l.53-.53.52.53Zm0,6.59-.51.51-.54-.51V87.21l.52-.52.53.52Z"/><path class="cls-1" d="M174.69,86l-.55.56h-.47v-5.2l.51-.53.52.53Zm0,5.92-.52.54-.51-.54v-5.2h.46l.57.57ZM179,86.59l-.51.52H174.8l-.53-.52.53-.51h3.67Zm1,6-.51.51h-4.62l-.53-.51.51-.54h4.64Zm0-11.89-.53.53h-4.62l-.52-.53.52-.52h4.62Z"/><path class="cls-1" d="M187.83,92.54l-.52.51-.52-.51V86.67h.47l.57.57Zm0-6.59-.57.56h-.47V80.26l1,1Zm5.28-5.3-.53.53h-4.64l-1-1h5.67Zm0,5.94-.52.52h-4.65l-.53-.52.53-.51h4.65Zm.64,6.46H193l-5-5v-.77h.71l5,5Zm0-7.1-.53.51-.51-.51V81.31l.53-.53.51.53Z"/><path class="cls-1" d="M212.45,92.54l-.52.51-.51-.51V87.21l.5-.52.53.52Zm0-6.59-.52.51-.5-.51v-5.3l.5-.52.53.52Z"/><path class="cls-1" d="M220.3,92.54l-.52.51-.51-.51V86.67h.46l.57.57Zm0-6.59-.55.56h-.47V80.65l.5-.52.54.52Zm4.7,0h-.81l-3.77-3.78v-.76h.77L225,85.24Zm1.23-5.25v5.86h-.49l-.56-.56V80.7l.51-.52Zm0,11.89-.52.51-.53-.51V87.21l.55-.57h.46Z"/><path class="cls-1" d="M239.65,80.65l-.53.53H237l-.63-.65-.64.65h-2.15l-.5-.53.5-.52h5.59ZM236.84,86l-.53.51-.52-.51V81.31l.54-.53.51.53Zm0,6.59-.52.51-.53-.51V87.21l.52-.52.53.52Z"/><path class="cls-1" d="M247.49,86l-.55.56h-.47v-5.2l.52-.53.52.53Zm0,5.92-.52.54-.52-.54v-5.2h.47l.57.57Zm4.29-5.28-.51.52H247.6l-.53-.52.53-.51h3.67Zm1,6-.51.51h-4.62l-.54-.51.52-.54h4.64Zm0-11.89-.53.53h-4.62l-.52-.53.52-.52h4.62Z"/><path class="cls-1" d="M260.6,92.54l-.51.51-.52-.51V86.67H260l.56.57Zm0-6.59-.57.56h-.47V80.26l1,1Zm5.28-5.3-.54.53h-4.63l-1-1h5.66Zm0,5.94-.52.52h-4.65l-.53-.52.53-.51h4.65Zm.64,6.46h-.76l-5-5v-.77h.71l5,5Zm0-7.1-.53.51-.52-.51V81.31l.54-.53.51.53Z"/><path class="cls-1" d="M274.43,86l-.57.56h-.48V81.33l.54-.55.51.53Zm0,6.59-.52.51-.52-.51V86.67h.47l.57.57Zm5.31-6-.52.52h-4.65l-.53-.52.53-.51h4.62Zm0-5.94-.55.61h-4.62l-.52-.53.52-.52h4.62Zm.68,5.86h-.52l-.56-.56V81.31l.53-.53.53.55Zm0,.16v5.87l-.51.51-.54-.51V87.21l.57-.57Z"/><path class="cls-1" d="M288.19,86l-.55.56h-.45v-5.2l.52-.53.52.53Zm0,5.92-.52.54-.52-.54v-5.2h.47l.57.57Zm5.26.67-.52.51h-4.62l-.53-.51.52-.54h4.63Zm0-11.89-.54.53h-4.62l-.51-.53.51-.52h4.62Zm.64,1.63-.53.52-.52-.52v-1l.53-.53.52.53Zm0,9.59-.52.54-.53-.54v-1l.52-.51.53.51Z"/><path class="cls-1" d="M307.58,80.65l-.54.53h-2.16l-.63-.65-.65.65h-2.14l-.5-.53.5-.52H307ZM304.77,86l-.54.51-.51-.51V81.31l.53-.53.52.53Zm0,6.59-.52.51-.53-.51V87.21l.51-.52.54.52Z"/><path class="cls-1" d="M315.41,92.54l-.51.51-.52-.51V87.21l.5-.52.53.52Zm0-6.59-.51.51-.5-.51v-5.3l.5-.52.53.52Z"/><path class="cls-1" d="M323.26,86l-.54.56h-.47v-5.2l.52-.53.51.53Zm0,5.92-.51.54-.52-.54v-5.2h.47l.56.57Zm5.27.67-.52.51h-4.62l-.53-.51.52-.54H328Zm0-11.89-.54.53h-4.6l-.51-.53.51-.52H328Zm.63.66v5.2h-.48l-.57-.56V81.31l.53-.53Zm0,10.56-.52.54-.53-.54V87.21l.55-.57h.53Z"/><path class="cls-1" d="M337,92.54l-.52.51-.52-.51V86.67h.47l.57.57ZM337,86l-.55.56H336V80.65l.5-.52.53.52Zm4.7,0H341l-3.76-3.83v-.76h.71l3.83,3.83ZM343,80.7v5.86h-.48L341.9,86V80.7l.52-.52Zm0,11.89-.51.51-.54-.51V87.21l.55-.57h.49Z"/><path class="cls-2" d="M54.52,30.72c-3.38-2.72-7.2-4.46-10.9-4.23a9.81,9.81,0,0,0-2.68.53c-.8.26-1.58.56-2.35.88-.61.25-1.2.53-1.8.81h0a48.24,48.24,0,0,0-15,11.5C10.93,52.31,4.36,69,1.72,80.49,5,89.91,12.56,96.87,21.62,98.12c0-1,.07-2,.19-3.28.79-8.5,4.43-23.53,18.65-41.08,1.1-1.08,2.15-2,3.16-3,7.18-6.44,12-8.69,15.25-8.83,6.19-.27,6.56,7.1,6.56,7.1C65.43,43.83,60.69,35.67,54.52,30.72Z"/><path class="cls-3" d="M54.52,30.72c-3.38-2.72-7.2-4.46-10.9-4.23a9.81,9.81,0,0,0-2.68.53c-.8.26-1.58.56-2.35.88,2-.49,5,.32,5,9.3v61c12.22-1.57,21.81-13.54,21.81-28V49.08C65.43,43.83,60.69,35.67,54.52,30.72Z"/><path class="cls-4" d="M0,28V70.21a31.1,31.1,0,0,0,1.72,10.3C5,89.93,12.56,96.89,21.62,98.14c0-1,.07-2,.19-3.28V0C9.59,1.57,0,13.54,0,28Z"/></g></g></svg>