<svg xmlns="http://www.w3.org/2000/svg" viewBox="0 0 229.67 29.75"><defs><style>.cls-1{fill:#1d1d1b;}</style></defs><g id="Ebene_2" data-name="Ebene 2"><g id="Ebene_1-2" data-name="Ebene 1"><path class="cls-1" d="M19.64,13.5l-2.08,3.09-6-4.09.21,6.66h-4l.15-6.49L2,16.61,0,13.5,6.65,9.58,0,5.62,2,2.49l5.87,4L7.78,0h4L11.6,6.5l5.94-3.95,2.08,3.11-6.71,3.9Z"/><path class="cls-1" d="M54.17,15.22q0,6.68-3.83,10.6T39.77,29.75q-6.72,0-10.55-3.93T25.4,15.22q0-6.74,3.82-10.64T39.77.67q6.72,0,10.55,3.91T54.17,15.22Zm-9.54,7.07a8.44,8.44,0,0,0,1.55-3,14.57,14.57,0,0,0,.51-4.08,14,14,0,0,0-.58-4.27,8.33,8.33,0,0,0-1.52-2.85,5.73,5.73,0,0,0-2.2-1.63,7,7,0,0,0-5.18,0A6.06,6.06,0,0,0,35,8a8.14,8.14,0,0,0-1.53,2.9,14.19,14.19,0,0,0-.59,4.28,13.45,13.45,0,0,0,.58,4.24A8.22,8.22,0,0,0,35,22.32,5.67,5.67,0,0,0,37.15,24a6.76,6.76,0,0,0,2.64.53,6.56,6.56,0,0,0,2.64-.54A5.73,5.73,0,0,0,44.63,22.29Z"/><path class="cls-1" d="M86.53,29.16H77.74L70.15,18.93H66.82V29.16H59.66V1.26H71.73A27.29,27.29,0,0,1,76,1.54a9,9,0,0,1,3.34,1.22,7.25,7.25,0,0,1,2.5,2.42,7,7,0,0,1,.93,3.74,8.27,8.27,0,0,1-1.44,5,10.87,10.87,0,0,1-4.09,3.25ZM75.31,9.8A3.63,3.63,0,0,0,74.88,8,2.91,2.91,0,0,0,73.4,6.82a5.39,5.39,0,0,0-1.71-.36c-.65,0-1.4-.07-2.27-.07h-2.6v7.52H69a21.08,21.08,0,0,0,2.89-.17A4.07,4.07,0,0,0,73.86,13,3.73,3.73,0,0,0,75,11.69,4.34,4.34,0,0,0,75.31,9.8Z"/><path class="cls-1" d="M115.47,29.16H108l-1.94-5.64H95.77l-1.94,5.64H86.57L96.88,1.26h8.29Zm-11.1-10.75-3.44-10-3.43,10Z"/><path class="cls-1" d="M132.29,19.46H118v-5.4h14.3Z"/><path class="cls-1" d="M158,29.16H137.91V1.26h7.2V23.77H158Z"/><path class="cls-1" d="M177.46,29.16H161.11V24.22h4.58V6.2h-4.58V1.26h16.35V6.2h-4.58v18h4.58Z"/><path class="cls-1" d="M205.16,6.65h-8.72V29.16h-7.2V6.65h-8.71V1.26h24.63Z"/><path class="cls-1" d="M229.67,29.16H209.49V1.26h20.18V6.65h-13v4.82h12.09v5.4H216.65v6.9h13Z"/></g></g></svg>