<svg xmlns="http://www.w3.org/2000/svg" viewBox="0 0 52.65 42.05"><defs><style>.cls-1{fill:#1d71b8;}.cls-2{fill:#36a9e1;}</style></defs><g id="Ebene_2" data-name="Ebene 2"><g id="Ebene_1-2" data-name="Ebene 1"><path class="cls-1" d="M28.49,30.32H4.67A1.94,1.94,0,0,1,2.76,28.4V4.67A1.93,1.93,0,0,1,4.67,2.76H39.43a1.94,1.94,0,0,1,1.91,1.91V18.32l2.76,2.75V4.67A4.68,4.68,0,0,0,39.43,0H4.67A4.68,4.68,0,0,0,0,4.67V28.4a4.68,4.68,0,0,0,4.67,4.67H11.3l.12,8.27,8.15-8.27H31.24Z"/><polygon class="cls-2" points="22.61 12.01 22.61 19.8 40.15 37.34 47.94 29.55 30.4 12.01 22.61 12.01"/><path class="cls-2" d="M47.94,41.24l3.9-3.9a2.74,2.74,0,0,0,0-3.89l-2-2L42.1,39.29l1.94,2a2.75,2.75,0,0,0,3.9,0"/></g></g></svg>