<svg xmlns="http://www.w3.org/2000/svg" viewBox="0 0 205.78 78.03"><defs><style>.cls-1{fill:#1d1d1b;}.cls-2{fill:none;stroke:#1d1d1b;stroke-miterlimit:3.86;stroke-width:0.03px;}</style></defs><g id="Ebene_2" data-name="Ebene 2"><g id="Ebene_1-2" data-name="Ebene 1"><path class="cls-1" d="M53.38,74.74a28.52,28.52,0,0,0-4-1.2q.15,1.35.3,2.4c1.3-.4,2.5-.8,3.7-1.2Zm-4-2a23.2,23.2,0,0,1,4.9,1.6l2.1-.9a43.75,43.75,0,0,0-6.9-2.4,10.28,10.28,0,0,0-.1,1.7Zm5.1,2.4h0a46,46,0,0,1-6.7,2h-.1a41.13,41.13,0,0,1-6,.8h-.1a38.12,38.12,0,0,1-17.5-3l-.2-.1a.1.1,0,0,1-.1-.1c-7.9-3.7-11.5-10.2-3.7-15.4a32.73,32.73,0,0,0-2.9-3.9l-1-1.3c-.6,1.6-.7,2.7.3,4.1a.45.45,0,0,1,0,.5L11,65.34a.28.28,0,0,1-.5,0c-27.6-30.3,3.9-76.2,41.9-63a.37.37,0,0,1,.2.5l-6,9.9a.52.52,0,0,1-.4.2c-1.9-.3-3-.2-3.8.5a27.78,27.78,0,0,1,5.3,1.4,49,49,0,0,1,5.2-5,.1.1,0,0,0,.1-.1.19.19,0,0,1,.3,0,.22.22,0,0,1,.2.2V10l3.4,10.2v.3a.22.22,0,0,1-.2.2c-.1.1-.2.1-.3.2.7,2.1,5.6,16.9,7.1,20.9.5,1.2,1.5,3.5,1.5,4.8s-.9,2-2.8,2.1c-1,.9-1.1,1.3-.6,1.9,1,1.4.5,2-.7,2.9,1.1.9.9,2.5.3,2.5a1.8,1.8,0,0,0-1.6.9c3.5,3.4.6,6.4-4.1,7.4a19.89,19.89,0,0,1-5,.4v.1a25.1,25.1,0,0,0-1.1,5.6c3.1.9,6.8,2,7.8,2.8l.1.1a.37.37,0,0,1,.1.3.22.22,0,0,1-.2.2.1.1,0,0,0-.1.1c-.8.4-1.7.8-2.6,1.2Zm-32.7-13.6v.1a12.65,12.65,0,0,1,.3,2.8c2.2-1.5,1.6-4,1-5.2-.6.4-1.1.7-1.7,1.1a5.64,5.64,0,0,0,.4,1.2Zm-.6.7a4.36,4.36,0,0,0-2.4,3.3,7.47,7.47,0,0,0,2.5-.7,11.11,11.11,0,0,0-.1-2.6Zm-2.5,4a3.71,3.71,0,0,0,.4,1.4c5-.1,8.7-5,6-9.9a14.31,14.31,0,0,1-1.5,1.1c1,1.9,1.9,6.7-4.9,7.4Zm.9,2.1a7.52,7.52,0,0,0,1.5,1.6c7.3-2.1,8.8-8.2,5.9-13.7a15,15,0,0,1-1.3,1.1c3.1,5.3-.9,10.6-6.1,11Zm2.2,2.1a16.27,16.27,0,0,0,2.3,1.1c9-4.5,6.8-13.8,4.8-17-.4.4-.9.8-1.3,1.2,3,5.8,1.6,12.3-5.8,14.7Zm28-36.4c3.1-1.2,7-1.8,10-.9-1.3-4-2.7-8.1-3.5-10.5,0,4-1.9,7.8-5.8,9.4a11.76,11.76,0,0,1-.7,2Zm-1.1.6a.1.1,0,0,1,.1-.1,8.08,8.08,0,0,0,1.1-2.7v-.1a11,11,0,0,0,.2-2.6V29a7.47,7.47,0,0,0-.3-2,10.1,10.1,0,0,0-1.3,1.6,7.87,7.87,0,0,1-2.8,7,7.39,7.39,0,0,1,0,2.1,12.44,12.44,0,0,0,3-3.1Zm-18.4,21.2a4.15,4.15,0,0,1,1.2-2,4.94,4.94,0,0,1-.5-1.6c-.5.6-1,1.1-1.6,1.7.3.6.6,1.2.9,1.9Zm1.7-2.4a6.11,6.11,0,0,1,1.4-.7,9.05,9.05,0,0,1-.6-2.6c-.4.5-.9,1-1.3,1.5a12.09,12.09,0,0,0,.5,1.8Zm-17,2.7a7.71,7.71,0,0,1,.7-2.7,22.48,22.48,0,0,1-3.9-11v-.1c0-.5-.1-1-.1-1.5v-.6a20.2,20.2,0,0,1,.3-4.9v-.1l.3-1.5v-.1A28.6,28.6,0,0,1,19,21l.1-.1c1-1,2.1-2,3.2-2.9h0a21.89,21.89,0,0,1,6-3.3h.1a25.59,25.59,0,0,1,8.9-1.6h.6a24,24,0,0,1,3.7.3,3,3,0,0,1,2.1-1.2c-.1,0-.1,0-.2-.1h0a25.67,25.67,0,0,0-4.7-.8h0a27.2,27.2,0,0,0-21.6,9.1h0a28.83,28.83,0,0,0-3,3.9v.1a31.68,31.68,0,0,0-2.1,4.1h0a22.53,22.53,0,0,0-1.4,4.4,28,28,0,0,0,2.3,19h0a13.39,13.39,0,0,0,2,4.2Zm1.3-3,.1.1c.3.4.5.7.8,1.1,1.4-1.1,2.7-2.2,4-3.4-.6-.3-1.2-.6-1.7-.9a3.8,3.8,0,0,1-3.3,1.4c-.3,0-.4-.2-.3-.5.3-.9,0-3.2,0-4.4-.1-.2-.3-.5-.4-.7a8.12,8.12,0,0,1-1.7.1c-.4,0-.5-.3-.2-.6,1.1-1,.9-2.4,1.2-4.3a21.08,21.08,0,0,0-2.2,1.4,21.3,21.3,0,0,0,3.7,10.7Zm3.5,4.6c14.6-9.8,20.4-27.5,33.5-38.7l-1.9-.4c-.4-.1-.4-.1-.3-.5l.3-2.7c-12.2,12.3-18.9,32.5-32.5,41.1l.9,1.2Zm33.9-44.6c-.6.5-1.1,1-1.6,1.5l-.4,3.4,2.2.5a14.7,14.7,0,0,1,1.3-1l-.3-1a1.26,1.26,0,0,1-.8-2.4l-.4-1ZM22,51.14a54.62,54.62,0,0,1-4.4,3.8l.1.1c.2.3.5.6.7.9,7.2-4.5,12.4-12.3,17.6-20.5,4.5-7.2,9.3-15.2,15.4-21.2l.1-.1c.6-.6,1.3-1.2,1.9-1.8l-.5-1.5a58.76,58.76,0,0,0-6.6,6.6.1.1,0,0,1-.1.1,141.83,141.83,0,0,0-10.3,14.9c-1.7,2.6-3.3,5.2-5.1,7.8a.1.1,0,0,1-.1.1c-.7,1-1.5,2-2.2,3.1a.1.1,0,0,1-.1.1c-.5.7-1.1,1.4-1.7,2.1a.1.1,0,0,1-.1.1c-.8,1-1.7,2-2.6,3a.1.1,0,0,1-.1.1,17.65,17.65,0,0,1-1.9,2.3Zm-.3-.7,1.6-1.6c-3.3-.5-5.2-2.1-5.9-4.1a7.44,7.44,0,0,1-1.2.9l.3.6a.35.35,0,0,1,.1.2c1.3,2.1,2.8,2.8,5.1,4Zm2.1-2.3c.5-.6,1.1-1.2,1.6-1.8-6.1,1.7-10-7.9.5-11.8a14.46,14.46,0,0,1-2.2-.9c-6.8,3-9.1,13.3.1,14.5Zm2.6-3c.5-.7,1.1-1.3,1.6-2,.2-1.8-.2-3.8-2.5-4.8a6.57,6.57,0,0,0-1.7,1.2c3.3.5,3.2,4.7.2,4.7-2.5,0-2.4-3.1-1.3-4.6a.1.1,0,0,1,.1-.1h0a6.94,6.94,0,0,1,2.4-1.9.1.1,0,0,0,.1-.1,16.28,16.28,0,0,1,2.9-1h.1a13.66,13.66,0,0,1,2.3-.4c-.6-.3-1.4-.5-2.1-.8-.5-.2-1-.3-1.6-.5-11.1,3.6-6.6,13.5-.5,10.3Zm2.3-3.1,1.5-2.1a5.35,5.35,0,0,0-1.8-2.7,17.23,17.23,0,0,0-2.1.7,4.48,4.48,0,0,1,2.4,4.1Zm2-2.8c.5-.8,1-1.5,1.5-2.3-.1-.1-.3-.2-.4-.3-.7.1-1.6.2-2.6.4a7.18,7.18,0,0,1,1.5,2.2Zm1.9-2.8c.5-.8,1-1.6,1.6-2.4-2-.5-5.5-.2-7.8-.2.8.3,1.6.5,2.4.8a16.38,16.38,0,0,1,3.3,1.4.1.1,0,0,1,.1.1c.1.1.3.2.4.3Zm2-3.1c.4-.6.7-1.2,1.1-1.7-2.2-.7-5.7-.5-7.9-.5-2.6,0-5.4.1-7.5-.5a13.31,13.31,0,0,0,4,2.4A36.82,36.82,0,0,0,29,33a31.48,31.48,0,0,1,5.6.3Zm1.5-2.3.9-1.5c-2.8-1.1-7.3-.7-10.2-.7-3.3,0-6.7-.2-8.9-2a8.18,8.18,0,0,0,1.4,2.8c3.2,1.4,9.4.7,13.1.8a13,13,0,0,1,3.7.6Zm1.3-2.1a13,13,0,0,1,1-1.5,19.81,19.81,0,0,0-3.3-.8H35a60.75,60.75,0,0,0-8.6-.3,21.36,21.36,0,0,1-5.2-.5h-.1a5.94,5.94,0,0,1-3.3-2.4,1.38,1.38,0,0,0-.3.4,9.85,9.85,0,0,0,.2,1.7c1.8,2.4,5.3,2.7,9.2,2.7,3-.1,7.6-.5,10.5.7Zm8.7-12.2c.3-.4.7-.8,1-1.2a29.12,29.12,0,0,0-5.5-1.3h-.1l-2.4-.3a3.31,3.31,0,0,1,.5,1.9,2.1,2.1,0,0,1,.7,1.4,2.63,2.63,0,0,1,2-.2,2.23,2.23,0,0,1,3.8-.3ZM6.48,59.24l6.5-4.9c-.3-.6-.6-1.1-.9-1.7l-5.5,3.3c-.4.2-.8-.4-.4-.6l5.5-3.4c-.2-.5-.4-.9-.6-1.4L3.58,54c.9,1.8,1.9,3.5,2.9,5.2Zm6.9-4.3-6.5,4.9a51.55,51.55,0,0,0,3.7,4.8l5.1-6.1c-.3-.5-.7-.9-1-1.4l-4.9,4.8c-.3.3-.8-.2-.5-.5l5-4.9c-.3-.5-.6-1.1-.9-1.6Zm-9.9-1.5,7.5-3.5a8.8,8.8,0,0,1-.5-1.5l-6.1,1.8c-.5.1-.7-.6-.2-.7l6.1-1.8a14.62,14.62,0,0,1-.5-2l-8.1,1.7a25.86,25.86,0,0,0,1.8,6Zm-2.1-6.6,8.1-1.7c-.1-.6-.2-1.2-.3-1.7l-6.5.6c-.5,0-.5-.7-.1-.7l6.5-.6c-.1-.6-.1-1.3-.2-1.9l-8.3-.2a45.79,45.79,0,0,0,.8,6.2Zm-.8-7,8.3.2v-1.7l-6.4-.7a.35.35,0,1,1,.1-.7l6.4.7a14.92,14.92,0,0,1,.2-2.1l-8.1-1.7a40.47,40.47,0,0,0-.5,6Zm.6-6.7,8.1,1.7c.1-.6.2-1.1.3-1.6l-6.2-2c-.5-.1-.2-.8.2-.7l6.1,1.9c.1-.5.3-1.1.4-1.6l-7.5-3.7a52.7,52.7,0,0,0-1.4,6ZM3,26.44l7.4,3.7c.2-.5.4-1.1.6-1.6L5.28,25c-.4-.2,0-.9.4-.6l5.6,3.4a13,13,0,0,1,.8-1.7L5.38,21Q4,23.74,3,26.44Zm2.7-5.9,6.7,5.1a9.13,9.13,0,0,1,.8-1.3l-4.9-4.7c-.3-.3.2-.8.5-.5l4.8,4.6c.4-.6.7-1.1,1.1-1.6l-5.6-6.5a35.41,35.41,0,0,0-3.4,4.9ZM9.48,15l5.6,6.5c.4-.4.7-.9,1.1-1.3L12,14.54c-.3-.4.3-.8.6-.4l4.1,5.6a15.93,15.93,0,0,1,1.3-1.3l-4.4-7.6A27.25,27.25,0,0,0,9.48,15Zm4.6-4.8,4.4,7.6c.4-.3.8-.7,1.2-1l-2.9-6.7c-.2-.4.5-.7.7-.3l2.8,6.5a9.06,9.06,0,0,1,1.6-1.1L19,6.54c-1.7,1.2-3.4,2.4-4.9,3.7Zm5.5-4,2.9,8.7a10,10,0,0,1,1.4-.8l-1.7-7.3a.36.36,0,0,1,.7-.2l1.7,7c.5-.3,1-.5,1.5-.8l-1.3-9.4c-1.8.9-3.5,1.8-5.2,2.8Zm5.9-3,1.3,9.4c.5-.2,1.1-.4,1.7-.6l-.3-7.8a.35.35,0,1,1,.7,0l.2,7.6c.5-.2,1.1-.3,1.7-.5l.7-9.8a37.83,37.83,0,0,0-6,1.7Zm6.7-1.8-.7,9.8a12.5,12.5,0,0,1,1.9-.3l1.2-7.7a.35.35,0,1,1,.7.1l-1.1,7.5a7.57,7.57,0,0,1,1.5-.1l2.5-9.8a24.34,24.34,0,0,0-6,.5ZM39,.84l-2.5,9.8h1.9l2.4-7.7c.1-.5.8-.2.7.2l-2.4,7.5c.6.1,1.2.1,1.8.2L45,1.24a40.32,40.32,0,0,0-6-.4Zm6.7.6L41.58,11a9.36,9.36,0,0,1,1.6.4l4-7.8c.2-.4.9-.1.6.3l-4,7.6a17.23,17.23,0,0,1,2.1.7l5.6-9.3a29.09,29.09,0,0,0-5.8-1.5Zm-12.9,21.5c0,.1,0,.1-.1.2s-.1.1-.2.1h-.1a5.44,5.44,0,0,1-1.8,0l-.2.2a4,4,0,0,0,1.2,2.3,8.6,8.6,0,0,1,1.6.1l1.6-6.5c-1.8-.5-2.2-3.6.1-4a1.9,1.9,0,0,1,.5-1.3,22.26,22.26,0,0,0-3.6.5l.3,3.7v.5c0,.5-.7.5-.7.1v-.3l-1.5-1a1.61,1.61,0,0,0-.6,1.3,1.79,1.79,0,0,0,1.8,1.8.9.9,0,0,0,.5-.1v-.1c0-.5.7-.5.7-.1v.5l.5,2.1Zm-2.6-6.6.2.1h.1l1.2.8-.3-2.9a27.59,27.59,0,0,0-2.7.8,4.11,4.11,0,0,0-.5,5.6l.1.1a4.26,4.26,0,0,0,3.8,1.5l-.2-1.3c-.2,0-.4.1-.6.1a2.48,2.48,0,0,1-2.5-2.5,2.5,2.5,0,0,1,.8-1.8.42.42,0,0,1,.6-.5Zm-.4,6.6a5.78,5.78,0,0,1-2-1.3,5.15,5.15,0,0,1-5.5-2.8,25.73,25.73,0,0,0-2.4,2.1l1.5.4h.1l.4.1c.1,0,.1,0,.2.1a.1.1,0,0,1,.1.1c1.7,2.1,6,2.1,7.6,1.3Zm-2.5-2a4.34,4.34,0,0,1,0-5.1,21.26,21.26,0,0,0-4.4,2.6,4.48,4.48,0,0,0,4.4,2.5Zm-5.7,1.2h0a6.06,6.06,0,0,0-.1,3,17.7,17.7,0,0,0,4.8.5h4.4a4.13,4.13,0,0,1-.9-1.9c-2.1.8-6.3.5-8.2-1.6Zm1.2,11.1a5.67,5.67,0,0,1-1.3-.8,14.31,14.31,0,0,1-1.5,1.1h-.1a24.91,24.91,0,0,0-2.3,2.2l-.1.1a3.59,3.59,0,0,0-.7,1,.1.1,0,0,1-.1.1,9.84,9.84,0,0,0-1.4,3.5c-.3,1.5-.1,3.5-1,4.8a3.31,3.31,0,0,0,2.6-1.3c-.6-3.8,2.1-8.7,5.9-10.7Zm.5,6.9c-.1.1-.2.3-.3.4-.8,1.6.1,2.9,1,2.9,2.3,0,2.1-3.1-.7-3.3Zm-4.1-6.8a11,11,0,0,1-3.3-3.5,5.86,5.86,0,0,0,.1,2.3h0a8.71,8.71,0,0,0,1.4,2.9c.5-.5,1.1-1.1,1.8-1.7Zm-2.6,14.4a10.06,10.06,0,0,1,0,3,3,3,0,0,0,2.2-1,13.73,13.73,0,0,1-2.2-2Zm-.4-13.3-1.3.7.7,1.5c.3-.1.5-.2.8-.3a5.55,5.55,0,0,0,.6-.8,10.47,10.47,0,0,1-.8-1.1Zm-3.9,6.4a2.77,2.77,0,0,0,.1.9,12.32,12.32,0,0,1,2.4-1.4,11.86,11.86,0,0,1,1-2.8c-.1,0-.1.1-.2.1h0a9.12,9.12,0,0,0-3.3,3.2Zm.1-4.6c-.1,1.1-.2,2.2-.2,3.3a8.7,8.7,0,0,1,1.3-1.5l-1.1-1.8Zm.4-2.3a5.85,5.85,0,0,0-.2,1.3l1.5,2.5c.3-.2.5-.4.8-.6-1.2-2.6-1.5-2,1-3.2-.2-.4-.3-.8-.5-1.2a6.48,6.48,0,0,0-2.6,1.2Zm4-9.2a25.27,25.27,0,0,0-3.7,8.2,10.17,10.17,0,0,1,2.2-1,6.16,6.16,0,0,1,.3-3.5c.2-.4.6-.4.7.1.3,1.8,2.1,3.2,3.5,4.3a4.44,4.44,0,0,1,1.1-.8,9.71,9.71,0,0,1-4.1-7.3Zm2.5-3.2a6.89,6.89,0,0,0-1.1,1.3,6.55,6.55,0,0,0,2.6,2.1,9.31,9.31,0,0,1,.1-2.9l-1.6-.5Zm20.1-2.3a2.13,2.13,0,0,1-1.2.3,10.75,10.75,0,0,0-.1,3.1l1.9-2a2.38,2.38,0,0,1-.6-1.4Zm-2.2,2.1a1.54,1.54,0,0,1-1.3-.9c-.1-.2.7-.1.8-.1a1.27,1.27,0,0,0,.6-.1,5,5,0,0,1,.2-1.2h0a.6.6,0,0,1,.1-.4.35.35,0,1,1,.7.1,1.39,1.39,0,1,0-.5-2.7.35.35,0,1,1-.1-.7,2.85,2.85,0,0,1,1.3,0c-.2-3-4.9-1.2-2.2,1.1.4.3-.1.9-.5.5a2.37,2.37,0,0,1-.9-1.2,1.34,1.34,0,0,0-.1,2.6v-.1c.1-.5.8-.3.7.2l-.1.4h0l-1.8,7c.3,0,.6.1.9.1l2.5-2.7a5.82,5.82,0,0,1-.3-1.9Zm3.6,2.5a2.71,2.71,0,0,1-.4-2c.1-.3.4.2.5.3a5.58,5.58,0,0,0,.8.5c.6-.9,1.2-1.7,1.8-2.6s1.4-1.9,2.2-2.8c-1.2-1.5-3.3-.6-2.7,1.7a.36.36,0,0,1-.7.2,3.44,3.44,0,0,1-.1-1.4c-1.6-.5-2.7.9-1.7,2.3.3-.3.8.2.5.5l-2.8,3-.1.1L35.88,26a16.66,16.66,0,0,1,3,.8,24.9,24.9,0,0,1,1.9-3Zm-3.2,20c4-1.6,5.2-4.8,5-7.3-.9,1.3-1.8,2.6-2.6,3.9-.8,1.1-1.6,2.2-2.4,3.4Zm7.9-9.1a7.24,7.24,0,0,0,2.2-5.3L45,33a10.93,10.93,0,0,1,.5,1.7Zm5.2-6.4a6,6,0,0,0,2.5-4.9,37,37,0,0,0-2.8,2.8q.15,1.2.3,2.1Zm-.1,2.9c3.7-1.7,5.2-5.7,4.9-9.8a11.51,11.51,0,0,0-1.7,1.4c.2,2.5-.7,4.5-3.1,6.3a13.42,13.42,0,0,1-.1,2.1Zm-14.4,15.4h0a10,10,0,0,0,8.7-8.2v-.1a12.89,12.89,0,0,0,.1-2.8v-.1a10.46,10.46,0,0,0-.4-1.7c-.4.6-.9,1.2-1.3,1.9.6,3.2-.8,7.6-6.3,9.2a22,22,0,0,1-1.4,1.8Zm-15.4,12.7h0c.1.2.2.3.2.4a26.27,26.27,0,0,0,4-2.8h.1l1.8-1.5.1-.1c.6-.5,1.1-1.1,1.7-1.6a.1.1,0,0,1,.1-.1c.7-.7,1.5-1.5,2.2-2.3l.1-.1L33,49a.1.1,0,0,1,.1-.1c.5-.7,1.1-1.4,1.6-2.1,0-.1,0,0,.1-.1.6-.8,1.2-1.6,1.7-2.4a.1.1,0,0,1,.1-.1c2.1-2.9,4.1-5.9,6.1-8.9a.1.1,0,0,1,.1-.1c.6-.8,1.1-1.7,1.7-2.5a.1.1,0,0,1,.1-.1c1-1.4,2-2.7,3-4a1.38,1.38,0,0,0,.3-.4.1.1,0,0,1,.1-.1c.6-.7,1.2-1.5,1.8-2.2a.1.1,0,0,1,.1-.1c1.1-1.2,2.3-2.4,3.4-3.5l.1-.1a18.06,18.06,0,0,1,2.3-1.8l.1-.1.1-.1H56c.1-.1.2-.2.3-.2l-.7-2a10.63,10.63,0,0,0-1.1.9l-.1.1c-13.6,11.3-19.3,29.4-34.2,39.3a8.79,8.79,0,0,1,.6,1Zm12.8,1.3h0a3.75,3.75,0,0,0,1,.1,4.07,4.07,0,0,0,2.4-.8h0a3.72,3.72,0,0,0,1.3-2.8,3.34,3.34,0,0,0-.3-1.5v-.1a3.81,3.81,0,0,0-3.3-2.1h-.6a3.7,3.7,0,0,0-1.8.8h-.1a3.72,3.72,0,0,0-1.3,2.8,3.66,3.66,0,0,0,2.7,3.6ZM24,74.14a15.68,15.68,0,0,0,2.9-1.4l.1-.1a18.39,18.39,0,0,0,2.2-1.7.1.1,0,0,1,.1-.1,13.58,13.58,0,0,0,4-9.6,4.74,4.74,0,0,1-1.9-1.2c.4,4.1-.9,9.1-7,12.1-.1.1-.1.1-.2.1H24a12,12,0,0,1-3-1.5l-.2-.2a8.33,8.33,0,0,1-2-2.2c-.1-.1-.1-.1-.1-.2-1.2-2.1-1-4.5,2.4-6.5l-.6-1.5c-7,4.6-4.3,10.4,3.5,14Zm3.2-.8c-.7.4-1.5.8-2.3,1.2a38.27,38.27,0,0,0,15,2.7,108.18,108.18,0,0,0-12.7-3.9Zm2.4-1.8a15.76,15.76,0,0,1-1.5,1.2A105.06,105.06,0,0,1,41.68,77c1.5-.1,3.1-.3,4.6-.5-4.3-1.3-12.9-4-16.7-5Zm4.3-10.1a14.47,14.47,0,0,1-3.8,9.6c4.4,1.1,14,4.1,17.5,5.4.5-.1,1-.2,1.4-.3a23.23,23.23,0,0,1,.8-11.4,28.24,28.24,0,0,1-12.7-4.1,4.52,4.52,0,0,1-2.6.9c-.1-.1-.4-.1-.6-.1Zm0-9.7.3.9h.4a4.55,4.55,0,0,1,2,.5c.4-2-1.5-2.8-2.7-1.4Zm2.6-3.6a4.52,4.52,0,0,1,2.3,7.2,4.67,4.67,0,0,1,.3,1.7,4.77,4.77,0,0,1-1.2,3.1c6.2,3.8,13.2,4.5,17.8,3.5,4.8-1,6.5-3.6,3.5-6.4-.5-.5.9-1.8,2-1.9a1.41,1.41,0,0,0-.7-1.5,22,22,0,0,0-5.5,1,.36.36,0,0,1-.7,0c-.2-.5.3-1.3.4-1.5.2-.5.8-.2.6.3a.76.76,0,0,0-.2.5,20.54,20.54,0,0,1,5.4-1c.4-.3,1.4-1,1.2-1.6a5.92,5.92,0,0,1-.4-.6c-.8-1-.4-1.7.3-2.5a4.16,4.16,0,0,0-3.6.9c-.5.5-1.3-.9-1.4-1.1a2.48,2.48,0,0,1,.9-2.9c.3-.3.8.2.5.5-.9.9-1.2,1.8-.3,2.7h0a5.41,5.41,0,0,1,4.6-.8h0c2.7-.2,2.5-1.3,1.8-3.2-.3-.8-.7-1.7-1-2.7-.6-1.5-1.7-4.6-2.8-8-3.1-1.2-7.5-.5-10.8,1a13,13,0,0,1-3.7,3.7,10.5,10.5,0,0,1-9,8.6l-.3,1Zm-.8-.1.1-.7H35c-.5.7-1,1.3-1.5,1.9a7.77,7.77,0,0,0,.2,1.6c1.5-1.3,4.4-.4,3.5,2.6a4.56,4.56,0,0,1,1.2,1.2,3.76,3.76,0,0,0-2.9-5.9.35.35,0,1,1,0-.7Zm12.4-25.6a.7.7,0,1,1-.7-.7.84.84,0,0,1,.7.7Zm1.9-2.2a.7.7,0,1,1-.7-.7.68.68,0,0,1,.7.7Zm-3.7,4.6a.6.6,0,1,1-.6-.6.65.65,0,0,1,.6.6Zm-20.4-6.4a.7.7,0,1,1-.7-.7.68.68,0,0,1,.7.7Zm8.7,39.9a1.3,1.3,0,1,0-1.3-1.3,1.32,1.32,0,0,0,1.3,1.3Zm0,.7a2,2,0,1,1,2-2,2,2,0,0,1-2,2Zm17-19.1a4.71,4.71,0,0,1-.2-2.1,8.47,8.47,0,0,0-3,1.5c.3.1.8.2,1.4.4a9,9,0,0,0,1.8.2Zm.5-2.3a5.31,5.31,0,0,0,.2,2.3,6.6,6.6,0,0,0,1.4-.1,2.45,2.45,0,0,1-.4-1.2,2.74,2.74,0,0,1,.2-1.3c-.4.1-.9.2-1.4.3Zm3-1.1a5.58,5.58,0,0,1,1.3,0c.2,0,.3.2.3.4,0,.4-.6.7-1,.8a1.48,1.48,0,0,1,.1.7,1.87,1.87,0,0,1-1,2.1h-.1a21.3,21.3,0,0,1-2.7.2h-.2a11.22,11.22,0,0,1-4.2-.8h0c-.3.4-.9-.1-.5-.5l.2-.2.1-.1a12.33,12.33,0,0,1,7.7-2.6Z"/><path class="cls-2" d="M53.38,74.74a28.52,28.52,0,0,0-4-1.2q.15,1.35.3,2.4c1.3-.4,2.5-.8,3.7-1.2Zm-4-2a23.2,23.2,0,0,1,4.9,1.6l2.1-.9a43.75,43.75,0,0,0-6.9-2.4,10.28,10.28,0,0,0-.1,1.7Zm5.1,2.4h0a46,46,0,0,1-6.7,2h-.1a41.13,41.13,0,0,1-6,.8h-.1a38.12,38.12,0,0,1-17.5-3l-.2-.1a.1.1,0,0,1-.1-.1c-7.9-3.7-11.5-10.2-3.7-15.4a32.73,32.73,0,0,0-2.9-3.9l-1-1.3c-.6,1.6-.7,2.7.3,4.1a.45.45,0,0,1,0,.5L11,65.34a.28.28,0,0,1-.5,0c-27.6-30.3,3.9-76.2,41.9-63a.37.37,0,0,1,.2.5l-6,9.9a.52.52,0,0,1-.4.2c-1.9-.3-3-.2-3.8.5a27.78,27.78,0,0,1,5.3,1.4,49,49,0,0,1,5.2-5,.1.1,0,0,0,.1-.1.19.19,0,0,1,.3,0,.22.22,0,0,1,.2.2V10l3.4,10.2v.3a.22.22,0,0,1-.2.2c-.1.1-.2.1-.3.2.7,2.1,5.6,16.9,7.1,20.9.5,1.2,1.5,3.5,1.5,4.8s-.9,2-2.8,2.1c-1,.9-1.1,1.3-.6,1.9,1,1.4.5,2-.7,2.9,1.1.9.9,2.5.3,2.5a1.8,1.8,0,0,0-1.6.9c3.5,3.4.6,6.4-4.1,7.4a19.89,19.89,0,0,1-5,.4v.1a25.1,25.1,0,0,0-1.1,5.6c3.1.9,6.8,2,7.8,2.8l.1.1a.37.37,0,0,1,.1.3.22.22,0,0,1-.2.2.1.1,0,0,0-.1.1c-.8.4-1.7.8-2.6,1.2Zm-32.7-13.6v.1a12.65,12.65,0,0,1,.3,2.8c2.2-1.5,1.6-4,1-5.2-.6.4-1.1.7-1.7,1.1a5.64,5.64,0,0,0,.4,1.2Zm-.6.7a4.36,4.36,0,0,0-2.4,3.3,7.47,7.47,0,0,0,2.5-.7,11.11,11.11,0,0,0-.1-2.6Zm-2.5,4a3.71,3.71,0,0,0,.4,1.4c5-.1,8.7-5,6-9.9a14.31,14.31,0,0,1-1.5,1.1c1,1.9,1.9,6.7-4.9,7.4Zm.9,2.1a7.52,7.52,0,0,0,1.5,1.6c7.3-2.1,8.8-8.2,5.9-13.7a15,15,0,0,1-1.3,1.1c3.1,5.3-.9,10.6-6.1,11Zm2.2,2.1a16.27,16.27,0,0,0,2.3,1.1c9-4.5,6.8-13.8,4.8-17-.4.4-.9.8-1.3,1.2,3,5.8,1.6,12.3-5.8,14.7Zm28-36.4c3.1-1.2,7-1.8,10-.9-1.3-4-2.7-8.1-3.5-10.5,0,4-1.9,7.8-5.8,9.4a11.76,11.76,0,0,1-.7,2Zm-1.1.6a.1.1,0,0,1,.1-.1,8.08,8.08,0,0,0,1.1-2.7v-.1a11,11,0,0,0,.2-2.6V29a7.47,7.47,0,0,0-.3-2,10.1,10.1,0,0,0-1.3,1.6,7.87,7.87,0,0,1-2.8,7,7.39,7.39,0,0,1,0,2.1,12.44,12.44,0,0,0,3-3.1Zm-18.4,21.2a4.15,4.15,0,0,1,1.2-2,4.94,4.94,0,0,1-.5-1.6c-.5.6-1,1.1-1.6,1.7.3.6.6,1.2.9,1.9Zm1.7-2.4a6.11,6.11,0,0,1,1.4-.7,9.05,9.05,0,0,1-.6-2.6c-.4.5-.9,1-1.3,1.5a12.09,12.09,0,0,0,.5,1.8Zm-17,2.7a7.71,7.71,0,0,1,.7-2.7,22.48,22.48,0,0,1-3.9-11v-.1c0-.5-.1-1-.1-1.5v-.6a20.2,20.2,0,0,1,.3-4.9v-.1l.3-1.5v-.1A28.6,28.6,0,0,1,19,21l.1-.1c1-1,2.1-2,3.2-2.9h0a21.89,21.89,0,0,1,6-3.3h.1a25.59,25.59,0,0,1,8.9-1.6h.6a24,24,0,0,1,3.7.3,3,3,0,0,1,2.1-1.2c-.1,0-.1,0-.2-.1h0a25.67,25.67,0,0,0-4.7-.8h0a27.2,27.2,0,0,0-21.6,9.1h0a28.83,28.83,0,0,0-3,3.9v.1a31.68,31.68,0,0,0-2.1,4.1h0a22.53,22.53,0,0,0-1.4,4.4,28,28,0,0,0,2.3,19h0a13.39,13.39,0,0,0,2,4.2Zm1.3-3,.1.1c.3.4.5.7.8,1.1,1.4-1.1,2.7-2.2,4-3.4-.6-.3-1.2-.6-1.7-.9a3.8,3.8,0,0,1-3.3,1.4c-.3,0-.4-.2-.3-.5.3-.9,0-3.2,0-4.4-.1-.2-.3-.5-.4-.7a8.12,8.12,0,0,1-1.7.1c-.4,0-.5-.3-.2-.6,1.1-1,.9-2.4,1.2-4.3a21.08,21.08,0,0,0-2.2,1.4,21.3,21.3,0,0,0,3.7,10.7Zm3.5,4.6c14.6-9.8,20.4-27.5,33.5-38.7l-1.9-.4c-.4-.1-.4-.1-.3-.5l.3-2.7c-12.2,12.3-18.9,32.5-32.5,41.1l.9,1.2Zm33.9-44.6c-.6.5-1.1,1-1.6,1.5l-.4,3.4,2.2.5a14.7,14.7,0,0,1,1.3-1l-.3-1a1.26,1.26,0,0,1-.8-2.4l-.4-1ZM22,51.14a54.62,54.62,0,0,1-4.4,3.8l.1.1c.2.3.5.6.7.9,7.2-4.5,12.4-12.3,17.6-20.5,4.5-7.2,9.3-15.2,15.4-21.2l.1-.1c.6-.6,1.3-1.2,1.9-1.8l-.5-1.5a58.76,58.76,0,0,0-6.6,6.6.1.1,0,0,1-.1.1,141.83,141.83,0,0,0-10.3,14.9c-1.7,2.6-3.3,5.2-5.1,7.8a.1.1,0,0,1-.1.1c-.7,1-1.5,2-2.2,3.1a.1.1,0,0,1-.1.1c-.5.7-1.1,1.4-1.7,2.1a.1.1,0,0,1-.1.1c-.8,1-1.7,2-2.6,3a.1.1,0,0,1-.1.1,17.65,17.65,0,0,1-1.9,2.3Zm-.3-.7,1.6-1.6c-3.3-.5-5.2-2.1-5.9-4.1a7.44,7.44,0,0,1-1.2.9l.3.6a.35.35,0,0,1,.1.2c1.3,2.1,2.8,2.8,5.1,4Zm2.1-2.3c.5-.6,1.1-1.2,1.6-1.8-6.1,1.7-10-7.9.5-11.8a14.46,14.46,0,0,1-2.2-.9c-6.8,3-9.1,13.3.1,14.5Zm2.6-3c.5-.7,1.1-1.3,1.6-2,.2-1.8-.2-3.8-2.5-4.8a6.57,6.57,0,0,0-1.7,1.2c3.3.5,3.2,4.7.2,4.7-2.5,0-2.4-3.1-1.3-4.6a.1.1,0,0,1,.1-.1h0a6.94,6.94,0,0,1,2.4-1.9.1.1,0,0,0,.1-.1,16.28,16.28,0,0,1,2.9-1h.1a13.66,13.66,0,0,1,2.3-.4c-.6-.3-1.4-.5-2.1-.8-.5-.2-1-.3-1.6-.5-11.1,3.6-6.6,13.5-.5,10.3Zm2.3-3.1,1.5-2.1a5.35,5.35,0,0,0-1.8-2.7,17.23,17.23,0,0,0-2.1.7,4.48,4.48,0,0,1,2.4,4.1Zm2-2.8c.5-.8,1-1.5,1.5-2.3-.1-.1-.3-.2-.4-.3-.7.1-1.6.2-2.6.4a7.18,7.18,0,0,1,1.5,2.2Zm1.9-2.8c.5-.8,1-1.6,1.6-2.4-2-.5-5.5-.2-7.8-.2.8.3,1.6.5,2.4.8a16.38,16.38,0,0,1,3.3,1.4.1.1,0,0,1,.1.1c.1.1.3.2.4.3Zm2-3.1c.4-.6.7-1.2,1.1-1.7-2.2-.7-5.7-.5-7.9-.5-2.6,0-5.4.1-7.5-.5a13.31,13.31,0,0,0,4,2.4A36.82,36.82,0,0,0,29,33a31.48,31.48,0,0,1,5.6.3Zm1.5-2.3.9-1.5c-2.8-1.1-7.3-.7-10.2-.7-3.3,0-6.7-.2-8.9-2a8.18,8.18,0,0,0,1.4,2.8c3.2,1.4,9.4.7,13.1.8a13,13,0,0,1,3.7.6Zm1.3-2.1a13,13,0,0,1,1-1.5,19.81,19.81,0,0,0-3.3-.8H35a60.75,60.75,0,0,0-8.6-.3,21.36,21.36,0,0,1-5.2-.5h-.1a5.94,5.94,0,0,1-3.3-2.4,1.38,1.38,0,0,0-.3.4,9.85,9.85,0,0,0,.2,1.7c1.8,2.4,5.3,2.7,9.2,2.7,3-.1,7.6-.5,10.5.7Zm8.7-12.2c.3-.4.7-.8,1-1.2a29.12,29.12,0,0,0-5.5-1.3h-.1l-2.4-.3a3.31,3.31,0,0,1,.5,1.9,2.1,2.1,0,0,1,.7,1.4,2.63,2.63,0,0,1,2-.2,2.23,2.23,0,0,1,3.8-.3ZM6.48,59.24l6.5-4.9c-.3-.6-.6-1.1-.9-1.7l-5.5,3.3c-.4.2-.8-.4-.4-.6l5.5-3.4c-.2-.5-.4-.9-.6-1.4L3.58,54c.9,1.8,1.9,3.5,2.9,5.2Zm6.9-4.3-6.5,4.9a51.55,51.55,0,0,0,3.7,4.8l5.1-6.1c-.3-.5-.7-.9-1-1.4l-4.9,4.8c-.3.3-.8-.2-.5-.5l5-4.9c-.3-.5-.6-1.1-.9-1.6Zm-9.9-1.5,7.5-3.5a8.8,8.8,0,0,1-.5-1.5l-6.1,1.8c-.5.1-.7-.6-.2-.7l6.1-1.8a14.62,14.62,0,0,1-.5-2l-8.1,1.7a25.86,25.86,0,0,0,1.8,6Zm-2.1-6.6,8.1-1.7c-.1-.6-.2-1.2-.3-1.7l-6.5.6c-.5,0-.5-.7-.1-.7l6.5-.6c-.1-.6-.1-1.3-.2-1.9l-8.3-.2a45.79,45.79,0,0,0,.8,6.2Zm-.8-7,8.3.2v-1.7l-6.4-.7a.35.35,0,1,1,.1-.7l6.4.7a14.92,14.92,0,0,1,.2-2.1l-8.1-1.7a40.47,40.47,0,0,0-.5,6Zm.6-6.7,8.1,1.7c.1-.6.2-1.1.3-1.6l-6.2-2c-.5-.1-.2-.8.2-.7l6.1,1.9c.1-.5.3-1.1.4-1.6l-7.5-3.7a52.7,52.7,0,0,0-1.4,6ZM3,26.44l7.4,3.7c.2-.5.4-1.1.6-1.6L5.28,25c-.4-.2,0-.9.4-.6l5.6,3.4a13,13,0,0,1,.8-1.7L5.38,21Q4,23.74,3,26.44Zm2.7-5.9,6.7,5.1a9.13,9.13,0,0,1,.8-1.3l-4.9-4.7c-.3-.3.2-.8.5-.5l4.8,4.6c.4-.6.7-1.1,1.1-1.6l-5.6-6.5a35.41,35.41,0,0,0-3.4,4.9ZM9.48,15l5.6,6.5c.4-.4.7-.9,1.1-1.3L12,14.54c-.3-.4.3-.8.6-.4l4.1,5.6a15.93,15.93,0,0,1,1.3-1.3l-4.4-7.6A27.25,27.25,0,0,0,9.48,15Zm4.6-4.8,4.4,7.6c.4-.3.8-.7,1.2-1l-2.9-6.7c-.2-.4.5-.7.7-.3l2.8,6.5a9.06,9.06,0,0,1,1.6-1.1L19,6.54c-1.7,1.2-3.4,2.4-4.9,3.7Zm5.5-4,2.9,8.7a10,10,0,0,1,1.4-.8l-1.7-7.3a.36.36,0,0,1,.7-.2l1.7,7c.5-.3,1-.5,1.5-.8l-1.3-9.4c-1.8.9-3.5,1.8-5.2,2.8Zm5.9-3,1.3,9.4c.5-.2,1.1-.4,1.7-.6l-.3-7.8a.35.35,0,1,1,.7,0l.2,7.6c.5-.2,1.1-.3,1.7-.5l.7-9.8a37.83,37.83,0,0,0-6,1.7Zm6.7-1.8-.7,9.8a12.5,12.5,0,0,1,1.9-.3l1.2-7.7a.35.35,0,1,1,.7.1l-1.1,7.5a7.57,7.57,0,0,1,1.5-.1l2.5-9.8a24.34,24.34,0,0,0-6,.5ZM39,.84l-2.5,9.8h1.9l2.4-7.7c.1-.5.8-.2.7.2l-2.4,7.5c.6.1,1.2.1,1.8.2L45,1.24a40.32,40.32,0,0,0-6-.4Zm6.7.6L41.58,11a9.36,9.36,0,0,1,1.6.4l4-7.8c.2-.4.9-.1.6.3l-4,7.6a17.23,17.23,0,0,1,2.1.7l5.6-9.3a29.09,29.09,0,0,0-5.8-1.5Zm-12.9,21.5c0,.1,0,.1-.1.2s-.1.1-.2.1h-.1a5.44,5.44,0,0,1-1.8,0l-.2.2a4,4,0,0,0,1.2,2.3,8.6,8.6,0,0,1,1.6.1l1.6-6.5c-1.8-.5-2.2-3.6.1-4a1.9,1.9,0,0,1,.5-1.3,22.26,22.26,0,0,0-3.6.5l.3,3.7v.5c0,.5-.7.5-.7.1v-.3l-1.5-1a1.61,1.61,0,0,0-.6,1.3,1.79,1.79,0,0,0,1.8,1.8.9.9,0,0,0,.5-.1v-.1c0-.5.7-.5.7-.1v.5l.5,2.1Zm-2.6-6.6.2.1h.1l1.2.8-.3-2.9a27.59,27.59,0,0,0-2.7.8,4.11,4.11,0,0,0-.5,5.6l.1.1a4.26,4.26,0,0,0,3.8,1.5l-.2-1.3c-.2,0-.4.1-.6.1a2.48,2.48,0,0,1-2.5-2.5,2.5,2.5,0,0,1,.8-1.8.42.42,0,0,1,.6-.5Zm-.4,6.6a5.78,5.78,0,0,1-2-1.3,5.15,5.15,0,0,1-5.5-2.8,25.73,25.73,0,0,0-2.4,2.1l1.5.4h.1l.4.1c.1,0,.1,0,.2.1a.1.1,0,0,1,.1.1c1.7,2.1,6,2.1,7.6,1.3Zm-2.5-2a4.34,4.34,0,0,1,0-5.1,21.26,21.26,0,0,0-4.4,2.6,4.48,4.48,0,0,0,4.4,2.5Zm-5.7,1.2h0a6.06,6.06,0,0,0-.1,3,17.7,17.7,0,0,0,4.8.5h4.4a4.13,4.13,0,0,1-.9-1.9c-2.1.8-6.3.5-8.2-1.6Zm1.2,11.1a5.67,5.67,0,0,1-1.3-.8,14.31,14.31,0,0,1-1.5,1.1h-.1a24.91,24.91,0,0,0-2.3,2.2l-.1.1a3.59,3.59,0,0,0-.7,1,.1.1,0,0,1-.1.1,9.84,9.84,0,0,0-1.4,3.5c-.3,1.5-.1,3.5-1,4.8a3.31,3.31,0,0,0,2.6-1.3c-.6-3.8,2.1-8.7,5.9-10.7Zm.5,6.9c-.1.1-.2.3-.3.4-.8,1.6.1,2.9,1,2.9,2.3,0,2.1-3.1-.7-3.3Zm-4.1-6.8a11,11,0,0,1-3.3-3.5,5.86,5.86,0,0,0,.1,2.3h0a8.71,8.71,0,0,0,1.4,2.9c.5-.5,1.1-1.1,1.8-1.7Zm-2.6,14.4a10.06,10.06,0,0,1,0,3,3,3,0,0,0,2.2-1,13.73,13.73,0,0,1-2.2-2Zm-.4-13.3-1.3.7.7,1.5c.3-.1.5-.2.8-.3a5.55,5.55,0,0,0,.6-.8,10.47,10.47,0,0,1-.8-1.1Zm-3.9,6.4a2.77,2.77,0,0,0,.1.9,12.32,12.32,0,0,1,2.4-1.4,11.86,11.86,0,0,1,1-2.8c-.1,0-.1.1-.2.1h0a9.12,9.12,0,0,0-3.3,3.2Zm.1-4.6c-.1,1.1-.2,2.2-.2,3.3a8.7,8.7,0,0,1,1.3-1.5l-1.1-1.8Zm.4-2.3a5.85,5.85,0,0,0-.2,1.3l1.5,2.5c.3-.2.5-.4.8-.6-1.2-2.6-1.5-2,1-3.2-.2-.4-.3-.8-.5-1.2a6.48,6.48,0,0,0-2.6,1.2Zm4-9.2a25.27,25.27,0,0,0-3.7,8.2,10.17,10.17,0,0,1,2.2-1,6.16,6.16,0,0,1,.3-3.5c.2-.4.6-.4.7.1.3,1.8,2.1,3.2,3.5,4.3a4.44,4.44,0,0,1,1.1-.8,9.71,9.71,0,0,1-4.1-7.3Zm2.5-3.2a6.89,6.89,0,0,0-1.1,1.3,6.55,6.55,0,0,0,2.6,2.1,9.31,9.31,0,0,1,.1-2.9l-1.6-.5Zm20.1-2.3a2.13,2.13,0,0,1-1.2.3,10.75,10.75,0,0,0-.1,3.1l1.9-2a2.38,2.38,0,0,1-.6-1.4Zm-2.2,2.1a1.54,1.54,0,0,1-1.3-.9c-.1-.2.7-.1.8-.1a1.27,1.27,0,0,0,.6-.1,5,5,0,0,1,.2-1.2h0a.6.6,0,0,1,.1-.4.35.35,0,1,1,.7.1,1.39,1.39,0,1,0-.5-2.7.35.35,0,1,1-.1-.7,2.85,2.85,0,0,1,1.3,0c-.2-3-4.9-1.2-2.2,1.1.4.3-.1.9-.5.5a2.37,2.37,0,0,1-.9-1.2,1.34,1.34,0,0,0-.1,2.6v-.1c.1-.5.8-.3.7.2l-.1.4h0l-1.8,7c.3,0,.6.1.9.1l2.5-2.7a5.82,5.82,0,0,1-.3-1.9Zm3.6,2.5a2.71,2.71,0,0,1-.4-2c.1-.3.4.2.5.3a5.58,5.58,0,0,0,.8.5c.6-.9,1.2-1.7,1.8-2.6s1.4-1.9,2.2-2.8c-1.2-1.5-3.3-.6-2.7,1.7a.36.36,0,0,1-.7.2,3.44,3.44,0,0,1-.1-1.4c-1.6-.5-2.7.9-1.7,2.3.3-.3.8.2.5.5l-2.8,3-.1.1L35.88,26a16.66,16.66,0,0,1,3,.8,24.9,24.9,0,0,1,1.9-3Zm-3.2,20c4-1.6,5.2-4.8,5-7.3-.9,1.3-1.8,2.6-2.6,3.9-.8,1.1-1.6,2.2-2.4,3.4Zm7.9-9.1a7.24,7.24,0,0,0,2.2-5.3L45,33a10.93,10.93,0,0,1,.5,1.7Zm5.2-6.4a6,6,0,0,0,2.5-4.9,37,37,0,0,0-2.8,2.8q.15,1.2.3,2.1Zm-.1,2.9c3.7-1.7,5.2-5.7,4.9-9.8a11.51,11.51,0,0,0-1.7,1.4c.2,2.5-.7,4.5-3.1,6.3a13.42,13.42,0,0,1-.1,2.1Zm-14.4,15.4h0a10,10,0,0,0,8.7-8.2v-.1a12.89,12.89,0,0,0,.1-2.8v-.1a10.46,10.46,0,0,0-.4-1.7c-.4.6-.9,1.2-1.3,1.9.6,3.2-.8,7.6-6.3,9.2a22,22,0,0,1-1.4,1.8Zm-15.4,12.7h0c.1.2.2.3.2.4a26.27,26.27,0,0,0,4-2.8h.1l1.8-1.5.1-.1c.6-.5,1.1-1.1,1.7-1.6a.1.1,0,0,1,.1-.1c.7-.7,1.5-1.5,2.2-2.3l.1-.1L33,49a.1.1,0,0,1,.1-.1c.5-.7,1.1-1.4,1.6-2.1,0-.1,0,0,.1-.1.6-.8,1.2-1.6,1.7-2.4a.1.1,0,0,1,.1-.1c2.1-2.9,4.1-5.9,6.1-8.9a.1.1,0,0,1,.1-.1c.6-.8,1.1-1.7,1.7-2.5a.1.1,0,0,1,.1-.1c1-1.4,2-2.7,3-4a1.38,1.38,0,0,0,.3-.4.1.1,0,0,1,.1-.1c.6-.7,1.2-1.5,1.8-2.2a.1.1,0,0,1,.1-.1c1.1-1.2,2.3-2.4,3.4-3.5l.1-.1a18.06,18.06,0,0,1,2.3-1.8l.1-.1.1-.1H56c.1-.1.2-.2.3-.2l-.7-2a10.63,10.63,0,0,0-1.1.9l-.1.1c-13.6,11.3-19.3,29.4-34.2,39.3a8.79,8.79,0,0,1,.6,1Zm12.8,1.3h0a3.75,3.75,0,0,0,1,.1,4.07,4.07,0,0,0,2.4-.8h0a3.72,3.72,0,0,0,1.3-2.8,3.34,3.34,0,0,0-.3-1.5v-.1a3.81,3.81,0,0,0-3.3-2.1h-.6a3.7,3.7,0,0,0-1.8.8h-.1a3.72,3.72,0,0,0-1.3,2.8,3.66,3.66,0,0,0,2.7,3.6ZM24,74.14a15.68,15.68,0,0,0,2.9-1.4l.1-.1a18.39,18.39,0,0,0,2.2-1.7.1.1,0,0,1,.1-.1,13.58,13.58,0,0,0,4-9.6,4.74,4.74,0,0,1-1.9-1.2c.4,4.1-.9,9.1-7,12.1-.1.1-.1.1-.2.1H24a12,12,0,0,1-3-1.5l-.2-.2a8.33,8.33,0,0,1-2-2.2c-.1-.1-.1-.1-.1-.2-1.2-2.1-1-4.5,2.4-6.5l-.6-1.5c-7,4.6-4.3,10.4,3.5,14Zm3.2-.8c-.7.4-1.5.8-2.3,1.2a38.27,38.27,0,0,0,15,2.7,108.18,108.18,0,0,0-12.7-3.9Zm2.4-1.8a15.76,15.76,0,0,1-1.5,1.2A105.06,105.06,0,0,1,41.68,77c1.5-.1,3.1-.3,4.6-.5-4.3-1.3-12.9-4-16.7-5Zm4.3-10.1a14.47,14.47,0,0,1-3.8,9.6c4.4,1.1,14,4.1,17.5,5.4.5-.1,1-.2,1.4-.3a23.23,23.23,0,0,1,.8-11.4,28.24,28.24,0,0,1-12.7-4.1,4.52,4.52,0,0,1-2.6.9c-.1-.1-.4-.1-.6-.1Zm0-9.7.3.9h.4a4.55,4.55,0,0,1,2,.5c.4-2-1.5-2.8-2.7-1.4Zm2.6-3.6a4.52,4.52,0,0,1,2.3,7.2,4.67,4.67,0,0,1,.3,1.7,4.77,4.77,0,0,1-1.2,3.1c6.2,3.8,13.2,4.5,17.8,3.5,4.8-1,6.5-3.6,3.5-6.4-.5-.5.9-1.8,2-1.9a1.41,1.41,0,0,0-.7-1.5,22,22,0,0,0-5.5,1,.36.36,0,0,1-.7,0c-.2-.5.3-1.3.4-1.5.2-.5.8-.2.6.3a.76.76,0,0,0-.2.5,20.54,20.54,0,0,1,5.4-1c.4-.3,1.4-1,1.2-1.6a5.92,5.92,0,0,1-.4-.6c-.8-1-.4-1.7.3-2.5a4.16,4.16,0,0,0-3.6.9c-.5.5-1.3-.9-1.4-1.1a2.48,2.48,0,0,1,.9-2.9c.3-.3.8.2.5.5-.9.9-1.2,1.8-.3,2.7h0a5.41,5.41,0,0,1,4.6-.8h0c2.7-.2,2.5-1.3,1.8-3.2-.3-.8-.7-1.7-1-2.7-.6-1.5-1.7-4.6-2.8-8-3.1-1.2-7.5-.5-10.8,1a13,13,0,0,1-3.7,3.7,10.5,10.5,0,0,1-9,8.6l-.3,1Zm-.8-.1.1-.7H35c-.5.7-1,1.3-1.5,1.9a7.77,7.77,0,0,0,.2,1.6c1.5-1.3,4.4-.4,3.5,2.6a4.56,4.56,0,0,1,1.2,1.2,3.76,3.76,0,0,0-2.9-5.9.35.35,0,1,1,0-.7Zm12.4-25.6a.7.7,0,1,1-.7-.7.84.84,0,0,1,.7.7Zm1.9-2.2a.7.7,0,1,1-.7-.7.68.68,0,0,1,.7.7Zm-3.7,4.6a.6.6,0,1,1-.6-.6.65.65,0,0,1,.6.6Zm-20.4-6.4a.7.7,0,1,1-.7-.7.68.68,0,0,1,.7.7Zm8.7,39.9a1.3,1.3,0,1,0-1.3-1.3,1.32,1.32,0,0,0,1.3,1.3Zm0,.7a2,2,0,1,1,2-2,2,2,0,0,1-2,2Zm17-19.1a4.71,4.71,0,0,1-.2-2.1,8.47,8.47,0,0,0-3,1.5c.3.1.8.2,1.4.4a9,9,0,0,0,1.8.2Zm.5-2.3a5.31,5.31,0,0,0,.2,2.3,6.6,6.6,0,0,0,1.4-.1,2.45,2.45,0,0,1-.4-1.2,2.74,2.74,0,0,1,.2-1.3c-.4.1-.9.2-1.4.3Zm3-1.1a5.58,5.58,0,0,1,1.3,0c.2,0,.3.2.3.4,0,.4-.6.7-1,.8a1.48,1.48,0,0,1,.1.7,1.87,1.87,0,0,1-1,2.1h-.1a21.3,21.3,0,0,1-2.7.2h-.2a11.22,11.22,0,0,1-4.2-.8h0c-.3.4-.9-.1-.5-.5l.2-.2.1-.1a12.33,12.33,0,0,1,7.7-2.6Z"/><path class="cls-1" d="M80.58,9.54v1.3h4v12.4h1.5V10.84h4V9.54Zm12.6,0v13.7h7.4v-1.3h-5.9v-5.1h5.4v-1.3h-5.4v-4.7h5.9V9.54Zm17.6.9a6,6,0,0,1,3.5,1l.6-1.1a8.3,8.3,0,0,0-4.1-1,7,7,0,0,0-7.2,7.1c0,4.5,3.2,7.1,7.2,7.1a8.49,8.49,0,0,0,4.1-1.2l-.5-1a7.42,7.42,0,0,1-3.5,1,5.68,5.68,0,0,1-5.7-5.9,5.52,5.52,0,0,1,5.6-6Zm7.6-.9v13.7h1.5v-6.6h7.5v6.6h1.5V9.54h-1.5v5.9h-7.5V9.54Zm17-.3-1.6.4v13.6h1.5V11.44l8,12.1,1.6-.4V9.54h-1.4v11.7l-8.1-12Zm15,.3v13.7h1.5V9.54Zm9.4,12.9a5.3,5.3,0,0,1-2.9-1l-.6,1a6.3,6.3,0,0,0,3.6,1c3,0,4.4-1.9,4.4-3.9s-1.5-3-3-3.7l-1.2-.6c-1-.5-2.1-1.2-2.1-2.4a2.59,2.59,0,0,1,2.7-2.6,4.41,4.41,0,0,1,2.9,1l.5-1a7.11,7.11,0,0,0-3.5-1c-2.4,0-4.1,1.5-4.1,3.5,0,2.9,2.1,3.4,4.1,4.4a2.79,2.79,0,0,1,2,2.6,2.6,2.6,0,0,1-2.8,2.7Zm15-12a6,6,0,0,1,3.5,1l.6-1.1a8.3,8.3,0,0,0-4.1-1,7,7,0,0,0-7.2,7.1c0,4.5,3.2,7.1,7.2,7.1a8.49,8.49,0,0,0,4.1-1.2l-.5-1a7.42,7.42,0,0,1-3.5,1,5.68,5.68,0,0,1-5.7-5.9,5.57,5.57,0,0,1,5.6-6Zm8-.9v13.7h1.5v-6.6h7.5v6.6h1.5V9.54h-1.5v5.9h-7.5V9.54Zm15.4,0v13.7h7.5v-1.3h-5.9v-5.1h5.4v-1.3h-5.4v-4.7h5.9V9.54ZM92.78,41.14v-9h-1.5v8.8c0,3.1-1.5,4-3.8,4-2.6,0-3.7-1.4-3.7-4v-8.8h-1.6v9.1c0,3.1,1.8,4.8,5.2,4.8,2.6.1,5.4-.7,5.4-4.9Zm5.9-9.2-1.6.4v13.6h1.5V34.14l8,12.1,1.6-.4V32.24h-1.4v11.7l-8.1-12Zm14.4.3v13.7h1.5V32.24ZM119,32l-1.5.5,5.2,13.4h1.5l5.3-13.4L128,32l-4.5,12.3L119,32Zm13.5.2v13.7h7.4v-1.3H134v-5.2h5.3v-1.3H134v-4.7h5.9v-1.3h-7.4Zm14.4,6.6h-1.8v-5.5h2.2c2.4,0,3.1,1.2,3.1,2.7,0,2.3-1.7,2.8-3.5,2.8Zm.8-6.6h-4.1v13.7h1.5V40h1.3a2.48,2.48,0,0,1,2.1,1.1l.6.8,3.2,4.4,1.3-.8-2.7-3.7c-.5-.7-1.3-1.9-2.1-2.2v-.3c1.9-.3,3-1.3,3-3.6,0-2.1-1.5-3.5-4.1-3.5Zm11.4,12.9a5.3,5.3,0,0,1-2.9-1l-.6,1a6.3,6.3,0,0,0,3.6,1c3,0,4.4-1.9,4.4-3.9s-1.5-3-3-3.7l-1.2-.6c-1-.5-2.1-1.2-2.1-2.4a2.59,2.59,0,0,1,2.7-2.6,5,5,0,0,1,2.9,1l.5-1a7.11,7.11,0,0,0-3.5-1c-2.4,0-4.1,1.5-4.1,3.5,0,2.9,2.1,3.4,4.1,4.4a2.79,2.79,0,0,1,2,2.6,2.5,2.5,0,0,1-2.8,2.7Zm8.6-12.9v13.7h1.5V32.24Zm4.5,0v1.3h4v12.4h1.5V33.44h4v-1.3h-9.5Zm16.5,1.3,2.5,6.8h-5.1l2.6-6.8Zm6.2,12.2-5.4-13.5h-1.6l-5.6,13.5,1.5.5,1.8-4.8h6l1.8,4.8,1.5-.5Zm-2.3-14.4h-1.4v1.8h1.4v-1.8Zm-6.4,1.8v-1.8h-1.4v1.8Zm10.1-.9v1.3h4v12.4h1.5V33.54h4v-1.3ZM85.68,67.34h-2V56H86c3.8,0,6.3,1.9,6.3,5.6s-2.5,5.7-6.6,5.7Zm.7-12.5h-4.2v13.7h3.7c4.7,0,7.9-2.4,7.9-7,0-3.4-1.9-6.7-7.4-6.7Zm15.9,1.4,2.5,6.8h-5.1l2.6-6.8Zm6.2,12.1-5.4-13.5h-1.6l-5.6,13.5,1.5.5,1.8-4.8h6l1.8,4.8,1.5-.5Zm7-6.8h-1.8V56h2.2c2.4,0,3.1,1.2,3.1,2.7,0,2.2-1.7,2.8-3.5,2.8Zm.8-6.7h-4.1v13.7h1.5v-5.9H115a2.48,2.48,0,0,1,2.1,1.1l.6.8,3.2,4.4,1.3-.8-2.7-3.6c-.5-.7-1.3-1.9-2.1-2.1v-.3c1.9-.3,3-1.3,3-3.6s-1.5-3.7-4.1-3.7Zm14.4,0H129l-3.8,13.5,1.5.4,3.2-11.9,3.5,11.6h1.7l3.5-11.7,3.2,11.9,1.5-.4-3.9-13.4h-1.7l-3.5,11.9-3.5-11.9Zm19.1,12.9a5.3,5.3,0,0,1-2.9-1l-.6,1a6.3,6.3,0,0,0,3.6,1c3,0,4.4-1.9,4.4-3.9s-1.5-3-3-3.7l-1.2-.6c-1-.5-2.1-1.2-2.1-2.4a2.59,2.59,0,0,1,2.7-2.6,4.41,4.41,0,0,1,2.9,1l.5-1a7.11,7.11,0,0,0-3.5-1c-2.4,0-4.1,1.5-4.1,3.5,0,2.9,2.1,3.4,4.1,4.4a2.79,2.79,0,0,1,2,2.6,2.5,2.5,0,0,1-2.8,2.7Zm7-12.9v1.3h4v12.4h1.5V56.14h4v-1.3Zm16.7,1.4L176,63h-5.1l2.6-6.8Zm6.2,12.2-5.4-13.6h-1.6l-5.6,13.5,1.5.5,1.8-4.8h6l1.8,4.8,1.5-.4Zm6.7-1.1h-2V56h2.3c3.8,0,6.3,1.9,6.3,5.6s-2.6,5.7-6.6,5.7Zm.6-12.5h-4.2v13.7h3.7c4.7,0,7.9-2.4,7.9-7,0-3.4-1.9-6.7-7.4-6.7Zm9.3,0v1.3h4v12.4h1.5V56.14h4v-1.3Z"/></g></g></svg>