<svg xmlns="http://www.w3.org/2000/svg" viewBox="0 0 303.5 46.97"><defs><style>.cls-1{fill:#1d1d1b;}</style></defs><g id="Ebene_2" data-name="Ebene 2"><g id="Ebene_1-2" data-name="Ebene 1"><path class="cls-1" d="M53.39,18.7a7,7,0,0,0-2.53.9,5.34,5.34,0,0,0-2,2.61c-1.39,3.38-2.5,6.12-3.33,8.2s-2,5.08-3.51,9c-.32.81-.7,1.93-1.14,3.35s-.8,2.6-1.06,3.51H34.05L26.57,26.05l-7,20.23H13.82q-3-8.12-4.72-12.59T4.49,21.88a4.38,4.38,0,0,0-1.83-2.2A6.58,6.58,0,0,0,0,18.7V16.53H18.25V18.7a14.61,14.61,0,0,0-2.41.47c-.93.26-1.4.61-1.4,1a1.62,1.62,0,0,0,.08.52c.05.15.13.42.25.82q.81,2.32,2.2,6l3.28,8.57,6.6-19.59h5.89l7.5,20.19q1.73-4.57,2.66-7.2c.63-1.75,1.41-4,2.36-6.78a5.12,5.12,0,0,0,.26-1.11,2.74,2.74,0,0,0,0-.64A1.25,1.25,0,0,0,45,20a4.36,4.36,0,0,0-1.28-.7,9.23,9.23,0,0,0-1.44-.41q-.69-.15-1.17-.21V16.53H53.39Z"/><path class="cls-1" d="M85,20a13.5,13.5,0,0,1,3.36,4.9,16.11,16.11,0,0,1,1.16,6.18,17,17,0,0,1-1.14,6.23,13.6,13.6,0,0,1-3.35,5,16,16,0,0,1-5.6,3.42A21.69,21.69,0,0,1,72,47a20.64,20.64,0,0,1-6.67-1A15.71,15.71,0,0,1,60,42.8a14,14,0,0,1-3.57-4.91,16,16,0,0,1-1.31-6.56A16.45,16.45,0,0,1,56.23,25,14.08,14.08,0,0,1,59.66,20a15.07,15.07,0,0,1,5.42-3.23,23.75,23.75,0,0,1,14.54,0A15.7,15.7,0,0,1,85,20Zm-7.6,20.59a17.52,17.52,0,0,0,1-4,42.67,42.67,0,0,0,.31-5.53,45.52,45.52,0,0,0-.29-4.75,17.33,17.33,0,0,0-.9-4.22,7.06,7.06,0,0,0-2-2.95,5.4,5.4,0,0,0-6.57.09,7.74,7.74,0,0,0-2,3,16.45,16.45,0,0,0-.86,4,45.29,45.29,0,0,0-.24,4.74q0,3.24.21,5.37a16.65,16.65,0,0,0,1,4.27,6.91,6.91,0,0,0,2,2.91,4.89,4.89,0,0,0,3.24,1.07,4.79,4.79,0,0,0,3.06-1A6.56,6.56,0,0,0,77.44,40.63Z"/><path class="cls-1" d="M123,22a6.1,6.1,0,0,1-1.39,4,4.52,4.52,0,0,1-3.69,1.7,6,6,0,0,1-3.67-1.09,3.75,3.75,0,0,1-1.5-3.23,6.69,6.69,0,0,1,.15-1.61c.1-.38.19-.75.27-1.08a6.29,6.29,0,0,0-2.89.94,9.46,9.46,0,0,0-2.67,2.36V40.25a4.09,4.09,0,0,0,.32,1.72A2.29,2.29,0,0,0,109,43a7.76,7.76,0,0,0,2.13.55c1,.15,1.69.24,2.12.26V46H93.4V43.85c.49,0,1-.1,1.5-.17a7.17,7.17,0,0,0,1.29-.28,2.21,2.21,0,0,0,1.31-1,3.85,3.85,0,0,0,.36-1.79V23.3a3.62,3.62,0,0,0-.51-1.91A4.21,4.21,0,0,0,96.13,20a4.72,4.72,0,0,0-1.35-.6,9.45,9.45,0,0,0-1.8-.33V16.94l14.18-.77.45.45v4.31h.12a17.17,17.17,0,0,1,4.35-3.73,9.3,9.3,0,0,1,4.8-1.36,6,6,0,0,1,4.45,1.71A6.07,6.07,0,0,1,123,22Z"/><path class="cls-1" d="M163.46,45.39l-14.65.86-.45-.41V43.1l-.21-.06a12.62,12.62,0,0,1-3.93,2.75,11.62,11.62,0,0,1-5,1.18,12.55,12.55,0,0,1-9.89-4.46q-3.89-4.45-3.89-11.54a14.93,14.93,0,0,1,4.35-10.76,14.13,14.13,0,0,1,10.52-4.49,18.66,18.66,0,0,1,4.58.55,13.61,13.61,0,0,1,3.41,1.3V7.85a4.85,4.85,0,0,0-.45-2.07,3.73,3.73,0,0,0-1.18-1.5,6.06,6.06,0,0,0-2.31-.94,26.21,26.21,0,0,0-2.78-.4V.77L157.66,0l.45.48v39a4.35,4.35,0,0,0,.37,1.9,2.77,2.77,0,0,0,1.2,1.22,5.45,5.45,0,0,0,1.82.47c.79.1,1.45.16,2,.18ZM148.3,40.1V23.3a13,13,0,0,0-.58-1.51,6.17,6.17,0,0,0-1-1.58,5.49,5.49,0,0,0-1.59-1.1,5.22,5.22,0,0,0-2.24-.47q-3,0-4.86,3.36c-1.26,2.24-1.9,5.4-1.9,9.48a25.5,25.5,0,0,0,.34,4.32,11.33,11.33,0,0,0,1.21,3.5,6.67,6.67,0,0,0,2.2,2.46,5.74,5.74,0,0,0,3.25.9,5.89,5.89,0,0,0,3-.7A9,9,0,0,0,148.3,40.1Z"/><path class="cls-1" d="M203,44.65a40.39,40.39,0,0,1-4.08,1.5,18.31,18.31,0,0,1-5.29.67q-4.63,0-6.88-2.26a8.72,8.72,0,0,1-2.24-6.44V19.89h-5.35V16.65h5.47v-9h9.63v9h8.35v3.24h-8.29V36.15c0,2.32.32,4,1,4.93a3.85,3.85,0,0,0,3.47,1.46c.54,0,1.28,0,2.24-.12a13.53,13.53,0,0,0,2-.27Z"/><path class="cls-1" d="M234.68,22a6.1,6.1,0,0,1-1.39,4,4.53,4.53,0,0,1-3.69,1.7,6,6,0,0,1-3.67-1.09,3.75,3.75,0,0,1-1.5-3.23,6.69,6.69,0,0,1,.15-1.61c.1-.38.18-.75.26-1.08a6.29,6.29,0,0,0-2.88.94,9.46,9.46,0,0,0-2.67,2.36V40.25a3.94,3.94,0,0,0,.32,1.72,2.29,2.29,0,0,0,1.1,1.07,7.76,7.76,0,0,0,2.13.55c1,.15,1.69.24,2.12.26V46H205.08V43.85c.49,0,1-.1,1.5-.17a7.37,7.37,0,0,0,1.29-.28,2.24,2.24,0,0,0,1.31-1,3.85,3.85,0,0,0,.36-1.79V23.3a3.62,3.62,0,0,0-.51-1.91A4.21,4.21,0,0,0,207.81,20a4.84,4.84,0,0,0-1.35-.6,9.6,9.6,0,0,0-1.8-.33V16.94l14.18-.77.45.45v4.31h.11a17.38,17.38,0,0,1,4.36-3.73,9.28,9.28,0,0,1,4.8-1.36A5.94,5.94,0,0,1,233,17.55,6,6,0,0,1,234.68,22Z"/><path class="cls-1" d="M268.69,38.91a17.93,17.93,0,0,1-2.51,3.2,15.45,15.45,0,0,1-3.35,2.57,18.6,18.6,0,0,1-4,1.71,17.44,17.44,0,0,1-4.69.58,20.88,20.88,0,0,1-7.59-1.25,14.87,14.87,0,0,1-5.28-3.36,13.52,13.52,0,0,1-3.1-5,18.22,18.22,0,0,1-1-6.23,15.33,15.33,0,0,1,1.12-5.81,15.54,15.54,0,0,1,3.16-4.95A15.28,15.28,0,0,1,246.5,17a17.43,17.43,0,0,1,6.88-1.3,19.48,19.48,0,0,1,6.84,1,12.07,12.07,0,0,1,4.43,2.79,10,10,0,0,1,2.46,4,14.91,14.91,0,0,1,.78,4.83v1.93h-20.1c0,4.06.79,7.15,2.35,9.28s4.05,3.18,7.46,3.18a8.64,8.64,0,0,0,5-1.54,14.44,14.44,0,0,0,3.8-3.87Zm-11.36-11.3c0-1.18-.05-2.4-.17-3.65a12,12,0,0,0-.63-3.06,4.66,4.66,0,0,0-1.38-2.11,3.36,3.36,0,0,0-2.21-.72,4.13,4.13,0,0,0-3.66,2.32q-1.36,2.33-1.49,7.34Z"/><path class="cls-1" d="M303.5,38.91a18.4,18.4,0,0,1-2.51,3.2,15.45,15.45,0,0,1-3.35,2.57,18.68,18.68,0,0,1-4,1.71,17.31,17.31,0,0,1-4.68.58,20.88,20.88,0,0,1-7.59-1.25,14.87,14.87,0,0,1-5.28-3.36,13.54,13.54,0,0,1-3.11-5,18.46,18.46,0,0,1-1-6.23A15.51,15.51,0,0,1,273,25.34a15.75,15.75,0,0,1,3.17-4.95,15.28,15.28,0,0,1,5.1-3.42,17.43,17.43,0,0,1,6.88-1.3,19.51,19.51,0,0,1,6.84,1,12.07,12.07,0,0,1,4.43,2.79,10.15,10.15,0,0,1,2.46,4,14.91,14.91,0,0,1,.78,4.83v1.93H282.6q0,6.09,2.35,9.28t7.46,3.18a8.59,8.59,0,0,0,5-1.54,14.33,14.33,0,0,0,3.81-3.87Zm-11.36-11.3c0-1.18-.06-2.4-.18-3.65a11.64,11.64,0,0,0-.62-3.06A4.74,4.74,0,0,0,290,18.79a3.38,3.38,0,0,0-2.22-.72,4.13,4.13,0,0,0-3.65,2.32q-1.36,2.33-1.49,7.34Z"/></g></g></svg>