<svg xmlns="http://www.w3.org/2000/svg" viewBox="0 0 451.33 23.15"><defs><style>.cls-1{fill:#1d1d1b;}.cls-2{fill:#9d9d9c;}</style></defs><g id="Ebene_2" data-name="Ebene 2"><g id="Ebene_1-2" data-name="Ebene 1"><path class="cls-1" d="M32.53.46l-6,22.23H20.19l-4-14.48L12.32,22.69H6L0,.46H6l3.41,15.3L13.49.46h5.72l3.89,15.3L26.68.46Z"/><path class="cls-1" d="M58,11.58a11.56,11.56,0,0,1-3,8.44q-3,3.14-8.42,3.13T38.09,20a11.56,11.56,0,0,1-3-8.44,11.6,11.6,0,0,1,3-8.47Q41.13,0,46.5,0a11.26,11.26,0,0,1,8.4,3.11A11.57,11.57,0,0,1,58,11.58Zm-7.6,5.63a6.6,6.6,0,0,0,1.24-2.4A11.55,11.55,0,0,0,52,11.57a10.81,10.81,0,0,0-.47-3.4A6.49,6.49,0,0,0,50.33,5.9a4.46,4.46,0,0,0-1.75-1.3,5.51,5.51,0,0,0-4.12,0,4.85,4.85,0,0,0-1.77,1.29,6.29,6.29,0,0,0-1.22,2.3A11.33,11.33,0,0,0,41,11.58,11,11,0,0,0,41.46,15a6.55,6.55,0,0,0,1.2,2.28,4.59,4.59,0,0,0,1.75,1.3,5.36,5.36,0,0,0,2.1.42,5.24,5.24,0,0,0,2.11-.43A4.51,4.51,0,0,0,50.36,17.21Z"/><path class="cls-1" d="M83.74,22.69h-7l-6-8.15H68v8.15H62.33V.46H72a22,22,0,0,1,3.39.23,7.25,7.25,0,0,1,2.65,1,5.78,5.78,0,0,1,2,1.93,5.55,5.55,0,0,1,.74,3,6.6,6.6,0,0,1-1.15,4,8.62,8.62,0,0,1-3.26,2.59ZM74.8,7.27a2.88,2.88,0,0,0-.34-1.43,2.28,2.28,0,0,0-1.18-.94,4.47,4.47,0,0,0-1.36-.3c-.52,0-1.12,0-1.81,0H68v6H69.8a16.35,16.35,0,0,0,2.3-.14,3.31,3.31,0,0,0,1.55-.61,2.93,2.93,0,0,0,.87-1A3.32,3.32,0,0,0,74.8,7.27Z"/><path class="cls-1" d="M107.25,11.6a10.88,10.88,0,0,1-1.42,5.56,10.33,10.33,0,0,1-3.58,3.77,11.09,11.09,0,0,1-3.57,1.37,23.56,23.56,0,0,1-4.6.39H86.25V.46h8.06A20.73,20.73,0,0,1,99,.92a10.79,10.79,0,0,1,3.31,1.29A10.11,10.11,0,0,1,105.93,6,11.4,11.4,0,0,1,107.25,11.6Zm-5.93,0a8.18,8.18,0,0,0-.79-3.75A5.65,5.65,0,0,0,98,5.36a6.44,6.44,0,0,0-1.8-.59,17.26,17.26,0,0,0-2.77-.16H92V18.52h1.45a17.93,17.93,0,0,0,3-.18,6.52,6.52,0,0,0,1.86-.68,5.48,5.48,0,0,0,2.3-2.4A8.37,8.37,0,0,0,101.32,11.55Z"/><path class="cls-1" d="M142.61,22.69h-5.92l-1.54-4.49h-8.23l-1.55,4.49H119.6L127.8.46h6.6Zm-8.84-8.57-2.74-8-2.73,8Z"/><path class="cls-1" d="M166,22.69H160.5L151.06,7.43V22.69h-5.25V.46h6.85l8.1,12.74V.46H166Z"/><path class="cls-1" d="M192.69,11.6a10.88,10.88,0,0,1-1.42,5.56,10.33,10.33,0,0,1-3.58,3.77,11.09,11.09,0,0,1-3.57,1.37,23.53,23.53,0,0,1-4.59.39h-7.84V.46h8.06a20.73,20.73,0,0,1,4.69.46,10.69,10.69,0,0,1,3.31,1.29A10.11,10.11,0,0,1,191.37,6,11.4,11.4,0,0,1,192.69,11.6Zm-5.92,0A8.17,8.17,0,0,0,186,7.8a5.6,5.6,0,0,0-2.53-2.44,6.44,6.44,0,0,0-1.8-.59,17.17,17.17,0,0,0-2.77-.16h-1.45V18.52h1.45a17.93,17.93,0,0,0,3-.18,6.69,6.69,0,0,0,1.87-.68,5.59,5.59,0,0,0,2.3-2.4A8.51,8.51,0,0,0,186.77,11.55Z"/><path class="cls-1" d="M225.86,7.48a8.41,8.41,0,0,1-.52,2.92,6.41,6.41,0,0,1-1.5,2.39,9,9,0,0,1-3,2,10.69,10.69,0,0,1-4.07.67h-3.56v7.24h-5.74V.46H217a14.55,14.55,0,0,1,3.57.37,8.34,8.34,0,0,1,2.58,1.1,5.83,5.83,0,0,1,2.05,2.25A7.15,7.15,0,0,1,225.86,7.48Zm-5.93.13a2.67,2.67,0,0,0-.5-1.62,2.79,2.79,0,0,0-1.18-1,5.43,5.43,0,0,0-1.75-.39c-.57,0-1.32,0-2.27,0h-1v6.64h1.64a13.43,13.43,0,0,0,2.41-.17,3.42,3.42,0,0,0,1.59-.72,2.82,2.82,0,0,0,.8-1.14A4.75,4.75,0,0,0,219.93,7.61Z"/><path class="cls-1" d="M249.85,22.69h-5.73V12.9h-8.47v9.79h-5.73V.46h5.73V8.6h8.47V.46h5.73Z"/><path class="cls-1" d="M276.93,22.69h-7l-6-8.15h-2.66v8.15h-5.7V.46h9.61a21.83,21.83,0,0,1,3.39.23,7.29,7.29,0,0,1,2.66,1,5.75,5.75,0,0,1,2,1.93,5.55,5.55,0,0,1,.74,3,6.59,6.59,0,0,1-1.14,4,8.62,8.62,0,0,1-3.26,2.59ZM268,7.27a2.78,2.78,0,0,0-.34-1.43,2.24,2.24,0,0,0-1.18-.94,4.47,4.47,0,0,0-1.36-.3c-.51,0-1.12,0-1.8,0h-2.08v6H263a16.15,16.15,0,0,0,2.3-.14,3.23,3.23,0,0,0,1.55-.61,3.08,3.08,0,0,0,.88-1A3.47,3.47,0,0,0,268,7.27Z"/><path class="cls-1" d="M300,22.69h-5.92l-1.54-4.49h-8.23l-1.55,4.49H277L285.17.46h6.59Zm-8.84-8.57-2.74-8-2.73,8Z"/><path class="cls-1" d="M321,15.7A6.36,6.36,0,0,1,318.18,21a12.49,12.49,0,0,1-7.56,2.05,21.34,21.34,0,0,1-4.82-.48A26.17,26.17,0,0,1,302,21.38V16.05h.62a13.51,13.51,0,0,0,4,2.18,13.15,13.15,0,0,0,4.23.76,13.8,13.8,0,0,0,1.38-.09,5.47,5.47,0,0,0,1.39-.3,3.48,3.48,0,0,0,1.08-.67,1.73,1.73,0,0,0-.2-2.46,4.3,4.3,0,0,0-1.81-.81c-.84-.2-1.72-.39-2.65-.56a21.31,21.31,0,0,1-2.62-.67,8.18,8.18,0,0,1-4-2.47,6.06,6.06,0,0,1-1.23-3.87A6,6,0,0,1,304.88,2a12.11,12.11,0,0,1,7.15-2,22.48,22.48,0,0,1,4.34.42,20.68,20.68,0,0,1,3.71,1.07V6.67h-.61a12.37,12.37,0,0,0-3.29-1.8,11.42,11.42,0,0,0-4-.72,9.82,9.82,0,0,0-1.43.1,5.25,5.25,0,0,0-1.36.36,2.58,2.58,0,0,0-1,.68,1.5,1.5,0,0,0-.42,1,1.53,1.53,0,0,0,.67,1.35,7.61,7.61,0,0,0,2.54.86l2.35.49a24.13,24.13,0,0,1,2.42.66A8.08,8.08,0,0,1,319.74,12,5.61,5.61,0,0,1,321,15.7Z"/><path class="cls-1" d="M341,22.69H324.89V.46H341v4.3H330.59V8.6h9.63v4.3h-9.63v5.49H341Z"/><path class="cls-2" d="M361.7,22.69h-5.59V16.82h5.59Z"/><path class="cls-2" d="M379.28,22.69h-13V18.75h3.65V4.4h-3.65V.46h13V4.4h-3.64V18.75h3.64Z"/><path class="cls-2" d="M404.16,22.69h-5.52L389.21,7.43V22.69H384V.46h6.85l8.11,12.74V.46h5.25Z"/><path class="cls-2" d="M425.76,4.76H415.54V8.9H425v4.3h-9.48v9.49h-5.7V.46h15.92Z"/><path class="cls-2" d="M451.33,11.58a11.56,11.56,0,0,1-3,8.44q-3,3.14-8.42,3.13T431.47,20a11.56,11.56,0,0,1-3.05-8.44,11.6,11.6,0,0,1,3.05-8.47q3-3.1,8.4-3.11a11.26,11.26,0,0,1,8.4,3.11A11.57,11.57,0,0,1,451.33,11.58Zm-7.59,5.63a6.58,6.58,0,0,0,1.23-2.4,11.55,11.55,0,0,0,.41-3.24,11.13,11.13,0,0,0-.46-3.4,6.66,6.66,0,0,0-1.21-2.27A4.56,4.56,0,0,0,442,4.6a5.51,5.51,0,0,0-4.12,0,4.85,4.85,0,0,0-1.77,1.29,6.28,6.28,0,0,0-1.21,2.3,11,11,0,0,0-.47,3.41,11.07,11.07,0,0,0,.45,3.38,6.72,6.72,0,0,0,1.2,2.28,4.59,4.59,0,0,0,1.75,1.3,5.39,5.39,0,0,0,2.1.42,5.24,5.24,0,0,0,2.11-.43A4.54,4.54,0,0,0,443.74,17.21Z"/></g></g></svg>